<?xml version="1.0"?>
<svg xmlns="http://www.w3.org/2000/svg" xmlns:xlink="http://www.w3.org/1999/xlink" viewBox="0 0 363.000000 184.000000" width="181.500000mm" height="92.000000mm" version="1.1">
<a xlink:href="rev-0x7fe2ec830250.svg">
<rect x="1.000000" y="1.000000" width="362.000000" height="183.000000" rx="0" ry="0" style="stroke:none;fill:#cccccc;"/>
<rect x="0.000000" y="0.000000" width="362.000000" height="183.000000" rx="0" ry="0" style="stroke:none;fill:#ffffff;"/>
</a>
<text x="10.000000" y="7.000000" font-family="Arial" font-size="7"></text>
<rect x="49.000000" y="117.000000" width="24.000000" height="24.000000" rx="0" ry="0" style="stroke:none;fill:#cccccc;"/>
<rect x="48.000000" y="116.000000" width="24.000000" height="24.000000" rx="0" ry="0" style="stroke:none;fill:#4B71A1;"/>
<text x="60.000000" y="130.000000" font-family="Arial" font-size="7" text-anchor="middle" fill="#FFFFFF">+</text>
<circle cx="50.000000" cy="118.000000" r="1"/>
<line x1="45.000000" y1="123.000000" x2="48.000000" y2="124.000000"  transform="rotate(0.000000,48.000000,124.000000)" style="stroke: black; stroke-width:0.25;"/>
<line x1="45.000000" y1="125.000000" x2="48.000000" y2="124.000000"  transform="rotate(0.000000,48.000000,124.000000)" style="stroke: black; stroke-width:0.25;"/>
<line x1="45.000000" y1="131.000000" x2="48.000000" y2="132.000000"  transform="rotate(0.000000,48.000000,132.000000)" style="stroke: black; stroke-width:0.25;"/>
<line x1="45.000000" y1="133.000000" x2="48.000000" y2="132.000000"  transform="rotate(0.000000,48.000000,132.000000)" style="stroke: black; stroke-width:0.25;"/>
<a xlink:href="delay-0x7fe2ec82e000.svg">
<rect x="107.000000" y="97.000000" width="129.000000" height="24.000000" rx="0" ry="0" style="stroke:none;fill:#cccccc;"/>
<rect x="106.000000" y="96.000000" width="129.000000" height="24.000000" rx="0" ry="0" style="stroke:none;fill:#003366;"/>
</a>
<a xlink:href="delay-0x7fe2ec82e000.svg">
<text x="170.500000" y="110.000000" font-family="Arial" font-size="7" text-anchor="middle" fill="#FFFFFF">delay(1024)((...: int),1 : -)</text>
</a>
<circle cx="108.000000" cy="98.000000" r="1"/>
<line x1="103.000000" y1="107.000000" x2="106.000000" y2="108.000000"  transform="rotate(0.000000,106.000000,108.000000)" style="stroke: black; stroke-width:0.25;"/>
<line x1="103.000000" y1="109.000000" x2="106.000000" y2="108.000000"  transform="rotate(0.000000,106.000000,108.000000)" style="stroke: black; stroke-width:0.25;"/>
<rect x="138.600000" y="137.000000" width="25.800000" height="24.000000" rx="0" ry="0" style="stroke:none;fill:#cccccc;"/>
<rect x="137.600000" y="136.000000" width="25.800000" height="24.000000" rx="0" ry="0" style="stroke:none;fill:#f44800;"/>
<text x="150.500000" y="150.000000" font-family="Arial" font-size="7" text-anchor="middle" fill="#FFFFFF">-0.7</text>
<circle cx="139.600000" cy="138.000000" r="1"/>
<rect x="180.400000" y="133.000000" width="24.000000" height="24.000000" rx="0" ry="0" style="stroke:none;fill:#cccccc;"/>
<rect x="179.400000" y="132.000000" width="24.000000" height="24.000000" rx="0" ry="0" style="stroke:none;fill:#4B71A1;"/>
<text x="191.400000" y="146.000000" font-family="Arial" font-size="7" text-anchor="middle" fill="#FFFFFF">*</text>
<circle cx="181.400000" cy="134.000000" r="1"/>
<line x1="176.400000" y1="139.000000" x2="179.400000" y2="140.000000"  transform="rotate(0.000000,179.400000,140.000000)" style="stroke: black; stroke-width:0.25;"/>
<line x1="176.400000" y1="141.000000" x2="179.400000" y2="140.000000"  transform="rotate(0.000000,179.400000,140.000000)" style="stroke: black; stroke-width:0.25;"/>
<line x1="176.400000" y1="147.000000" x2="179.400000" y2="148.000000"  transform="rotate(0.000000,179.400000,148.000000)" style="stroke: black; stroke-width:0.25;"/>
<line x1="176.400000" y1="149.000000" x2="179.400000" y2="148.000000"  transform="rotate(0.000000,179.400000,148.000000)" style="stroke: black; stroke-width:0.25;"/>
<rect x="170.500000" y="57.000000" width="24.000000" height="24.000000" rx="0" ry="0" style="stroke:none;fill:#cccccc;"/>
<rect x="169.500000" y="56.000000" width="24.000000" height="24.000000" rx="0" ry="0" style="stroke:none;fill:#f44800;"/>
<text x="181.500000" y="70.000000" font-family="Arial" font-size="7" text-anchor="middle" fill="#FFFFFF">0</text>
<circle cx="191.500000" cy="78.000000" r="1"/>
<rect x="169.600000" y="25.000000" width="25.800000" height="24.000000" rx="0" ry="0" style="stroke:none;fill:#cccccc;"/>
<rect x="168.600000" y="24.000000" width="25.800000" height="24.000000" rx="0" ry="0" style="stroke:none;fill:#f44800;"/>
<text x="181.500000" y="38.000000" font-family="Arial" font-size="7" text-anchor="middle" fill="#FFFFFF">-0.7</text>
<circle cx="192.400000" cy="46.000000" r="1"/>
<rect x="129.600000" y="41.000000" width="24.000000" height="24.000000" rx="0" ry="0" style="stroke:none;fill:#cccccc;"/>
<rect x="128.600000" y="40.000000" width="24.000000" height="24.000000" rx="0" ry="0" style="stroke:none;fill:#4B71A1;"/>
<text x="140.600000" y="54.000000" font-family="Arial" font-size="7" text-anchor="middle" fill="#FFFFFF">-</text>
<circle cx="150.600000" cy="62.000000" r="1"/>
<line x1="155.600000" y1="55.000000" x2="152.600000" y2="56.000000"  transform="rotate(0.000000,152.600000,56.000000)" style="stroke: black; stroke-width:0.25;"/>
<line x1="155.600000" y1="57.000000" x2="152.600000" y2="56.000000"  transform="rotate(0.000000,152.600000,56.000000)" style="stroke: black; stroke-width:0.25;"/>
<line x1="155.600000" y1="47.000000" x2="152.600000" y2="48.000000"  transform="rotate(0.000000,152.600000,48.000000)" style="stroke: black; stroke-width:0.25;"/>
<line x1="155.600000" y1="49.000000" x2="152.600000" y2="48.000000"  transform="rotate(0.000000,152.600000,48.000000)" style="stroke: black; stroke-width:0.25;"/>
<rect x="89.600000" y="45.000000" width="24.000000" height="24.000000" rx="0" ry="0" style="stroke:none;fill:#cccccc;"/>
<rect x="88.600000" y="44.000000" width="24.000000" height="24.000000" rx="0" ry="0" style="stroke:none;fill:#4B71A1;"/>
<text x="100.600000" y="58.000000" font-family="Arial" font-size="7" text-anchor="middle" fill="#FFFFFF">*</text>
<circle cx="110.600000" cy="66.000000" r="1"/>
<line x1="115.600000" y1="59.000000" x2="112.600000" y2="60.000000"  transform="rotate(0.000000,112.600000,60.000000)" style="stroke: black; stroke-width:0.25;"/>
<line x1="115.600000" y1="61.000000" x2="112.600000" y2="60.000000"  transform="rotate(0.000000,112.600000,60.000000)" style="stroke: black; stroke-width:0.25;"/>
<line x1="115.600000" y1="51.000000" x2="112.600000" y2="52.000000"  transform="rotate(0.000000,112.600000,52.000000)" style="stroke: black; stroke-width:0.25;"/>
<line x1="115.600000" y1="53.000000" x2="112.600000" y2="52.000000"  transform="rotate(0.000000,112.600000,52.000000)" style="stroke: black; stroke-width:0.25;"/>
<line x1="237.000000" y1="108.000000" x2="237.000000" y2="104.000000"  style="stroke:black; stroke-linecap:round; stroke-width:0.25;"/>
<line x1="237.000000" y1="104.000000" x2="241.000000" y2="104.000000"  style="stroke:black; stroke-linecap:round; stroke-width:0.25;"/>
<line x1="241.000000" y1="104.000000" x2="241.000000" y2="108.000000"  style="stroke:black; stroke-linecap:round; stroke-width:0.25;"/>
<rect x="268.000000" y="77.000000" width="24.000000" height="24.000000" rx="0" ry="0" style="stroke:none;fill:#cccccc;"/>
<rect x="267.000000" y="76.000000" width="24.000000" height="24.000000" rx="0" ry="0" style="stroke:none;fill:#4B71A1;"/>
<text x="279.000000" y="90.000000" font-family="Arial" font-size="7" text-anchor="middle" fill="#FFFFFF">mem</text>
<circle cx="269.000000" cy="78.000000" r="1"/>
<line x1="264.000000" y1="87.000000" x2="267.000000" y2="88.000000"  transform="rotate(0.000000,267.000000,88.000000)" style="stroke: black; stroke-width:0.25;"/>
<line x1="264.000000" y1="89.000000" x2="267.000000" y2="88.000000"  transform="rotate(0.000000,267.000000,88.000000)" style="stroke: black; stroke-width:0.25;"/>
<rect x="308.000000" y="81.000000" width="24.000000" height="24.000000" rx="0" ry="0" style="stroke:none;fill:#cccccc;"/>
<rect x="307.000000" y="80.000000" width="24.000000" height="24.000000" rx="0" ry="0" style="stroke:none;fill:#4B71A1;"/>
<text x="319.000000" y="94.000000" font-family="Arial" font-size="7" text-anchor="middle" fill="#FFFFFF">+</text>
<circle cx="309.000000" cy="82.000000" r="1"/>
<line x1="304.000000" y1="87.000000" x2="307.000000" y2="88.000000"  transform="rotate(0.000000,307.000000,88.000000)" style="stroke: black; stroke-width:0.25;"/>
<line x1="304.000000" y1="89.000000" x2="307.000000" y2="88.000000"  transform="rotate(0.000000,307.000000,88.000000)" style="stroke: black; stroke-width:0.25;"/>
<line x1="304.000000" y1="95.000000" x2="307.000000" y2="96.000000"  transform="rotate(0.000000,307.000000,96.000000)" style="stroke: black; stroke-width:0.25;"/>
<line x1="304.000000" y1="97.000000" x2="307.000000" y2="96.000000"  transform="rotate(0.000000,307.000000,96.000000)" style="stroke: black; stroke-width:0.25;"/>
<line x1="15.000000" y1="15.000000" x2="15.000000" y2="169.000000"  style="stroke: black; stroke-linecap:round; stroke-width:0.25; stroke-dasharray:3,3;"/>
<line x1="15.000000" y1="169.000000" x2="348.000000" y2="169.000000"  style="stroke: black; stroke-linecap:round; stroke-width:0.25; stroke-dasharray:3,3;"/>
<line x1="348.000000" y1="169.000000" x2="348.000000" y2="15.000000"  style="stroke: black; stroke-linecap:round; stroke-width:0.25; stroke-dasharray:3,3;"/>
<line x1="15.000000" y1="15.000000" x2="20.000000" y2="15.000000"  style="stroke: black; stroke-linecap:round; stroke-width:0.25; stroke-dasharray:3,3;"/>
<line x1="142.550000" y1="15.000000" x2="348.000000" y2="15.000000"  style="stroke: black; stroke-linecap:round; stroke-width:0.25; stroke-dasharray:3,3;"/>
<text x="20.000000" y="17.000000" font-family="Arial" font-size="7">allpass_comb(...00 : / : int)(-0.7f)</text>
<line x1="350.000000" y1="91.000000" x2="353.000000" y2="92.000000"  transform="rotate(0.000000,353.000000,92.000000)" style="stroke: black; stroke-width:0.25;"/>
<line x1="350.000000" y1="93.000000" x2="353.000000" y2="92.000000"  transform="rotate(0.000000,353.000000,92.000000)" style="stroke: black; stroke-width:0.25;"/>
<line x1="10.000000" y1="92.000000" x2="20.000000" y2="92.000000"  style="stroke:black; stroke-linecap:round; stroke-width:0.25;"/>
<line x1="20.000000" y1="92.000000" x2="24.000000" y2="92.000000"  style="stroke:black; stroke-linecap:round; stroke-width:0.25;"/>
<line x1="24.000000" y1="92.000000" x2="28.000000" y2="92.000000"  style="stroke:black; stroke-linecap:round; stroke-width:0.25;"/>
<line x1="28.000000" y1="92.000000" x2="36.000000" y2="92.000000"  style="stroke:black; stroke-linecap:round; stroke-width:0.25;"/>
<line x1="36.000000" y1="92.000000" x2="36.000000" y2="132.000000"  style="stroke:black; stroke-linecap:round; stroke-width:0.25;"/>
<line x1="36.000000" y1="132.000000" x2="36.000000" y2="132.000000"  style="stroke:black; stroke-linecap:round; stroke-width:0.25;"/>
<line x1="36.000000" y1="132.000000" x2="44.000000" y2="132.000000"  style="stroke:black; stroke-linecap:round; stroke-width:0.25;"/>
<line x1="44.000000" y1="56.000000" x2="44.000000" y2="56.000000"  style="stroke:black; stroke-linecap:round; stroke-width:0.25;"/>
<line x1="44.000000" y1="56.000000" x2="44.000000" y2="124.000000"  style="stroke:black; stroke-linecap:round; stroke-width:0.25;"/>
<line x1="44.000000" y1="124.000000" x2="44.000000" y2="124.000000"  style="stroke:black; stroke-linecap:round; stroke-width:0.25;"/>
<line x1="44.000000" y1="124.000000" x2="48.000000" y2="124.000000"  style="stroke:black; stroke-linecap:round; stroke-width:0.25;"/>
<line x1="44.000000" y1="132.000000" x2="48.000000" y2="132.000000"  style="stroke:black; stroke-linecap:round; stroke-width:0.25;"/>
<line x1="72.000000" y1="128.000000" x2="76.000000" y2="128.000000"  style="stroke:black; stroke-linecap:round; stroke-width:0.25;"/>
<line x1="76.000000" y1="128.000000" x2="102.000000" y2="108.000000"  style="stroke:black; stroke-linecap:round; stroke-width:0.25;"/>
<line x1="76.000000" y1="128.000000" x2="102.000000" y2="128.000000"  style="stroke:black; stroke-linecap:round; stroke-width:0.25;"/>
<line x1="84.600000" y1="56.000000" x2="44.000000" y2="56.000000"  style="stroke:black; stroke-linecap:round; stroke-width:0.25;"/>
<line x1="88.600000" y1="56.000000" x2="84.600000" y2="56.000000"  style="stroke:black; stroke-linecap:round; stroke-width:0.25;"/>
<line x1="102.000000" y1="108.000000" x2="106.000000" y2="108.000000"  style="stroke:black; stroke-linecap:round; stroke-width:0.25;"/>
<line x1="102.000000" y1="128.000000" x2="133.600000" y2="128.000000"  style="stroke:black; stroke-linecap:round; stroke-width:0.25;"/>
<line x1="116.600000" y1="52.000000" x2="112.600000" y2="52.000000"  style="stroke:black; stroke-linecap:round; stroke-width:0.25;"/>
<line x1="116.600000" y1="60.000000" x2="112.600000" y2="60.000000"  style="stroke:black; stroke-linecap:round; stroke-width:0.25;"/>
<line x1="116.600000" y1="60.000000" x2="116.600000" y2="60.000000"  style="stroke:black; stroke-linecap:round; stroke-width:0.25;"/>
<line x1="116.600000" y1="88.000000" x2="116.600000" y2="60.000000"  style="stroke:black; stroke-linecap:round; stroke-width:0.25;"/>
<line x1="124.600000" y1="52.000000" x2="116.600000" y2="52.000000"  style="stroke:black; stroke-linecap:round; stroke-width:0.25;"/>
<line x1="124.600000" y1="88.000000" x2="116.600000" y2="88.000000"  style="stroke:black; stroke-linecap:round; stroke-width:0.25;"/>
<line x1="128.600000" y1="52.000000" x2="124.600000" y2="52.000000"  style="stroke:black; stroke-linecap:round; stroke-width:0.25;"/>
<line x1="133.600000" y1="128.000000" x2="150.500000" y2="128.000000"  style="stroke:black; stroke-linecap:round; stroke-width:0.25;"/>
<line x1="150.500000" y1="128.000000" x2="167.400000" y2="128.000000"  style="stroke:black; stroke-linecap:round; stroke-width:0.25;"/>
<line x1="156.600000" y1="48.000000" x2="152.600000" y2="48.000000"  style="stroke:black; stroke-linecap:round; stroke-width:0.25;"/>
<line x1="156.600000" y1="56.000000" x2="152.600000" y2="56.000000"  style="stroke:black; stroke-linecap:round; stroke-width:0.25;"/>
<line x1="156.600000" y1="56.000000" x2="156.600000" y2="56.000000"  style="stroke:black; stroke-linecap:round; stroke-width:0.25;"/>
<line x1="156.600000" y1="68.000000" x2="156.600000" y2="56.000000"  style="stroke:black; stroke-linecap:round; stroke-width:0.25;"/>
<line x1="161.500000" y1="88.000000" x2="124.600000" y2="88.000000"  style="stroke:black; stroke-linecap:round; stroke-width:0.25;"/>
<line x1="163.400000" y1="148.000000" x2="167.400000" y2="148.000000"  style="stroke:black; stroke-linecap:round; stroke-width:0.25;"/>
<line x1="164.600000" y1="36.000000" x2="164.600000" y2="36.000000"  style="stroke:black; stroke-linecap:round; stroke-width:0.25;"/>
<line x1="164.600000" y1="36.000000" x2="164.600000" y2="48.000000"  style="stroke:black; stroke-linecap:round; stroke-width:0.25;"/>
<line x1="164.600000" y1="48.000000" x2="156.600000" y2="48.000000"  style="stroke:black; stroke-linecap:round; stroke-width:0.25;"/>
<line x1="164.600000" y1="68.000000" x2="156.600000" y2="68.000000"  style="stroke:black; stroke-linecap:round; stroke-width:0.25;"/>
<line x1="165.500000" y1="68.000000" x2="164.600000" y2="68.000000"  style="stroke:black; stroke-linecap:round; stroke-width:0.25;"/>
<line x1="167.400000" y1="148.000000" x2="175.400000" y2="148.000000"  style="stroke:black; stroke-linecap:round; stroke-width:0.25;"/>
<line x1="167.400000" y1="128.000000" x2="175.400000" y2="128.000000"  style="stroke:black; stroke-linecap:round; stroke-width:0.25;"/>
<line x1="168.600000" y1="36.000000" x2="164.600000" y2="36.000000"  style="stroke:black; stroke-linecap:round; stroke-width:0.25;"/>
<line x1="169.500000" y1="68.000000" x2="165.500000" y2="68.000000"  style="stroke:black; stroke-linecap:round; stroke-width:0.25;"/>
<line x1="175.400000" y1="140.000000" x2="179.400000" y2="140.000000"  style="stroke:black; stroke-linecap:round; stroke-width:0.25;"/>
<line x1="175.400000" y1="148.000000" x2="179.400000" y2="148.000000"  style="stroke:black; stroke-linecap:round; stroke-width:0.25;"/>
<line x1="175.400000" y1="128.000000" x2="175.400000" y2="140.000000"  style="stroke:black; stroke-linecap:round; stroke-width:0.25;"/>
<line x1="175.400000" y1="140.000000" x2="175.400000" y2="140.000000"  style="stroke:black; stroke-linecap:round; stroke-width:0.25;"/>
<line x1="198.400000" y1="88.000000" x2="161.500000" y2="88.000000"  style="stroke:black; stroke-linecap:round; stroke-width:0.25;"/>
<line x1="203.400000" y1="144.000000" x2="207.400000" y2="144.000000"  style="stroke:black; stroke-linecap:round; stroke-width:0.25;"/>
<line x1="207.400000" y1="144.000000" x2="239.000000" y2="144.000000"  style="stroke:black; stroke-linecap:round; stroke-width:0.25;"/>
<line x1="235.000000" y1="108.000000" x2="239.000000" y2="108.000000"  style="stroke:black; stroke-linecap:round; stroke-width:0.25;"/>
<line x1="239.000000" y1="144.000000" x2="247.000000" y2="144.000000"  style="stroke:black; stroke-linecap:round; stroke-width:0.25;"/>
<line x1="239.000000" y1="88.000000" x2="198.400000" y2="88.000000"  style="stroke:black; stroke-linecap:round; stroke-width:0.25;"/>
<line x1="239.000000" y1="88.000000" x2="239.000000" y2="88.000000"  style="stroke:black; stroke-linecap:round; stroke-width:0.25;"/>
<line x1="239.000000" y1="104.000000" x2="239.000000" y2="88.000000"  style="stroke:black; stroke-linecap:round; stroke-width:0.25;"/>
<line x1="239.000000" y1="108.000000" x2="241.000000" y2="108.000000"  style="stroke:black; stroke-linecap:round; stroke-width:0.25;"/>
<line x1="241.000000" y1="108.000000" x2="247.000000" y2="108.000000"  style="stroke:black; stroke-linecap:round; stroke-width:0.25;"/>
<line x1="247.000000" y1="144.000000" x2="255.000000" y2="144.000000"  style="stroke:black; stroke-linecap:round; stroke-width:0.25;"/>
<line x1="247.000000" y1="88.000000" x2="263.000000" y2="88.000000"  style="stroke:black; stroke-linecap:round; stroke-width:0.25;"/>
<line x1="247.000000" y1="108.000000" x2="247.000000" y2="88.000000"  style="stroke:black; stroke-linecap:round; stroke-width:0.25;"/>
<line x1="247.000000" y1="108.000000" x2="247.000000" y2="108.000000"  style="stroke:black; stroke-linecap:round; stroke-width:0.25;"/>
<line x1="255.000000" y1="108.000000" x2="263.000000" y2="108.000000"  style="stroke:black; stroke-linecap:round; stroke-width:0.25;"/>
<line x1="255.000000" y1="144.000000" x2="255.000000" y2="108.000000"  style="stroke:black; stroke-linecap:round; stroke-width:0.25;"/>
<line x1="263.000000" y1="88.000000" x2="267.000000" y2="88.000000"  style="stroke:black; stroke-linecap:round; stroke-width:0.25;"/>
<line x1="263.000000" y1="108.000000" x2="279.000000" y2="108.000000"  style="stroke:black; stroke-linecap:round; stroke-width:0.25;"/>
<line x1="279.000000" y1="108.000000" x2="295.000000" y2="108.000000"  style="stroke:black; stroke-linecap:round; stroke-width:0.25;"/>
<line x1="291.000000" y1="88.000000" x2="295.000000" y2="88.000000"  style="stroke:black; stroke-linecap:round; stroke-width:0.25;"/>
<line x1="295.000000" y1="88.000000" x2="303.000000" y2="88.000000"  style="stroke:black; stroke-linecap:round; stroke-width:0.25;"/>
<line x1="295.000000" y1="96.000000" x2="303.000000" y2="96.000000"  style="stroke:black; stroke-linecap:round; stroke-width:0.25;"/>
<line x1="295.000000" y1="108.000000" x2="295.000000" y2="96.000000"  style="stroke:black; stroke-linecap:round; stroke-width:0.25;"/>
<line x1="295.000000" y1="108.000000" x2="295.000000" y2="108.000000"  style="stroke:black; stroke-linecap:round; stroke-width:0.25;"/>
<line x1="303.000000" y1="88.000000" x2="307.000000" y2="88.000000"  style="stroke:black; stroke-linecap:round; stroke-width:0.25;"/>
<line x1="303.000000" y1="96.000000" x2="307.000000" y2="96.000000"  style="stroke:black; stroke-linecap:round; stroke-width:0.25;"/>
<line x1="331.000000" y1="92.000000" x2="335.000000" y2="92.000000"  style="stroke:black; stroke-linecap:round; stroke-width:0.25;"/>
<line x1="335.000000" y1="92.000000" x2="335.000000" y2="92.000000"  style="stroke:black; stroke-linecap:round; stroke-width:0.25;"/>
<line x1="335.000000" y1="92.000000" x2="339.000000" y2="92.000000"  style="stroke:black; stroke-linecap:round; stroke-width:0.25;"/>
<line x1="339.000000" y1="92.000000" x2="343.000000" y2="92.000000"  style="stroke:black; stroke-linecap:round; stroke-width:0.25;"/>
<line x1="343.000000" y1="92.000000" x2="353.000000" y2="92.000000"  style="stroke:black; stroke-linecap:round; stroke-width:0.25;"/>
</svg>
