<?xml version="1.0"?>
<svg xmlns="http://www.w3.org/2000/svg" xmlns:xlink="http://www.w3.org/1999/xlink" viewBox="0 0 278.400000 72.000000" width="139.200000mm" height="36.000000mm" version="1.1">
<a xlink:href="compressor-0x7f974405bdc0.svg">
<rect x="1.000000" y="1.000000" width="277.400000" height="71.000000" rx="0" ry="0" style="stroke:none;fill:#cccccc;"/>
<rect x="0.000000" y="0.000000" width="277.400000" height="71.000000" rx="0" ry="0" style="stroke:none;fill:#ffffff;"/>
</a>
<text x="10.000000" y="7.000000" font-family="Arial" font-size="7"></text>
<a xlink:href="amp-0x7f97440577b0.svg">
<rect x="33.000000" y="25.000000" width="77.400000" height="24.000000" rx="0" ry="0" style="stroke:none;fill:#cccccc;"/>
<rect x="32.000000" y="24.000000" width="77.400000" height="24.000000" rx="0" ry="0" style="stroke:none;fill:#003366;"/>
</a>
<a xlink:href="amp-0x7f97440577b0.svg">
<text x="70.700000" y="38.000000" font-family="Arial" font-size="7" text-anchor="middle" fill="#FFFFFF">amp_follower(20)</text>
</a>
<circle cx="34.000000" cy="26.000000" r="1"/>
<line x1="29.000000" y1="35.000000" x2="32.000000" y2="36.000000"  transform="rotate(0.000000,32.000000,36.000000)" style="stroke: black; stroke-width:0.25;"/>
<line x1="29.000000" y1="37.000000" x2="32.000000" y2="36.000000"  transform="rotate(0.000000,32.000000,36.000000)" style="stroke: black; stroke-width:0.25;"/>
<a xlink:href="smooth-0x7f974257b0c0.svg">
<rect x="118.400000" y="25.000000" width="129.000000" height="24.000000" rx="0" ry="0" style="stroke:none;fill:#cccccc;"/>
<rect x="117.400000" y="24.000000" width="129.000000" height="24.000000" rx="0" ry="0" style="stroke:none;fill:#003366;"/>
</a>
<a xlink:href="smooth-0x7f974257b0c0.svg">
<text x="181.900000" y="38.000000" font-family="Arial" font-size="7" text-anchor="middle" fill="#FFFFFF">smooth(-1.0f,...*) : / : exp)</text>
</a>
<circle cx="119.400000" cy="26.000000" r="1"/>
<line x1="114.400000" y1="35.000000" x2="117.400000" y2="36.000000"  transform="rotate(0.000000,117.400000,36.000000)" style="stroke: black; stroke-width:0.25;"/>
<line x1="114.400000" y1="37.000000" x2="117.400000" y2="36.000000"  transform="rotate(0.000000,117.400000,36.000000)" style="stroke: black; stroke-width:0.25;"/>
<line x1="15.000000" y1="15.000000" x2="15.000000" y2="57.000000"  style="stroke: black; stroke-linecap:round; stroke-width:0.25; stroke-dasharray:3,3;"/>
<line x1="15.000000" y1="57.000000" x2="263.400000" y2="57.000000"  style="stroke: black; stroke-linecap:round; stroke-width:0.25; stroke-dasharray:3,3;"/>
<line x1="263.400000" y1="57.000000" x2="263.400000" y2="15.000000"  style="stroke: black; stroke-linecap:round; stroke-width:0.25; stroke-dasharray:3,3;"/>
<line x1="15.000000" y1="15.000000" x2="20.000000" y2="15.000000"  style="stroke: black; stroke-linecap:round; stroke-width:0.25; stroke-dasharray:3,3;"/>
<line x1="100.625000" y1="15.000000" x2="263.400000" y2="15.000000"  style="stroke: black; stroke-linecap:round; stroke-width:0.25; stroke-dasharray:3,3;"/>
<text x="20.000000" y="17.000000" font-family="Arial" font-size="7">amp_follower_ud(20)(20)</text>
<line x1="265.400000" y1="35.000000" x2="268.400000" y2="36.000000"  transform="rotate(0.000000,268.400000,36.000000)" style="stroke: black; stroke-width:0.25;"/>
<line x1="265.400000" y1="37.000000" x2="268.400000" y2="36.000000"  transform="rotate(0.000000,268.400000,36.000000)" style="stroke: black; stroke-width:0.25;"/>
<line x1="10.000000" y1="36.000000" x2="20.000000" y2="36.000000"  style="stroke:black; stroke-linecap:round; stroke-width:0.25;"/>
<line x1="20.000000" y1="36.000000" x2="24.000000" y2="36.000000"  style="stroke:black; stroke-linecap:round; stroke-width:0.25;"/>
<line x1="24.000000" y1="36.000000" x2="28.000000" y2="36.000000"  style="stroke:black; stroke-linecap:round; stroke-width:0.25;"/>
<line x1="28.000000" y1="36.000000" x2="28.000000" y2="36.000000"  style="stroke:black; stroke-linecap:round; stroke-width:0.25;"/>
<line x1="28.000000" y1="36.000000" x2="32.000000" y2="36.000000"  style="stroke:black; stroke-linecap:round; stroke-width:0.25;"/>
<line x1="109.400000" y1="36.000000" x2="113.400000" y2="36.000000"  style="stroke:black; stroke-linecap:round; stroke-width:0.25;"/>
<line x1="113.400000" y1="36.000000" x2="113.400000" y2="36.000000"  style="stroke:black; stroke-linecap:round; stroke-width:0.25;"/>
<line x1="113.400000" y1="36.000000" x2="117.400000" y2="36.000000"  style="stroke:black; stroke-linecap:round; stroke-width:0.25;"/>
<line x1="246.400000" y1="36.000000" x2="250.400000" y2="36.000000"  style="stroke:black; stroke-linecap:round; stroke-width:0.25;"/>
<line x1="250.400000" y1="36.000000" x2="250.400000" y2="36.000000"  style="stroke:black; stroke-linecap:round; stroke-width:0.25;"/>
<line x1="250.400000" y1="36.000000" x2="254.400000" y2="36.000000"  style="stroke:black; stroke-linecap:round; stroke-width:0.25;"/>
<line x1="254.400000" y1="36.000000" x2="258.400000" y2="36.000000"  style="stroke:black; stroke-linecap:round; stroke-width:0.25;"/>
<line x1="258.400000" y1="36.000000" x2="268.400000" y2="36.000000"  style="stroke:black; stroke-linecap:round; stroke-width:0.25;"/>
</svg>
