<?xml version="1.0"?>
<svg xmlns="http://www.w3.org/2000/svg" xmlns:xlink="http://www.w3.org/1999/xlink" viewBox="0 0 714.300000 132.000000" width="357.150000mm" height="66.000000mm" version="1.1">
<a xlink:href="process.svg">
<rect x="1.000000" y="1.000000" width="713.300000" height="131.000000" rx="0" ry="0" style="stroke:none;fill:#cccccc;"/>
<rect x="0.000000" y="0.000000" width="713.300000" height="131.000000" rx="0" ry="0" style="stroke:none;fill:#ffffff;"/>
</a>
<text x="10.000000" y="7.000000" font-family="Arial" font-size="7"></text>
<a xlink:href="amp-0x7fd475128840.svg">
<rect x="66.000000" y="43.000000" width="103.200000" height="24.000000" rx="0" ry="0" style="stroke:none;fill:#cccccc;"/>
<rect x="65.000000" y="42.000000" width="103.200000" height="24.000000" rx="0" ry="0" style="stroke:none;fill:#003366;"/>
</a>
<a xlink:href="amp-0x7fd475128840.svg">
<text x="116.600000" y="56.000000" font-family="Arial" font-size="7" text-anchor="middle" fill="#FFFFFF">amp_follower_ud(20)(20)</text>
</a>
<circle cx="67.000000" cy="44.000000" r="1"/>
<line x1="62.000000" y1="53.000000" x2="65.000000" y2="54.000000"  transform="rotate(0.000000,65.000000,54.000000)" style="stroke: black; stroke-width:0.25;"/>
<line x1="62.000000" y1="55.000000" x2="65.000000" y2="54.000000"  transform="rotate(0.000000,65.000000,54.000000)" style="stroke: black; stroke-width:0.25;"/>
<a xlink:href="linear2db-0x7fd475129480.svg">
<rect x="177.200000" y="43.000000" width="38.700000" height="24.000000" rx="0" ry="0" style="stroke:none;fill:#cccccc;"/>
<rect x="176.200000" y="42.000000" width="38.700000" height="24.000000" rx="0" ry="0" style="stroke:none;fill:#003366;"/>
</a>
<a xlink:href="linear2db-0x7fd475129480.svg">
<text x="195.550000" y="56.000000" font-family="Arial" font-size="7" text-anchor="middle" fill="#FFFFFF">linear2db</text>
</a>
<circle cx="178.200000" cy="44.000000" r="1"/>
<line x1="173.200000" y1="53.000000" x2="176.200000" y2="54.000000"  transform="rotate(0.000000,176.200000,54.000000)" style="stroke: black; stroke-width:0.25;"/>
<line x1="173.200000" y1="55.000000" x2="176.200000" y2="54.000000"  transform="rotate(0.000000,176.200000,54.000000)" style="stroke: black; stroke-width:0.25;"/>
<a xlink:href="outminusindb-0x7fd47512b460.svg">
<rect x="223.900000" y="43.000000" width="51.600000" height="24.000000" rx="0" ry="0" style="stroke:none;fill:#cccccc;"/>
<rect x="222.900000" y="42.000000" width="51.600000" height="24.000000" rx="0" ry="0" style="stroke:none;fill:#003366;"/>
</a>
<a xlink:href="outminusindb-0x7fd47512b460.svg">
<text x="248.700000" y="56.000000" font-family="Arial" font-size="7" text-anchor="middle" fill="#FFFFFF">outminusindb</text>
</a>
<circle cx="224.900000" cy="44.000000" r="1"/>
<line x1="219.900000" y1="53.000000" x2="222.900000" y2="54.000000"  transform="rotate(0.000000,222.900000,54.000000)" style="stroke: black; stroke-width:0.25;"/>
<line x1="219.900000" y1="55.000000" x2="222.900000" y2="54.000000"  transform="rotate(0.000000,222.900000,54.000000)" style="stroke: black; stroke-width:0.25;"/>
<a xlink:href="kneesmooth-0x7fd4734b9520.svg">
<rect x="283.500000" y="43.000000" width="51.600000" height="24.000000" rx="0" ry="0" style="stroke:none;fill:#cccccc;"/>
<rect x="282.500000" y="42.000000" width="51.600000" height="24.000000" rx="0" ry="0" style="stroke:none;fill:#003366;"/>
</a>
<a xlink:href="kneesmooth-0x7fd4734b9520.svg">
<text x="308.300000" y="56.000000" font-family="Arial" font-size="7" text-anchor="middle" fill="#FFFFFF">kneesmooth</text>
</a>
<circle cx="284.500000" cy="44.000000" r="1"/>
<line x1="279.500000" y1="53.000000" x2="282.500000" y2="54.000000"  transform="rotate(0.000000,282.500000,54.000000)" style="stroke: black; stroke-width:0.25;"/>
<line x1="279.500000" y1="55.000000" x2="282.500000" y2="54.000000"  transform="rotate(0.000000,282.500000,54.000000)" style="stroke: black; stroke-width:0.25;"/>
<rect x="353.100000" y="43.000000" width="193.500000" height="24.000000" rx="0" ry="0" style="stroke:none;fill:#cccccc;"/>
<rect x="352.100000" y="42.000000" width="193.500000" height="24.000000" rx="0" ry="0" style="stroke:none;fill:#477881;"/>
<text x="448.850000" y="56.000000" font-family="Arial" font-size="7" text-anchor="middle" fill="#FFFFFF">hbargraph(Compressor Level, -5e+01f, 1e+01f)</text>
<circle cx="354.100000" cy="44.000000" r="1"/>
<line x1="349.100000" y1="53.000000" x2="352.100000" y2="54.000000"  transform="rotate(0.000000,352.100000,54.000000)" style="stroke: black; stroke-width:0.25;"/>
<line x1="349.100000" y1="55.000000" x2="352.100000" y2="54.000000"  transform="rotate(0.000000,352.100000,54.000000)" style="stroke: black; stroke-width:0.25;"/>
<line x1="343.100000" y1="33.000000" x2="343.100000" y2="75.000000"  style="stroke: black; stroke-linecap:round; stroke-width:0.25; stroke-dasharray:3,3;"/>
<line x1="343.100000" y1="75.000000" x2="554.600000" y2="75.000000"  style="stroke: black; stroke-linecap:round; stroke-width:0.25; stroke-dasharray:3,3;"/>
<line x1="554.600000" y1="75.000000" x2="554.600000" y2="33.000000"  style="stroke: black; stroke-linecap:round; stroke-width:0.25; stroke-dasharray:3,3;"/>
<line x1="343.100000" y1="33.000000" x2="348.100000" y2="33.000000"  style="stroke: black; stroke-linecap:round; stroke-width:0.25; stroke-dasharray:3,3;"/>
<line x1="386.800000" y1="33.000000" x2="554.600000" y2="33.000000"  style="stroke: black; stroke-linecap:round; stroke-width:0.25; stroke-dasharray:3,3;"/>
<text x="348.100000" y="35.000000" font-family="Arial" font-size="7">visualizer</text>
<a xlink:href="db2linear-0x7fd47512c5a0.svg">
<rect x="564.600000" y="43.000000" width="38.700000" height="24.000000" rx="0" ry="0" style="stroke:none;fill:#cccccc;"/>
<rect x="563.600000" y="42.000000" width="38.700000" height="24.000000" rx="0" ry="0" style="stroke:none;fill:#003366;"/>
</a>
<a xlink:href="db2linear-0x7fd47512c5a0.svg">
<text x="582.950000" y="56.000000" font-family="Arial" font-size="7" text-anchor="middle" fill="#FFFFFF">db2linear</text>
</a>
<circle cx="565.600000" cy="44.000000" r="1"/>
<line x1="560.600000" y1="53.000000" x2="563.600000" y2="54.000000"  transform="rotate(0.000000,563.600000,54.000000)" style="stroke: black; stroke-width:0.25;"/>
<line x1="560.600000" y1="55.000000" x2="563.600000" y2="54.000000"  transform="rotate(0.000000,563.600000,54.000000)" style="stroke: black; stroke-width:0.25;"/>
<rect x="619.300000" y="39.000000" width="24.000000" height="24.000000" rx="0" ry="0" style="stroke:none;fill:#cccccc;"/>
<rect x="618.300000" y="38.000000" width="24.000000" height="24.000000" rx="0" ry="0" style="stroke:none;fill:#4B71A1;"/>
<text x="630.300000" y="52.000000" font-family="Arial" font-size="7" text-anchor="middle" fill="#FFFFFF">*</text>
<circle cx="620.300000" cy="40.000000" r="1"/>
<line x1="615.300000" y1="45.000000" x2="618.300000" y2="46.000000"  transform="rotate(0.000000,618.300000,46.000000)" style="stroke: black; stroke-width:0.25;"/>
<line x1="615.300000" y1="47.000000" x2="618.300000" y2="46.000000"  transform="rotate(0.000000,618.300000,46.000000)" style="stroke: black; stroke-width:0.25;"/>
<line x1="615.300000" y1="53.000000" x2="618.300000" y2="54.000000"  transform="rotate(0.000000,618.300000,54.000000)" style="stroke: black; stroke-width:0.25;"/>
<line x1="615.300000" y1="55.000000" x2="618.300000" y2="54.000000"  transform="rotate(0.000000,618.300000,54.000000)" style="stroke: black; stroke-width:0.25;"/>
<a xlink:href="gain-0x7fd47512ca80.svg">
<rect x="341.750000" y="85.000000" width="25.800000" height="24.000000" rx="0" ry="0" style="stroke:none;fill:#cccccc;"/>
<rect x="340.750000" y="84.000000" width="25.800000" height="24.000000" rx="0" ry="0" style="stroke:none;fill:#003366;"/>
</a>
<a xlink:href="gain-0x7fd47512ca80.svg">
<text x="353.650000" y="98.000000" font-family="Arial" font-size="7" text-anchor="middle" fill="#FFFFFF">gain</text>
</a>
<circle cx="342.750000" cy="86.000000" r="1"/>
<rect x="659.300000" y="55.000000" width="24.000000" height="24.000000" rx="0" ry="0" style="stroke:none;fill:#cccccc;"/>
<rect x="658.300000" y="54.000000" width="24.000000" height="24.000000" rx="0" ry="0" style="stroke:none;fill:#4B71A1;"/>
<text x="670.300000" y="68.000000" font-family="Arial" font-size="7" text-anchor="middle" fill="#FFFFFF">*</text>
<circle cx="660.300000" cy="56.000000" r="1"/>
<line x1="655.300000" y1="61.000000" x2="658.300000" y2="62.000000"  transform="rotate(0.000000,658.300000,62.000000)" style="stroke: black; stroke-width:0.25;"/>
<line x1="655.300000" y1="63.000000" x2="658.300000" y2="62.000000"  transform="rotate(0.000000,658.300000,62.000000)" style="stroke: black; stroke-width:0.25;"/>
<line x1="655.300000" y1="69.000000" x2="658.300000" y2="70.000000"  transform="rotate(0.000000,658.300000,70.000000)" style="stroke: black; stroke-width:0.25;"/>
<line x1="655.300000" y1="71.000000" x2="658.300000" y2="70.000000"  transform="rotate(0.000000,658.300000,70.000000)" style="stroke: black; stroke-width:0.25;"/>
<line x1="15.000000" y1="15.000000" x2="15.000000" y2="117.000000"  style="stroke: black; stroke-linecap:round; stroke-width:0.25; stroke-dasharray:3,3;"/>
<line x1="15.000000" y1="117.000000" x2="699.300000" y2="117.000000"  style="stroke: black; stroke-linecap:round; stroke-width:0.25; stroke-dasharray:3,3;"/>
<line x1="699.300000" y1="117.000000" x2="699.300000" y2="15.000000"  style="stroke: black; stroke-linecap:round; stroke-width:0.25; stroke-dasharray:3,3;"/>
<line x1="15.000000" y1="15.000000" x2="20.000000" y2="15.000000"  style="stroke: black; stroke-linecap:round; stroke-width:0.25; stroke-dasharray:3,3;"/>
<line x1="58.700000" y1="15.000000" x2="699.300000" y2="15.000000"  style="stroke: black; stroke-linecap:round; stroke-width:0.25; stroke-dasharray:3,3;"/>
<text x="20.000000" y="17.000000" font-family="Arial" font-size="7">compressor</text>
<line x1="701.300000" y1="65.000000" x2="704.300000" y2="66.000000"  transform="rotate(0.000000,704.300000,66.000000)" style="stroke: black; stroke-width:0.25;"/>
<line x1="701.300000" y1="67.000000" x2="704.300000" y2="66.000000"  transform="rotate(0.000000,704.300000,66.000000)" style="stroke: black; stroke-width:0.25;"/>
<line x1="10.000000" y1="66.000000" x2="20.000000" y2="66.000000"  style="stroke:black; stroke-linecap:round; stroke-width:0.25;"/>
<line x1="20.000000" y1="66.000000" x2="24.000000" y2="66.000000"  style="stroke:black; stroke-linecap:round; stroke-width:0.25;"/>
<line x1="24.000000" y1="66.000000" x2="28.000000" y2="66.000000"  style="stroke:black; stroke-linecap:round; stroke-width:0.25;"/>
<line x1="28.000000" y1="66.000000" x2="28.000000" y2="66.000000"  style="stroke:black; stroke-linecap:round; stroke-width:0.25;"/>
<line x1="28.000000" y1="66.000000" x2="32.000000" y2="66.000000"  style="stroke:black; stroke-linecap:round; stroke-width:0.25;"/>
<line x1="32.000000" y1="66.000000" x2="36.000000" y2="66.000000"  style="stroke:black; stroke-linecap:round; stroke-width:0.25;"/>
<line x1="36.000000" y1="66.000000" x2="61.000000" y2="24.000000"  style="stroke:black; stroke-linecap:round; stroke-width:0.25;"/>
<line x1="36.000000" y1="66.000000" x2="61.000000" y2="54.000000"  style="stroke:black; stroke-linecap:round; stroke-width:0.25;"/>
<line x1="61.000000" y1="24.000000" x2="333.650000" y2="24.000000"  style="stroke:black; stroke-linecap:round; stroke-width:0.25;"/>
<line x1="61.000000" y1="54.000000" x2="65.000000" y2="54.000000"  style="stroke:black; stroke-linecap:round; stroke-width:0.25;"/>
<line x1="168.200000" y1="54.000000" x2="172.200000" y2="54.000000"  style="stroke:black; stroke-linecap:round; stroke-width:0.25;"/>
<line x1="172.200000" y1="54.000000" x2="172.200000" y2="54.000000"  style="stroke:black; stroke-linecap:round; stroke-width:0.25;"/>
<line x1="172.200000" y1="54.000000" x2="176.200000" y2="54.000000"  style="stroke:black; stroke-linecap:round; stroke-width:0.25;"/>
<line x1="214.900000" y1="54.000000" x2="218.900000" y2="54.000000"  style="stroke:black; stroke-linecap:round; stroke-width:0.25;"/>
<line x1="218.900000" y1="54.000000" x2="218.900000" y2="54.000000"  style="stroke:black; stroke-linecap:round; stroke-width:0.25;"/>
<line x1="218.900000" y1="54.000000" x2="222.900000" y2="54.000000"  style="stroke:black; stroke-linecap:round; stroke-width:0.25;"/>
<line x1="274.500000" y1="54.000000" x2="278.500000" y2="54.000000"  style="stroke:black; stroke-linecap:round; stroke-width:0.25;"/>
<line x1="278.500000" y1="54.000000" x2="278.500000" y2="54.000000"  style="stroke:black; stroke-linecap:round; stroke-width:0.25;"/>
<line x1="278.500000" y1="54.000000" x2="282.500000" y2="54.000000"  style="stroke:black; stroke-linecap:round; stroke-width:0.25;"/>
<line x1="333.650000" y1="24.000000" x2="606.300000" y2="24.000000"  style="stroke:black; stroke-linecap:round; stroke-width:0.25;"/>
<line x1="334.100000" y1="54.000000" x2="338.100000" y2="54.000000"  style="stroke:black; stroke-linecap:round; stroke-width:0.25;"/>
<line x1="338.100000" y1="54.000000" x2="338.100000" y2="54.000000"  style="stroke:black; stroke-linecap:round; stroke-width:0.25;"/>
<line x1="338.100000" y1="54.000000" x2="348.100000" y2="54.000000"  style="stroke:black; stroke-linecap:round; stroke-width:0.25;"/>
<line x1="348.100000" y1="54.000000" x2="352.100000" y2="54.000000"  style="stroke:black; stroke-linecap:round; stroke-width:0.25;"/>
<line x1="366.550000" y1="96.000000" x2="370.550000" y2="96.000000"  style="stroke:black; stroke-linecap:round; stroke-width:0.25;"/>
<line x1="370.550000" y1="96.000000" x2="646.300000" y2="96.000000"  style="stroke:black; stroke-linecap:round; stroke-width:0.25;"/>
<line x1="545.600000" y1="54.000000" x2="549.600000" y2="54.000000"  style="stroke:black; stroke-linecap:round; stroke-width:0.25;"/>
<line x1="549.600000" y1="54.000000" x2="559.600000" y2="54.000000"  style="stroke:black; stroke-linecap:round; stroke-width:0.25;"/>
<line x1="559.600000" y1="54.000000" x2="559.600000" y2="54.000000"  style="stroke:black; stroke-linecap:round; stroke-width:0.25;"/>
<line x1="559.600000" y1="54.000000" x2="563.600000" y2="54.000000"  style="stroke:black; stroke-linecap:round; stroke-width:0.25;"/>
<line x1="602.300000" y1="54.000000" x2="606.300000" y2="54.000000"  style="stroke:black; stroke-linecap:round; stroke-width:0.25;"/>
<line x1="606.300000" y1="24.000000" x2="614.300000" y2="24.000000"  style="stroke:black; stroke-linecap:round; stroke-width:0.25;"/>
<line x1="606.300000" y1="54.000000" x2="614.300000" y2="54.000000"  style="stroke:black; stroke-linecap:round; stroke-width:0.25;"/>
<line x1="614.300000" y1="24.000000" x2="614.300000" y2="46.000000"  style="stroke:black; stroke-linecap:round; stroke-width:0.25;"/>
<line x1="614.300000" y1="46.000000" x2="614.300000" y2="46.000000"  style="stroke:black; stroke-linecap:round; stroke-width:0.25;"/>
<line x1="614.300000" y1="46.000000" x2="618.300000" y2="46.000000"  style="stroke:black; stroke-linecap:round; stroke-width:0.25;"/>
<line x1="614.300000" y1="54.000000" x2="618.300000" y2="54.000000"  style="stroke:black; stroke-linecap:round; stroke-width:0.25;"/>
<line x1="642.300000" y1="50.000000" x2="646.300000" y2="50.000000"  style="stroke:black; stroke-linecap:round; stroke-width:0.25;"/>
<line x1="646.300000" y1="50.000000" x2="654.300000" y2="50.000000"  style="stroke:black; stroke-linecap:round; stroke-width:0.25;"/>
<line x1="646.300000" y1="70.000000" x2="654.300000" y2="70.000000"  style="stroke:black; stroke-linecap:round; stroke-width:0.25;"/>
<line x1="646.300000" y1="96.000000" x2="646.300000" y2="70.000000"  style="stroke:black; stroke-linecap:round; stroke-width:0.25;"/>
<line x1="646.300000" y1="96.000000" x2="646.300000" y2="96.000000"  style="stroke:black; stroke-linecap:round; stroke-width:0.25;"/>
<line x1="654.300000" y1="50.000000" x2="654.300000" y2="62.000000"  style="stroke:black; stroke-linecap:round; stroke-width:0.25;"/>
<line x1="654.300000" y1="62.000000" x2="654.300000" y2="62.000000"  style="stroke:black; stroke-linecap:round; stroke-width:0.25;"/>
<line x1="654.300000" y1="62.000000" x2="658.300000" y2="62.000000"  style="stroke:black; stroke-linecap:round; stroke-width:0.25;"/>
<line x1="654.300000" y1="70.000000" x2="658.300000" y2="70.000000"  style="stroke:black; stroke-linecap:round; stroke-width:0.25;"/>
<line x1="682.300000" y1="66.000000" x2="686.300000" y2="66.000000"  style="stroke:black; stroke-linecap:round; stroke-width:0.25;"/>
<line x1="686.300000" y1="66.000000" x2="686.300000" y2="66.000000"  style="stroke:black; stroke-linecap:round; stroke-width:0.25;"/>
<line x1="686.300000" y1="66.000000" x2="690.300000" y2="66.000000"  style="stroke:black; stroke-linecap:round; stroke-width:0.25;"/>
<line x1="690.300000" y1="66.000000" x2="694.300000" y2="66.000000"  style="stroke:black; stroke-linecap:round; stroke-width:0.25;"/>
<line x1="694.300000" y1="66.000000" x2="704.300000" y2="66.000000"  style="stroke:black; stroke-linecap:round; stroke-width:0.25;"/>
</svg>
