<?xml version="1.0"?>
<svg xmlns="http://www.w3.org/2000/svg" xmlns:xlink="http://www.w3.org/1999/xlink" viewBox="0 0 421.500000 188.000000" width="210.750000mm" height="94.000000mm" version="1.1">
<a xlink:href="filter-0x7fed62570bd0.svg">
<rect x="1.000000" y="1.000000" width="420.500000" height="187.000000" rx="0" ry="0" style="stroke:none;fill:#cccccc;"/>
<rect x="0.000000" y="0.000000" width="420.500000" height="187.000000" rx="0" ry="0" style="stroke:none;fill:#ffffff;"/>
</a>
<text x="10.000000" y="7.000000" font-family="Arial" font-size="7"></text>
<rect x="33.000000" y="83.000000" width="24.000000" height="24.000000" rx="0" ry="0" style="stroke:none;fill:#cccccc;"/>
<rect x="32.000000" y="82.000000" width="24.000000" height="24.000000" rx="0" ry="0" style="stroke:none;fill:#47945E;"/>
<text x="44.000000" y="96.000000" font-family="Arial" font-size="7" text-anchor="middle" fill="#FFFFFF">x</text>
<circle cx="34.000000" cy="84.000000" r="1"/>
<line x1="29.000000" y1="93.000000" x2="32.000000" y2="94.000000"  transform="rotate(0.000000,32.000000,94.000000)" style="stroke: black; stroke-width:0.25;"/>
<line x1="29.000000" y1="95.000000" x2="32.000000" y2="94.000000"  transform="rotate(0.000000,32.000000,94.000000)" style="stroke: black; stroke-width:0.25;"/>
<rect x="195.750000" y="25.000000" width="24.000000" height="24.000000" rx="0" ry="0" style="stroke:none;fill:#cccccc;"/>
<rect x="194.750000" y="24.000000" width="24.000000" height="24.000000" rx="0" ry="0" style="stroke:none;fill:#47945E;"/>
<text x="206.750000" y="38.000000" font-family="Arial" font-size="7" text-anchor="middle" fill="#FFFFFF">x</text>
<circle cx="196.750000" cy="26.000000" r="1"/>
<rect x="75.000000" y="67.000000" width="193.500000" height="24.000000" rx="0" ry="0" style="stroke:none;fill:#cccccc;"/>
<rect x="74.000000" y="66.000000" width="193.500000" height="24.000000" rx="0" ry="0" style="stroke:none;fill:#477881;"/>
<text x="170.750000" y="80.000000" font-family="Arial" font-size="7" text-anchor="middle" fill="#FFFFFF">hslider(delLength, 1.0f, 1.0f, 2e+03f, 1.0f)</text>
<circle cx="76.000000" cy="68.000000" r="1"/>
<line x1="65.000000" y1="57.000000" x2="65.000000" y2="99.000000"  style="stroke: black; stroke-linecap:round; stroke-width:0.25; stroke-dasharray:3,3;"/>
<line x1="65.000000" y1="99.000000" x2="276.500000" y2="99.000000"  style="stroke: black; stroke-linecap:round; stroke-width:0.25; stroke-dasharray:3,3;"/>
<line x1="276.500000" y1="99.000000" x2="276.500000" y2="57.000000"  style="stroke: black; stroke-linecap:round; stroke-width:0.25; stroke-dasharray:3,3;"/>
<line x1="65.000000" y1="57.000000" x2="70.000000" y2="57.000000"  style="stroke: black; stroke-linecap:round; stroke-width:0.25; stroke-dasharray:3,3;"/>
<line x1="105.475000" y1="57.000000" x2="276.500000" y2="57.000000"  style="stroke: black; stroke-linecap:round; stroke-width:0.25; stroke-dasharray:3,3;"/>
<text x="70.000000" y="59.000000" font-family="Arial" font-size="7">delLength</text>
<rect x="286.500000" y="67.000000" width="24.000000" height="24.000000" rx="0" ry="0" style="stroke:none;fill:#cccccc;"/>
<rect x="285.500000" y="66.000000" width="24.000000" height="24.000000" rx="0" ry="0" style="stroke:none;fill:#4B71A1;"/>
<text x="297.500000" y="80.000000" font-family="Arial" font-size="7" text-anchor="middle" fill="#FFFFFF">int</text>
<circle cx="287.500000" cy="68.000000" r="1"/>
<line x1="282.500000" y1="77.000000" x2="285.500000" y2="78.000000"  transform="rotate(0.000000,285.500000,78.000000)" style="stroke: black; stroke-width:0.25;"/>
<line x1="282.500000" y1="79.000000" x2="285.500000" y2="78.000000"  transform="rotate(0.000000,285.500000,78.000000)" style="stroke: black; stroke-width:0.25;"/>
<rect x="154.850000" y="109.000000" width="25.800000" height="24.000000" rx="0" ry="0" style="stroke:none;fill:#cccccc;"/>
<rect x="153.850000" y="108.000000" width="25.800000" height="24.000000" rx="0" ry="0" style="stroke:none;fill:#f44800;"/>
<text x="166.750000" y="122.000000" font-family="Arial" font-size="7" text-anchor="middle" fill="#FFFFFF">2048</text>
<circle cx="155.850000" cy="110.000000" r="1"/>
<rect x="155.750000" y="141.000000" width="24.000000" height="24.000000" rx="0" ry="0" style="stroke:none;fill:#cccccc;"/>
<rect x="154.750000" y="140.000000" width="24.000000" height="24.000000" rx="0" ry="0" style="stroke:none;fill:#f44800;"/>
<text x="166.750000" y="154.000000" font-family="Arial" font-size="7" text-anchor="middle" fill="#FFFFFF">1</text>
<circle cx="156.750000" cy="142.000000" r="1"/>
<rect x="196.650000" y="125.000000" width="24.000000" height="24.000000" rx="0" ry="0" style="stroke:none;fill:#cccccc;"/>
<rect x="195.650000" y="124.000000" width="24.000000" height="24.000000" rx="0" ry="0" style="stroke:none;fill:#4B71A1;"/>
<text x="207.650000" y="138.000000" font-family="Arial" font-size="7" text-anchor="middle" fill="#FFFFFF">-</text>
<circle cx="197.650000" cy="126.000000" r="1"/>
<line x1="192.650000" y1="131.000000" x2="195.650000" y2="132.000000"  transform="rotate(0.000000,195.650000,132.000000)" style="stroke: black; stroke-width:0.25;"/>
<line x1="192.650000" y1="133.000000" x2="195.650000" y2="132.000000"  transform="rotate(0.000000,195.650000,132.000000)" style="stroke: black; stroke-width:0.25;"/>
<line x1="192.650000" y1="139.000000" x2="195.650000" y2="140.000000"  transform="rotate(0.000000,195.650000,140.000000)" style="stroke: black; stroke-width:0.25;"/>
<line x1="192.650000" y1="141.000000" x2="195.650000" y2="140.000000"  transform="rotate(0.000000,195.650000,140.000000)" style="stroke: black; stroke-width:0.25;"/>
<rect x="326.500000" y="99.000000" width="24.000000" height="24.000000" rx="0" ry="0" style="stroke:none;fill:#cccccc;"/>
<rect x="325.500000" y="98.000000" width="24.000000" height="24.000000" rx="0" ry="0" style="stroke:none;fill:#4B71A1;"/>
<text x="337.500000" y="112.000000" font-family="Arial" font-size="7" text-anchor="middle" fill="#FFFFFF">&amp;</text>
<circle cx="327.500000" cy="100.000000" r="1"/>
<line x1="322.500000" y1="105.000000" x2="325.500000" y2="106.000000"  transform="rotate(0.000000,325.500000,106.000000)" style="stroke: black; stroke-width:0.25;"/>
<line x1="322.500000" y1="107.000000" x2="325.500000" y2="106.000000"  transform="rotate(0.000000,325.500000,106.000000)" style="stroke: black; stroke-width:0.25;"/>
<line x1="322.500000" y1="113.000000" x2="325.500000" y2="114.000000"  transform="rotate(0.000000,325.500000,114.000000)" style="stroke: black; stroke-width:0.25;"/>
<line x1="322.500000" y1="115.000000" x2="325.500000" y2="114.000000"  transform="rotate(0.000000,325.500000,114.000000)" style="stroke: black; stroke-width:0.25;"/>
<rect x="366.500000" y="83.000000" width="24.000000" height="24.000000" rx="0" ry="0" style="stroke:none;fill:#cccccc;"/>
<rect x="365.500000" y="82.000000" width="24.000000" height="24.000000" rx="0" ry="0" style="stroke:none;fill:#4B71A1;"/>
<text x="377.500000" y="96.000000" font-family="Arial" font-size="7" text-anchor="middle" fill="#FFFFFF">@</text>
<circle cx="367.500000" cy="84.000000" r="1"/>
<line x1="362.500000" y1="89.000000" x2="365.500000" y2="90.000000"  transform="rotate(0.000000,365.500000,90.000000)" style="stroke: black; stroke-width:0.25;"/>
<line x1="362.500000" y1="91.000000" x2="365.500000" y2="90.000000"  transform="rotate(0.000000,365.500000,90.000000)" style="stroke: black; stroke-width:0.25;"/>
<line x1="362.500000" y1="97.000000" x2="365.500000" y2="98.000000"  transform="rotate(0.000000,365.500000,98.000000)" style="stroke: black; stroke-width:0.25;"/>
<line x1="362.500000" y1="99.000000" x2="365.500000" y2="98.000000"  transform="rotate(0.000000,365.500000,98.000000)" style="stroke: black; stroke-width:0.25;"/>
<line x1="15.000000" y1="15.000000" x2="15.000000" y2="173.000000"  style="stroke: black; stroke-linecap:round; stroke-width:0.25; stroke-dasharray:3,3;"/>
<line x1="15.000000" y1="173.000000" x2="406.500000" y2="173.000000"  style="stroke: black; stroke-linecap:round; stroke-width:0.25; stroke-dasharray:3,3;"/>
<line x1="406.500000" y1="173.000000" x2="406.500000" y2="15.000000"  style="stroke: black; stroke-linecap:round; stroke-width:0.25; stroke-dasharray:3,3;"/>
<line x1="15.000000" y1="15.000000" x2="20.000000" y2="15.000000"  style="stroke: black; stroke-linecap:round; stroke-width:0.25; stroke-dasharray:3,3;"/>
<line x1="119.975000" y1="15.000000" x2="406.500000" y2="15.000000"  style="stroke: black; stroke-linecap:round; stroke-width:0.25; stroke-dasharray:3,3;"/>
<text x="20.000000" y="17.000000" font-family="Arial" font-size="7">delay(2048)(h...e+03f, 1.0f))</text>
<line x1="408.500000" y1="93.000000" x2="411.500000" y2="94.000000"  transform="rotate(0.000000,411.500000,94.000000)" style="stroke: black; stroke-width:0.25;"/>
<line x1="408.500000" y1="95.000000" x2="411.500000" y2="94.000000"  transform="rotate(0.000000,411.500000,94.000000)" style="stroke: black; stroke-width:0.25;"/>
<line x1="10.000000" y1="94.000000" x2="20.000000" y2="94.000000"  style="stroke:black; stroke-linecap:round; stroke-width:0.25;"/>
<line x1="20.000000" y1="94.000000" x2="24.000000" y2="94.000000"  style="stroke:black; stroke-linecap:round; stroke-width:0.25;"/>
<line x1="24.000000" y1="94.000000" x2="28.000000" y2="94.000000"  style="stroke:black; stroke-linecap:round; stroke-width:0.25;"/>
<line x1="28.000000" y1="94.000000" x2="28.000000" y2="94.000000"  style="stroke:black; stroke-linecap:round; stroke-width:0.25;"/>
<line x1="28.000000" y1="94.000000" x2="32.000000" y2="94.000000"  style="stroke:black; stroke-linecap:round; stroke-width:0.25;"/>
<line x1="178.750000" y1="152.000000" x2="182.750000" y2="152.000000"  style="stroke:black; stroke-linecap:round; stroke-width:0.25;"/>
<line x1="179.650000" y1="120.000000" x2="183.650000" y2="120.000000"  style="stroke:black; stroke-linecap:round; stroke-width:0.25;"/>
<line x1="182.750000" y1="152.000000" x2="183.650000" y2="152.000000"  style="stroke:black; stroke-linecap:round; stroke-width:0.25;"/>
<line x1="183.650000" y1="120.000000" x2="191.650000" y2="120.000000"  style="stroke:black; stroke-linecap:round; stroke-width:0.25;"/>
<line x1="183.650000" y1="140.000000" x2="191.650000" y2="140.000000"  style="stroke:black; stroke-linecap:round; stroke-width:0.25;"/>
<line x1="183.650000" y1="152.000000" x2="183.650000" y2="140.000000"  style="stroke:black; stroke-linecap:round; stroke-width:0.25;"/>
<line x1="183.650000" y1="152.000000" x2="183.650000" y2="152.000000"  style="stroke:black; stroke-linecap:round; stroke-width:0.25;"/>
<line x1="191.650000" y1="120.000000" x2="191.650000" y2="132.000000"  style="stroke:black; stroke-linecap:round; stroke-width:0.25;"/>
<line x1="191.650000" y1="132.000000" x2="191.650000" y2="132.000000"  style="stroke:black; stroke-linecap:round; stroke-width:0.25;"/>
<line x1="191.650000" y1="132.000000" x2="195.650000" y2="132.000000"  style="stroke:black; stroke-linecap:round; stroke-width:0.25;"/>
<line x1="191.650000" y1="140.000000" x2="195.650000" y2="140.000000"  style="stroke:black; stroke-linecap:round; stroke-width:0.25;"/>
<line x1="218.750000" y1="36.000000" x2="222.750000" y2="36.000000"  style="stroke:black; stroke-linecap:round; stroke-width:0.25;"/>
<line x1="219.650000" y1="136.000000" x2="223.650000" y2="136.000000"  style="stroke:black; stroke-linecap:round; stroke-width:0.25;"/>
<line x1="222.750000" y1="36.000000" x2="353.500000" y2="36.000000"  style="stroke:black; stroke-linecap:round; stroke-width:0.25;"/>
<line x1="223.650000" y1="136.000000" x2="313.500000" y2="136.000000"  style="stroke:black; stroke-linecap:round; stroke-width:0.25;"/>
<line x1="267.500000" y1="78.000000" x2="271.500000" y2="78.000000"  style="stroke:black; stroke-linecap:round; stroke-width:0.25;"/>
<line x1="271.500000" y1="78.000000" x2="281.500000" y2="78.000000"  style="stroke:black; stroke-linecap:round; stroke-width:0.25;"/>
<line x1="281.500000" y1="78.000000" x2="281.500000" y2="78.000000"  style="stroke:black; stroke-linecap:round; stroke-width:0.25;"/>
<line x1="281.500000" y1="78.000000" x2="285.500000" y2="78.000000"  style="stroke:black; stroke-linecap:round; stroke-width:0.25;"/>
<line x1="309.500000" y1="78.000000" x2="313.500000" y2="78.000000"  style="stroke:black; stroke-linecap:round; stroke-width:0.25;"/>
<line x1="313.500000" y1="78.000000" x2="321.500000" y2="78.000000"  style="stroke:black; stroke-linecap:round; stroke-width:0.25;"/>
<line x1="313.500000" y1="114.000000" x2="321.500000" y2="114.000000"  style="stroke:black; stroke-linecap:round; stroke-width:0.25;"/>
<line x1="313.500000" y1="136.000000" x2="313.500000" y2="114.000000"  style="stroke:black; stroke-linecap:round; stroke-width:0.25;"/>
<line x1="313.500000" y1="136.000000" x2="313.500000" y2="136.000000"  style="stroke:black; stroke-linecap:round; stroke-width:0.25;"/>
<line x1="321.500000" y1="78.000000" x2="321.500000" y2="106.000000"  style="stroke:black; stroke-linecap:round; stroke-width:0.25;"/>
<line x1="321.500000" y1="106.000000" x2="321.500000" y2="106.000000"  style="stroke:black; stroke-linecap:round; stroke-width:0.25;"/>
<line x1="321.500000" y1="106.000000" x2="325.500000" y2="106.000000"  style="stroke:black; stroke-linecap:round; stroke-width:0.25;"/>
<line x1="321.500000" y1="114.000000" x2="325.500000" y2="114.000000"  style="stroke:black; stroke-linecap:round; stroke-width:0.25;"/>
<line x1="349.500000" y1="110.000000" x2="353.500000" y2="110.000000"  style="stroke:black; stroke-linecap:round; stroke-width:0.25;"/>
<line x1="353.500000" y1="36.000000" x2="361.500000" y2="36.000000"  style="stroke:black; stroke-linecap:round; stroke-width:0.25;"/>
<line x1="353.500000" y1="98.000000" x2="361.500000" y2="98.000000"  style="stroke:black; stroke-linecap:round; stroke-width:0.25;"/>
<line x1="353.500000" y1="110.000000" x2="353.500000" y2="98.000000"  style="stroke:black; stroke-linecap:round; stroke-width:0.25;"/>
<line x1="353.500000" y1="110.000000" x2="353.500000" y2="110.000000"  style="stroke:black; stroke-linecap:round; stroke-width:0.25;"/>
<line x1="361.500000" y1="36.000000" x2="361.500000" y2="90.000000"  style="stroke:black; stroke-linecap:round; stroke-width:0.25;"/>
<line x1="361.500000" y1="90.000000" x2="361.500000" y2="90.000000"  style="stroke:black; stroke-linecap:round; stroke-width:0.25;"/>
<line x1="361.500000" y1="90.000000" x2="365.500000" y2="90.000000"  style="stroke:black; stroke-linecap:round; stroke-width:0.25;"/>
<line x1="361.500000" y1="98.000000" x2="365.500000" y2="98.000000"  style="stroke:black; stroke-linecap:round; stroke-width:0.25;"/>
<line x1="389.500000" y1="94.000000" x2="393.500000" y2="94.000000"  style="stroke:black; stroke-linecap:round; stroke-width:0.25;"/>
<line x1="393.500000" y1="94.000000" x2="393.500000" y2="94.000000"  style="stroke:black; stroke-linecap:round; stroke-width:0.25;"/>
<line x1="393.500000" y1="94.000000" x2="397.500000" y2="94.000000"  style="stroke:black; stroke-linecap:round; stroke-width:0.25;"/>
<line x1="397.500000" y1="94.000000" x2="401.500000" y2="94.000000"  style="stroke:black; stroke-linecap:round; stroke-width:0.25;"/>
<line x1="401.500000" y1="94.000000" x2="411.500000" y2="94.000000"  style="stroke:black; stroke-linecap:round; stroke-width:0.25;"/>
</svg>
