<?xml version="1.0"?>
<svg xmlns="http://www.w3.org/2000/svg" xmlns:xlink="http://www.w3.org/1999/xlink" viewBox="0 0 272.500000 168.000000" width="136.250000mm" height="84.000000mm" version="1.1">
<a xlink:href="lpcf-0x7f9742586240.svg">
<rect x="1.000000" y="1.000000" width="271.500000" height="167.000000" rx="0" ry="0" style="stroke:none;fill:#cccccc;"/>
<rect x="0.000000" y="0.000000" width="271.500000" height="167.000000" rx="0" ry="0" style="stroke:none;fill:#ffffff;"/>
</a>
<text x="10.000000" y="7.000000" font-family="Arial" font-size="7"></text>
<rect x="33.000000" y="73.000000" width="24.000000" height="24.000000" rx="0" ry="0" style="stroke:none;fill:#cccccc;"/>
<rect x="32.000000" y="72.000000" width="24.000000" height="24.000000" rx="0" ry="0" style="stroke:none;fill:#47945E;"/>
<text x="44.000000" y="86.000000" font-family="Arial" font-size="7" text-anchor="middle" fill="#FFFFFF">x</text>
<circle cx="34.000000" cy="74.000000" r="1"/>
<line x1="29.000000" y1="83.000000" x2="32.000000" y2="84.000000"  transform="rotate(0.000000,32.000000,84.000000)" style="stroke: black; stroke-width:0.25;"/>
<line x1="29.000000" y1="85.000000" x2="32.000000" y2="84.000000"  transform="rotate(0.000000,32.000000,84.000000)" style="stroke: black; stroke-width:0.25;"/>
<rect x="121.250000" y="25.000000" width="24.000000" height="24.000000" rx="0" ry="0" style="stroke:none;fill:#cccccc;"/>
<rect x="120.250000" y="24.000000" width="24.000000" height="24.000000" rx="0" ry="0" style="stroke:none;fill:#47945E;"/>
<text x="132.250000" y="38.000000" font-family="Arial" font-size="7" text-anchor="middle" fill="#FFFFFF">x</text>
<circle cx="122.250000" cy="26.000000" r="1"/>
<a xlink:href="combtuningL-0x7f9742543790.svg">
<rect x="65.000000" y="57.000000" width="64.500000" height="24.000000" rx="0" ry="0" style="stroke:none;fill:#cccccc;"/>
<rect x="64.000000" y="56.000000" width="64.500000" height="24.000000" rx="0" ry="0" style="stroke:none;fill:#003366;"/>
</a>
<a xlink:href="combtuningL-0x7f9742543790.svg">
<text x="96.250000" y="70.000000" font-family="Arial" font-size="7" text-anchor="middle" fill="#FFFFFF">combtuningL(0)</text>
</a>
<circle cx="66.000000" cy="58.000000" r="1"/>
<rect x="137.500000" y="57.000000" width="24.000000" height="24.000000" rx="0" ry="0" style="stroke:none;fill:#cccccc;"/>
<rect x="136.500000" y="56.000000" width="24.000000" height="24.000000" rx="0" ry="0" style="stroke:none;fill:#4B71A1;"/>
<text x="148.500000" y="70.000000" font-family="Arial" font-size="7" text-anchor="middle" fill="#FFFFFF">int</text>
<circle cx="138.500000" cy="58.000000" r="1"/>
<line x1="133.500000" y1="67.000000" x2="136.500000" y2="68.000000"  transform="rotate(0.000000,136.500000,68.000000)" style="stroke: black; stroke-width:0.25;"/>
<line x1="133.500000" y1="69.000000" x2="136.500000" y2="68.000000"  transform="rotate(0.000000,136.500000,68.000000)" style="stroke: black; stroke-width:0.25;"/>
<rect x="80.350000" y="89.000000" width="25.800000" height="24.000000" rx="0" ry="0" style="stroke:none;fill:#cccccc;"/>
<rect x="79.350000" y="88.000000" width="25.800000" height="24.000000" rx="0" ry="0" style="stroke:none;fill:#f44800;"/>
<text x="92.250000" y="102.000000" font-family="Arial" font-size="7" text-anchor="middle" fill="#FFFFFF">2048</text>
<circle cx="81.350000" cy="90.000000" r="1"/>
<rect x="81.250000" y="121.000000" width="24.000000" height="24.000000" rx="0" ry="0" style="stroke:none;fill:#cccccc;"/>
<rect x="80.250000" y="120.000000" width="24.000000" height="24.000000" rx="0" ry="0" style="stroke:none;fill:#f44800;"/>
<text x="92.250000" y="134.000000" font-family="Arial" font-size="7" text-anchor="middle" fill="#FFFFFF">1</text>
<circle cx="82.250000" cy="122.000000" r="1"/>
<rect x="122.150000" y="105.000000" width="24.000000" height="24.000000" rx="0" ry="0" style="stroke:none;fill:#cccccc;"/>
<rect x="121.150000" y="104.000000" width="24.000000" height="24.000000" rx="0" ry="0" style="stroke:none;fill:#4B71A1;"/>
<text x="133.150000" y="118.000000" font-family="Arial" font-size="7" text-anchor="middle" fill="#FFFFFF">-</text>
<circle cx="123.150000" cy="106.000000" r="1"/>
<line x1="118.150000" y1="111.000000" x2="121.150000" y2="112.000000"  transform="rotate(0.000000,121.150000,112.000000)" style="stroke: black; stroke-width:0.25;"/>
<line x1="118.150000" y1="113.000000" x2="121.150000" y2="112.000000"  transform="rotate(0.000000,121.150000,112.000000)" style="stroke: black; stroke-width:0.25;"/>
<line x1="118.150000" y1="119.000000" x2="121.150000" y2="120.000000"  transform="rotate(0.000000,121.150000,120.000000)" style="stroke: black; stroke-width:0.25;"/>
<line x1="118.150000" y1="121.000000" x2="121.150000" y2="120.000000"  transform="rotate(0.000000,121.150000,120.000000)" style="stroke: black; stroke-width:0.25;"/>
<rect x="177.500000" y="89.000000" width="24.000000" height="24.000000" rx="0" ry="0" style="stroke:none;fill:#cccccc;"/>
<rect x="176.500000" y="88.000000" width="24.000000" height="24.000000" rx="0" ry="0" style="stroke:none;fill:#4B71A1;"/>
<text x="188.500000" y="102.000000" font-family="Arial" font-size="7" text-anchor="middle" fill="#FFFFFF">&amp;</text>
<circle cx="178.500000" cy="90.000000" r="1"/>
<line x1="173.500000" y1="95.000000" x2="176.500000" y2="96.000000"  transform="rotate(0.000000,176.500000,96.000000)" style="stroke: black; stroke-width:0.25;"/>
<line x1="173.500000" y1="97.000000" x2="176.500000" y2="96.000000"  transform="rotate(0.000000,176.500000,96.000000)" style="stroke: black; stroke-width:0.25;"/>
<line x1="173.500000" y1="103.000000" x2="176.500000" y2="104.000000"  transform="rotate(0.000000,176.500000,104.000000)" style="stroke: black; stroke-width:0.25;"/>
<line x1="173.500000" y1="105.000000" x2="176.500000" y2="104.000000"  transform="rotate(0.000000,176.500000,104.000000)" style="stroke: black; stroke-width:0.25;"/>
<rect x="217.500000" y="73.000000" width="24.000000" height="24.000000" rx="0" ry="0" style="stroke:none;fill:#cccccc;"/>
<rect x="216.500000" y="72.000000" width="24.000000" height="24.000000" rx="0" ry="0" style="stroke:none;fill:#4B71A1;"/>
<text x="228.500000" y="86.000000" font-family="Arial" font-size="7" text-anchor="middle" fill="#FFFFFF">@</text>
<circle cx="218.500000" cy="74.000000" r="1"/>
<line x1="213.500000" y1="79.000000" x2="216.500000" y2="80.000000"  transform="rotate(0.000000,216.500000,80.000000)" style="stroke: black; stroke-width:0.25;"/>
<line x1="213.500000" y1="81.000000" x2="216.500000" y2="80.000000"  transform="rotate(0.000000,216.500000,80.000000)" style="stroke: black; stroke-width:0.25;"/>
<line x1="213.500000" y1="87.000000" x2="216.500000" y2="88.000000"  transform="rotate(0.000000,216.500000,88.000000)" style="stroke: black; stroke-width:0.25;"/>
<line x1="213.500000" y1="89.000000" x2="216.500000" y2="88.000000"  transform="rotate(0.000000,216.500000,88.000000)" style="stroke: black; stroke-width:0.25;"/>
<line x1="15.000000" y1="15.000000" x2="15.000000" y2="153.000000"  style="stroke: black; stroke-linecap:round; stroke-width:0.25; stroke-dasharray:3,3;"/>
<line x1="15.000000" y1="153.000000" x2="257.500000" y2="153.000000"  style="stroke: black; stroke-linecap:round; stroke-width:0.25; stroke-dasharray:3,3;"/>
<line x1="257.500000" y1="153.000000" x2="257.500000" y2="15.000000"  style="stroke: black; stroke-linecap:round; stroke-width:0.25; stroke-dasharray:3,3;"/>
<line x1="15.000000" y1="15.000000" x2="20.000000" y2="15.000000"  style="stroke: black; stroke-linecap:round; stroke-width:0.25; stroke-dasharray:3,3;"/>
<line x1="119.975000" y1="15.000000" x2="257.500000" y2="15.000000"  style="stroke: black; stroke-linecap:round; stroke-width:0.25; stroke-dasharray:3,3;"/>
<text x="20.000000" y="17.000000" font-family="Arial" font-size="7">delay(2048)((...: _,0.5f : +)</text>
<line x1="259.500000" y1="83.000000" x2="262.500000" y2="84.000000"  transform="rotate(0.000000,262.500000,84.000000)" style="stroke: black; stroke-width:0.25;"/>
<line x1="259.500000" y1="85.000000" x2="262.500000" y2="84.000000"  transform="rotate(0.000000,262.500000,84.000000)" style="stroke: black; stroke-width:0.25;"/>
<line x1="10.000000" y1="84.000000" x2="20.000000" y2="84.000000"  style="stroke:black; stroke-linecap:round; stroke-width:0.25;"/>
<line x1="20.000000" y1="84.000000" x2="24.000000" y2="84.000000"  style="stroke:black; stroke-linecap:round; stroke-width:0.25;"/>
<line x1="24.000000" y1="84.000000" x2="28.000000" y2="84.000000"  style="stroke:black; stroke-linecap:round; stroke-width:0.25;"/>
<line x1="28.000000" y1="84.000000" x2="28.000000" y2="84.000000"  style="stroke:black; stroke-linecap:round; stroke-width:0.25;"/>
<line x1="28.000000" y1="84.000000" x2="32.000000" y2="84.000000"  style="stroke:black; stroke-linecap:round; stroke-width:0.25;"/>
<line x1="104.250000" y1="132.000000" x2="108.250000" y2="132.000000"  style="stroke:black; stroke-linecap:round; stroke-width:0.25;"/>
<line x1="105.150000" y1="100.000000" x2="109.150000" y2="100.000000"  style="stroke:black; stroke-linecap:round; stroke-width:0.25;"/>
<line x1="108.250000" y1="132.000000" x2="109.150000" y2="132.000000"  style="stroke:black; stroke-linecap:round; stroke-width:0.25;"/>
<line x1="109.150000" y1="100.000000" x2="117.150000" y2="100.000000"  style="stroke:black; stroke-linecap:round; stroke-width:0.25;"/>
<line x1="109.150000" y1="120.000000" x2="117.150000" y2="120.000000"  style="stroke:black; stroke-linecap:round; stroke-width:0.25;"/>
<line x1="109.150000" y1="132.000000" x2="109.150000" y2="120.000000"  style="stroke:black; stroke-linecap:round; stroke-width:0.25;"/>
<line x1="109.150000" y1="132.000000" x2="109.150000" y2="132.000000"  style="stroke:black; stroke-linecap:round; stroke-width:0.25;"/>
<line x1="117.150000" y1="100.000000" x2="117.150000" y2="112.000000"  style="stroke:black; stroke-linecap:round; stroke-width:0.25;"/>
<line x1="117.150000" y1="112.000000" x2="117.150000" y2="112.000000"  style="stroke:black; stroke-linecap:round; stroke-width:0.25;"/>
<line x1="117.150000" y1="112.000000" x2="121.150000" y2="112.000000"  style="stroke:black; stroke-linecap:round; stroke-width:0.25;"/>
<line x1="117.150000" y1="120.000000" x2="121.150000" y2="120.000000"  style="stroke:black; stroke-linecap:round; stroke-width:0.25;"/>
<line x1="128.500000" y1="68.000000" x2="132.500000" y2="68.000000"  style="stroke:black; stroke-linecap:round; stroke-width:0.25;"/>
<line x1="132.500000" y1="68.000000" x2="132.500000" y2="68.000000"  style="stroke:black; stroke-linecap:round; stroke-width:0.25;"/>
<line x1="132.500000" y1="68.000000" x2="136.500000" y2="68.000000"  style="stroke:black; stroke-linecap:round; stroke-width:0.25;"/>
<line x1="144.250000" y1="36.000000" x2="148.250000" y2="36.000000"  style="stroke:black; stroke-linecap:round; stroke-width:0.25;"/>
<line x1="145.150000" y1="116.000000" x2="149.150000" y2="116.000000"  style="stroke:black; stroke-linecap:round; stroke-width:0.25;"/>
<line x1="148.250000" y1="36.000000" x2="204.500000" y2="36.000000"  style="stroke:black; stroke-linecap:round; stroke-width:0.25;"/>
<line x1="149.150000" y1="116.000000" x2="164.500000" y2="116.000000"  style="stroke:black; stroke-linecap:round; stroke-width:0.25;"/>
<line x1="160.500000" y1="68.000000" x2="164.500000" y2="68.000000"  style="stroke:black; stroke-linecap:round; stroke-width:0.25;"/>
<line x1="164.500000" y1="104.000000" x2="172.500000" y2="104.000000"  style="stroke:black; stroke-linecap:round; stroke-width:0.25;"/>
<line x1="164.500000" y1="116.000000" x2="164.500000" y2="104.000000"  style="stroke:black; stroke-linecap:round; stroke-width:0.25;"/>
<line x1="164.500000" y1="116.000000" x2="164.500000" y2="116.000000"  style="stroke:black; stroke-linecap:round; stroke-width:0.25;"/>
<line x1="164.500000" y1="68.000000" x2="172.500000" y2="68.000000"  style="stroke:black; stroke-linecap:round; stroke-width:0.25;"/>
<line x1="172.500000" y1="68.000000" x2="172.500000" y2="96.000000"  style="stroke:black; stroke-linecap:round; stroke-width:0.25;"/>
<line x1="172.500000" y1="96.000000" x2="172.500000" y2="96.000000"  style="stroke:black; stroke-linecap:round; stroke-width:0.25;"/>
<line x1="172.500000" y1="96.000000" x2="176.500000" y2="96.000000"  style="stroke:black; stroke-linecap:round; stroke-width:0.25;"/>
<line x1="172.500000" y1="104.000000" x2="176.500000" y2="104.000000"  style="stroke:black; stroke-linecap:round; stroke-width:0.25;"/>
<line x1="200.500000" y1="100.000000" x2="204.500000" y2="100.000000"  style="stroke:black; stroke-linecap:round; stroke-width:0.25;"/>
<line x1="204.500000" y1="36.000000" x2="212.500000" y2="36.000000"  style="stroke:black; stroke-linecap:round; stroke-width:0.25;"/>
<line x1="204.500000" y1="88.000000" x2="212.500000" y2="88.000000"  style="stroke:black; stroke-linecap:round; stroke-width:0.25;"/>
<line x1="204.500000" y1="100.000000" x2="204.500000" y2="88.000000"  style="stroke:black; stroke-linecap:round; stroke-width:0.25;"/>
<line x1="204.500000" y1="100.000000" x2="204.500000" y2="100.000000"  style="stroke:black; stroke-linecap:round; stroke-width:0.25;"/>
<line x1="212.500000" y1="36.000000" x2="212.500000" y2="80.000000"  style="stroke:black; stroke-linecap:round; stroke-width:0.25;"/>
<line x1="212.500000" y1="80.000000" x2="212.500000" y2="80.000000"  style="stroke:black; stroke-linecap:round; stroke-width:0.25;"/>
<line x1="212.500000" y1="80.000000" x2="216.500000" y2="80.000000"  style="stroke:black; stroke-linecap:round; stroke-width:0.25;"/>
<line x1="212.500000" y1="88.000000" x2="216.500000" y2="88.000000"  style="stroke:black; stroke-linecap:round; stroke-width:0.25;"/>
<line x1="240.500000" y1="84.000000" x2="244.500000" y2="84.000000"  style="stroke:black; stroke-linecap:round; stroke-width:0.25;"/>
<line x1="244.500000" y1="84.000000" x2="244.500000" y2="84.000000"  style="stroke:black; stroke-linecap:round; stroke-width:0.25;"/>
<line x1="244.500000" y1="84.000000" x2="248.500000" y2="84.000000"  style="stroke:black; stroke-linecap:round; stroke-width:0.25;"/>
<line x1="248.500000" y1="84.000000" x2="252.500000" y2="84.000000"  style="stroke:black; stroke-linecap:round; stroke-width:0.25;"/>
<line x1="252.500000" y1="84.000000" x2="262.500000" y2="84.000000"  style="stroke:black; stroke-linecap:round; stroke-width:0.25;"/>
</svg>
