<?xml version="1.0"?>
<svg xmlns="http://www.w3.org/2000/svg" xmlns:xlink="http://www.w3.org/1999/xlink" viewBox="0 0 241.800000 80.000000" width="120.900000mm" height="40.000000mm" version="1.1">
<a xlink:href="dmo-0x7fe2ec833e90.svg">
<rect x="1.000000" y="1.000000" width="240.800000" height="79.000000" rx="0" ry="0" style="stroke:none;fill:#cccccc;"/>
<rect x="0.000000" y="0.000000" width="240.800000" height="79.000000" rx="0" ry="0" style="stroke:none;fill:#ffffff;"/>
</a>
<text x="10.000000" y="7.000000" font-family="Arial" font-size="7"></text>
<rect x="25.000000" y="29.000000" width="24.000000" height="24.000000" rx="0" ry="0" style="stroke:none;fill:#cccccc;"/>
<rect x="24.000000" y="28.000000" width="24.000000" height="24.000000" rx="0" ry="0" style="stroke:none;fill:#f44800;"/>
<text x="36.000000" y="42.000000" font-family="Arial" font-size="7" text-anchor="middle" fill="#FFFFFF">500</text>
<circle cx="26.000000" cy="30.000000" r="1"/>
<rect x="65.000000" y="33.000000" width="25.800000" height="24.000000" rx="0" ry="0" style="stroke:none;fill:#cccccc;"/>
<rect x="64.000000" y="32.000000" width="25.800000" height="24.000000" rx="0" ry="0" style="stroke:none;fill:#f44800;"/>
<text x="76.900000" y="46.000000" font-family="Arial" font-size="7" text-anchor="middle" fill="#FFFFFF">0.001</text>
<circle cx="66.000000" cy="34.000000" r="1"/>
<rect x="106.800000" y="29.000000" width="24.000000" height="24.000000" rx="0" ry="0" style="stroke:none;fill:#cccccc;"/>
<rect x="105.800000" y="28.000000" width="24.000000" height="24.000000" rx="0" ry="0" style="stroke:none;fill:#4B71A1;"/>
<text x="117.800000" y="42.000000" font-family="Arial" font-size="7" text-anchor="middle" fill="#FFFFFF">*</text>
<circle cx="107.800000" cy="30.000000" r="1"/>
<line x1="102.800000" y1="35.000000" x2="105.800000" y2="36.000000"  transform="rotate(0.000000,105.800000,36.000000)" style="stroke: black; stroke-width:0.25;"/>
<line x1="102.800000" y1="37.000000" x2="105.800000" y2="36.000000"  transform="rotate(0.000000,105.800000,36.000000)" style="stroke: black; stroke-width:0.25;"/>
<line x1="102.800000" y1="43.000000" x2="105.800000" y2="44.000000"  transform="rotate(0.000000,105.800000,44.000000)" style="stroke: black; stroke-width:0.25;"/>
<line x1="102.800000" y1="45.000000" x2="105.800000" y2="44.000000"  transform="rotate(0.000000,105.800000,44.000000)" style="stroke: black; stroke-width:0.25;"/>
<a xlink:href="SR-0x7fe2eb590770.svg">
<rect x="146.800000" y="33.000000" width="24.000000" height="24.000000" rx="0" ry="0" style="stroke:none;fill:#cccccc;"/>
<rect x="145.800000" y="32.000000" width="24.000000" height="24.000000" rx="0" ry="0" style="stroke:none;fill:#003366;"/>
</a>
<a xlink:href="SR-0x7fe2eb590770.svg">
<text x="157.800000" y="46.000000" font-family="Arial" font-size="7" text-anchor="middle" fill="#FFFFFF">SR</text>
</a>
<circle cx="147.800000" cy="34.000000" r="1"/>
<rect x="186.800000" y="29.000000" width="24.000000" height="24.000000" rx="0" ry="0" style="stroke:none;fill:#cccccc;"/>
<rect x="185.800000" y="28.000000" width="24.000000" height="24.000000" rx="0" ry="0" style="stroke:none;fill:#4B71A1;"/>
<text x="197.800000" y="42.000000" font-family="Arial" font-size="7" text-anchor="middle" fill="#FFFFFF">*</text>
<circle cx="187.800000" cy="30.000000" r="1"/>
<line x1="182.800000" y1="35.000000" x2="185.800000" y2="36.000000"  transform="rotate(0.000000,185.800000,36.000000)" style="stroke: black; stroke-width:0.25;"/>
<line x1="182.800000" y1="37.000000" x2="185.800000" y2="36.000000"  transform="rotate(0.000000,185.800000,36.000000)" style="stroke: black; stroke-width:0.25;"/>
<line x1="182.800000" y1="43.000000" x2="185.800000" y2="44.000000"  transform="rotate(0.000000,185.800000,44.000000)" style="stroke: black; stroke-width:0.25;"/>
<line x1="182.800000" y1="45.000000" x2="185.800000" y2="44.000000"  transform="rotate(0.000000,185.800000,44.000000)" style="stroke: black; stroke-width:0.25;"/>
<line x1="15.000000" y1="15.000000" x2="15.000000" y2="65.000000"  style="stroke: black; stroke-linecap:round; stroke-width:0.25; stroke-dasharray:3,3;"/>
<line x1="15.000000" y1="65.000000" x2="226.800000" y2="65.000000"  style="stroke: black; stroke-linecap:round; stroke-width:0.25; stroke-dasharray:3,3;"/>
<line x1="226.800000" y1="65.000000" x2="226.800000" y2="15.000000"  style="stroke: black; stroke-linecap:round; stroke-width:0.25; stroke-dasharray:3,3;"/>
<line x1="15.000000" y1="15.000000" x2="20.000000" y2="15.000000"  style="stroke: black; stroke-linecap:round; stroke-width:0.25; stroke-dasharray:3,3;"/>
<line x1="55.475000" y1="15.000000" x2="226.800000" y2="15.000000"  style="stroke: black; stroke-linecap:round; stroke-width:0.25; stroke-dasharray:3,3;"/>
<text x="20.000000" y="17.000000" font-family="Arial" font-size="7">delLength</text>
<line x1="228.800000" y1="39.000000" x2="231.800000" y2="40.000000"  transform="rotate(0.000000,231.800000,40.000000)" style="stroke: black; stroke-width:0.25;"/>
<line x1="228.800000" y1="41.000000" x2="231.800000" y2="40.000000"  transform="rotate(0.000000,231.800000,40.000000)" style="stroke: black; stroke-width:0.25;"/>
<line x1="48.000000" y1="40.000000" x2="52.000000" y2="40.000000"  style="stroke:black; stroke-linecap:round; stroke-width:0.25;"/>
<line x1="52.000000" y1="24.000000" x2="60.000000" y2="24.000000"  style="stroke:black; stroke-linecap:round; stroke-width:0.25;"/>
<line x1="52.000000" y1="40.000000" x2="52.000000" y2="24.000000"  style="stroke:black; stroke-linecap:round; stroke-width:0.25;"/>
<line x1="52.000000" y1="40.000000" x2="52.000000" y2="40.000000"  style="stroke:black; stroke-linecap:round; stroke-width:0.25;"/>
<line x1="60.000000" y1="24.000000" x2="76.900000" y2="24.000000"  style="stroke:black; stroke-linecap:round; stroke-width:0.25;"/>
<line x1="76.900000" y1="24.000000" x2="93.800000" y2="24.000000"  style="stroke:black; stroke-linecap:round; stroke-width:0.25;"/>
<line x1="89.800000" y1="44.000000" x2="93.800000" y2="44.000000"  style="stroke:black; stroke-linecap:round; stroke-width:0.25;"/>
<line x1="93.800000" y1="44.000000" x2="101.800000" y2="44.000000"  style="stroke:black; stroke-linecap:round; stroke-width:0.25;"/>
<line x1="93.800000" y1="24.000000" x2="101.800000" y2="24.000000"  style="stroke:black; stroke-linecap:round; stroke-width:0.25;"/>
<line x1="101.800000" y1="36.000000" x2="105.800000" y2="36.000000"  style="stroke:black; stroke-linecap:round; stroke-width:0.25;"/>
<line x1="101.800000" y1="44.000000" x2="105.800000" y2="44.000000"  style="stroke:black; stroke-linecap:round; stroke-width:0.25;"/>
<line x1="101.800000" y1="24.000000" x2="101.800000" y2="36.000000"  style="stroke:black; stroke-linecap:round; stroke-width:0.25;"/>
<line x1="101.800000" y1="36.000000" x2="101.800000" y2="36.000000"  style="stroke:black; stroke-linecap:round; stroke-width:0.25;"/>
<line x1="129.800000" y1="40.000000" x2="133.800000" y2="40.000000"  style="stroke:black; stroke-linecap:round; stroke-width:0.25;"/>
<line x1="133.800000" y1="24.000000" x2="141.800000" y2="24.000000"  style="stroke:black; stroke-linecap:round; stroke-width:0.25;"/>
<line x1="133.800000" y1="40.000000" x2="133.800000" y2="24.000000"  style="stroke:black; stroke-linecap:round; stroke-width:0.25;"/>
<line x1="133.800000" y1="40.000000" x2="133.800000" y2="40.000000"  style="stroke:black; stroke-linecap:round; stroke-width:0.25;"/>
<line x1="141.800000" y1="24.000000" x2="157.800000" y2="24.000000"  style="stroke:black; stroke-linecap:round; stroke-width:0.25;"/>
<line x1="157.800000" y1="24.000000" x2="173.800000" y2="24.000000"  style="stroke:black; stroke-linecap:round; stroke-width:0.25;"/>
<line x1="169.800000" y1="44.000000" x2="173.800000" y2="44.000000"  style="stroke:black; stroke-linecap:round; stroke-width:0.25;"/>
<line x1="173.800000" y1="24.000000" x2="181.800000" y2="24.000000"  style="stroke:black; stroke-linecap:round; stroke-width:0.25;"/>
<line x1="173.800000" y1="44.000000" x2="181.800000" y2="44.000000"  style="stroke:black; stroke-linecap:round; stroke-width:0.25;"/>
<line x1="181.800000" y1="24.000000" x2="181.800000" y2="36.000000"  style="stroke:black; stroke-linecap:round; stroke-width:0.25;"/>
<line x1="181.800000" y1="36.000000" x2="181.800000" y2="36.000000"  style="stroke:black; stroke-linecap:round; stroke-width:0.25;"/>
<line x1="181.800000" y1="36.000000" x2="185.800000" y2="36.000000"  style="stroke:black; stroke-linecap:round; stroke-width:0.25;"/>
<line x1="181.800000" y1="44.000000" x2="185.800000" y2="44.000000"  style="stroke:black; stroke-linecap:round; stroke-width:0.25;"/>
<line x1="209.800000" y1="40.000000" x2="213.800000" y2="40.000000"  style="stroke:black; stroke-linecap:round; stroke-width:0.25;"/>
<line x1="213.800000" y1="40.000000" x2="213.800000" y2="40.000000"  style="stroke:black; stroke-linecap:round; stroke-width:0.25;"/>
<line x1="213.800000" y1="40.000000" x2="217.800000" y2="40.000000"  style="stroke:black; stroke-linecap:round; stroke-width:0.25;"/>
<line x1="217.800000" y1="40.000000" x2="221.800000" y2="40.000000"  style="stroke:black; stroke-linecap:round; stroke-width:0.25;"/>
<line x1="221.800000" y1="40.000000" x2="231.800000" y2="40.000000"  style="stroke:black; stroke-linecap:round; stroke-width:0.25;"/>
</svg>
