<?xml version="1.0"?>
<svg xmlns="http://www.w3.org/2000/svg" xmlns:xlink="http://www.w3.org/1999/xlink" viewBox="0 0 185.800000 232.000000" width="92.900000mm" height="116.000000mm" version="1.1">
<a xlink:href="process.svg">
<rect x="1.000000" y="1.000000" width="184.800000" height="231.000000" rx="0" ry="0" style="stroke:none;fill:#cccccc;"/>
<rect x="0.000000" y="0.000000" width="184.800000" height="231.000000" rx="0" ry="0" style="stroke:none;fill:#ffffff;"/>
</a>
<text x="10.000000" y="7.000000" font-family="Arial" font-size="7"></text>
<a xlink:href="dist2-0x7ff340f8c280.svg">
<rect x="81.000000" y="25.000000" width="25.800000" height="24.000000" rx="0" ry="0" style="stroke:none;fill:#cccccc;"/>
<rect x="80.000000" y="24.000000" width="25.800000" height="24.000000" rx="0" ry="0" style="stroke:none;fill:#003366;"/>
</a>
<a xlink:href="dist2-0x7ff340f8c280.svg">
<text x="92.900000" y="38.000000" font-family="Arial" font-size="7" text-anchor="middle" fill="#FFFFFF">dist2</text>
</a>
<circle cx="82.000000" cy="26.000000" r="1"/>
<line x1="77.000000" y1="31.000000" x2="80.000000" y2="32.000000"  transform="rotate(0.000000,80.000000,32.000000)" style="stroke: black; stroke-width:0.25;"/>
<line x1="77.000000" y1="33.000000" x2="80.000000" y2="32.000000"  transform="rotate(0.000000,80.000000,32.000000)" style="stroke: black; stroke-width:0.25;"/>
<line x1="77.000000" y1="39.000000" x2="80.000000" y2="40.000000"  transform="rotate(0.000000,80.000000,40.000000)" style="stroke: black; stroke-width:0.25;"/>
<line x1="77.000000" y1="41.000000" x2="80.000000" y2="40.000000"  transform="rotate(0.000000,80.000000,40.000000)" style="stroke: black; stroke-width:0.25;"/>
<a xlink:href="dist2-0x7ff340f8c280.svg">
<rect x="81.000000" y="57.000000" width="25.800000" height="24.000000" rx="0" ry="0" style="stroke:none;fill:#cccccc;"/>
<rect x="80.000000" y="56.000000" width="25.800000" height="24.000000" rx="0" ry="0" style="stroke:none;fill:#003366;"/>
</a>
<a xlink:href="dist2-0x7ff340f8c280.svg">
<text x="92.900000" y="70.000000" font-family="Arial" font-size="7" text-anchor="middle" fill="#FFFFFF">dist2</text>
</a>
<circle cx="82.000000" cy="58.000000" r="1"/>
<line x1="77.000000" y1="63.000000" x2="80.000000" y2="64.000000"  transform="rotate(0.000000,80.000000,64.000000)" style="stroke: black; stroke-width:0.25;"/>
<line x1="77.000000" y1="65.000000" x2="80.000000" y2="64.000000"  transform="rotate(0.000000,80.000000,64.000000)" style="stroke: black; stroke-width:0.25;"/>
<line x1="77.000000" y1="71.000000" x2="80.000000" y2="72.000000"  transform="rotate(0.000000,80.000000,72.000000)" style="stroke: black; stroke-width:0.25;"/>
<line x1="77.000000" y1="73.000000" x2="80.000000" y2="72.000000"  transform="rotate(0.000000,80.000000,72.000000)" style="stroke: black; stroke-width:0.25;"/>
<a xlink:href="dist2-0x7ff340f8c280.svg">
<rect x="81.000000" y="89.000000" width="25.800000" height="24.000000" rx="0" ry="0" style="stroke:none;fill:#cccccc;"/>
<rect x="80.000000" y="88.000000" width="25.800000" height="24.000000" rx="0" ry="0" style="stroke:none;fill:#003366;"/>
</a>
<a xlink:href="dist2-0x7ff340f8c280.svg">
<text x="92.900000" y="102.000000" font-family="Arial" font-size="7" text-anchor="middle" fill="#FFFFFF">dist2</text>
</a>
<circle cx="82.000000" cy="90.000000" r="1"/>
<line x1="77.000000" y1="95.000000" x2="80.000000" y2="96.000000"  transform="rotate(0.000000,80.000000,96.000000)" style="stroke: black; stroke-width:0.25;"/>
<line x1="77.000000" y1="97.000000" x2="80.000000" y2="96.000000"  transform="rotate(0.000000,80.000000,96.000000)" style="stroke: black; stroke-width:0.25;"/>
<line x1="77.000000" y1="103.000000" x2="80.000000" y2="104.000000"  transform="rotate(0.000000,80.000000,104.000000)" style="stroke: black; stroke-width:0.25;"/>
<line x1="77.000000" y1="105.000000" x2="80.000000" y2="104.000000"  transform="rotate(0.000000,80.000000,104.000000)" style="stroke: black; stroke-width:0.25;"/>
<a xlink:href="dist2-0x7ff340f8c280.svg">
<rect x="81.000000" y="121.000000" width="25.800000" height="24.000000" rx="0" ry="0" style="stroke:none;fill:#cccccc;"/>
<rect x="80.000000" y="120.000000" width="25.800000" height="24.000000" rx="0" ry="0" style="stroke:none;fill:#003366;"/>
</a>
<a xlink:href="dist2-0x7ff340f8c280.svg">
<text x="92.900000" y="134.000000" font-family="Arial" font-size="7" text-anchor="middle" fill="#FFFFFF">dist2</text>
</a>
<circle cx="82.000000" cy="122.000000" r="1"/>
<line x1="77.000000" y1="127.000000" x2="80.000000" y2="128.000000"  transform="rotate(0.000000,80.000000,128.000000)" style="stroke: black; stroke-width:0.25;"/>
<line x1="77.000000" y1="129.000000" x2="80.000000" y2="128.000000"  transform="rotate(0.000000,80.000000,128.000000)" style="stroke: black; stroke-width:0.25;"/>
<line x1="77.000000" y1="135.000000" x2="80.000000" y2="136.000000"  transform="rotate(0.000000,80.000000,136.000000)" style="stroke: black; stroke-width:0.25;"/>
<line x1="77.000000" y1="137.000000" x2="80.000000" y2="136.000000"  transform="rotate(0.000000,80.000000,136.000000)" style="stroke: black; stroke-width:0.25;"/>
<a xlink:href="dist2-0x7ff340f8c280.svg">
<rect x="81.000000" y="153.000000" width="25.800000" height="24.000000" rx="0" ry="0" style="stroke:none;fill:#cccccc;"/>
<rect x="80.000000" y="152.000000" width="25.800000" height="24.000000" rx="0" ry="0" style="stroke:none;fill:#003366;"/>
</a>
<a xlink:href="dist2-0x7ff340f8c280.svg">
<text x="92.900000" y="166.000000" font-family="Arial" font-size="7" text-anchor="middle" fill="#FFFFFF">dist2</text>
</a>
<circle cx="82.000000" cy="154.000000" r="1"/>
<line x1="77.000000" y1="159.000000" x2="80.000000" y2="160.000000"  transform="rotate(0.000000,80.000000,160.000000)" style="stroke: black; stroke-width:0.25;"/>
<line x1="77.000000" y1="161.000000" x2="80.000000" y2="160.000000"  transform="rotate(0.000000,80.000000,160.000000)" style="stroke: black; stroke-width:0.25;"/>
<line x1="77.000000" y1="167.000000" x2="80.000000" y2="168.000000"  transform="rotate(0.000000,80.000000,168.000000)" style="stroke: black; stroke-width:0.25;"/>
<line x1="77.000000" y1="169.000000" x2="80.000000" y2="168.000000"  transform="rotate(0.000000,80.000000,168.000000)" style="stroke: black; stroke-width:0.25;"/>
<a xlink:href="dist2-0x7ff340f8c280.svg">
<rect x="81.000000" y="185.000000" width="25.800000" height="24.000000" rx="0" ry="0" style="stroke:none;fill:#cccccc;"/>
<rect x="80.000000" y="184.000000" width="25.800000" height="24.000000" rx="0" ry="0" style="stroke:none;fill:#003366;"/>
</a>
<a xlink:href="dist2-0x7ff340f8c280.svg">
<text x="92.900000" y="198.000000" font-family="Arial" font-size="7" text-anchor="middle" fill="#FFFFFF">dist2</text>
</a>
<circle cx="82.000000" cy="186.000000" r="1"/>
<line x1="77.000000" y1="191.000000" x2="80.000000" y2="192.000000"  transform="rotate(0.000000,80.000000,192.000000)" style="stroke: black; stroke-width:0.25;"/>
<line x1="77.000000" y1="193.000000" x2="80.000000" y2="192.000000"  transform="rotate(0.000000,80.000000,192.000000)" style="stroke: black; stroke-width:0.25;"/>
<line x1="77.000000" y1="199.000000" x2="80.000000" y2="200.000000"  transform="rotate(0.000000,80.000000,200.000000)" style="stroke: black; stroke-width:0.25;"/>
<line x1="77.000000" y1="201.000000" x2="80.000000" y2="200.000000"  transform="rotate(0.000000,80.000000,200.000000)" style="stroke: black; stroke-width:0.25;"/>
<line x1="15.000000" y1="15.000000" x2="15.000000" y2="217.000000"  style="stroke: black; stroke-linecap:round; stroke-width:0.25; stroke-dasharray:3,3;"/>
<line x1="15.000000" y1="217.000000" x2="170.800000" y2="217.000000"  style="stroke: black; stroke-linecap:round; stroke-width:0.25; stroke-dasharray:3,3;"/>
<line x1="170.800000" y1="217.000000" x2="170.800000" y2="15.000000"  style="stroke: black; stroke-linecap:round; stroke-width:0.25; stroke-dasharray:3,3;"/>
<line x1="15.000000" y1="15.000000" x2="20.000000" y2="15.000000"  style="stroke: black; stroke-linecap:round; stroke-width:0.25; stroke-dasharray:3,3;"/>
<line x1="61.925000" y1="15.000000" x2="170.800000" y2="15.000000"  style="stroke: black; stroke-linecap:round; stroke-width:0.25; stroke-dasharray:3,3;"/>
<text x="20.000000" y="17.000000" font-family="Arial" font-size="7">distortions</text>
<line x1="172.800000" y1="71.000000" x2="175.800000" y2="72.000000"  transform="rotate(0.000000,175.800000,72.000000)" style="stroke: black; stroke-width:0.25;"/>
<line x1="172.800000" y1="73.000000" x2="175.800000" y2="72.000000"  transform="rotate(0.000000,175.800000,72.000000)" style="stroke: black; stroke-width:0.25;"/>
<line x1="172.800000" y1="79.000000" x2="175.800000" y2="80.000000"  transform="rotate(0.000000,175.800000,80.000000)" style="stroke: black; stroke-width:0.25;"/>
<line x1="172.800000" y1="81.000000" x2="175.800000" y2="80.000000"  transform="rotate(0.000000,175.800000,80.000000)" style="stroke: black; stroke-width:0.25;"/>
<line x1="172.800000" y1="87.000000" x2="175.800000" y2="88.000000"  transform="rotate(0.000000,175.800000,88.000000)" style="stroke: black; stroke-width:0.25;"/>
<line x1="172.800000" y1="89.000000" x2="175.800000" y2="88.000000"  transform="rotate(0.000000,175.800000,88.000000)" style="stroke: black; stroke-width:0.25;"/>
<line x1="172.800000" y1="95.000000" x2="175.800000" y2="96.000000"  transform="rotate(0.000000,175.800000,96.000000)" style="stroke: black; stroke-width:0.25;"/>
<line x1="172.800000" y1="97.000000" x2="175.800000" y2="96.000000"  transform="rotate(0.000000,175.800000,96.000000)" style="stroke: black; stroke-width:0.25;"/>
<line x1="172.800000" y1="103.000000" x2="175.800000" y2="104.000000"  transform="rotate(0.000000,175.800000,104.000000)" style="stroke: black; stroke-width:0.25;"/>
<line x1="172.800000" y1="105.000000" x2="175.800000" y2="104.000000"  transform="rotate(0.000000,175.800000,104.000000)" style="stroke: black; stroke-width:0.25;"/>
<line x1="172.800000" y1="111.000000" x2="175.800000" y2="112.000000"  transform="rotate(0.000000,175.800000,112.000000)" style="stroke: black; stroke-width:0.25;"/>
<line x1="172.800000" y1="113.000000" x2="175.800000" y2="112.000000"  transform="rotate(0.000000,175.800000,112.000000)" style="stroke: black; stroke-width:0.25;"/>
<line x1="172.800000" y1="119.000000" x2="175.800000" y2="120.000000"  transform="rotate(0.000000,175.800000,120.000000)" style="stroke: black; stroke-width:0.25;"/>
<line x1="172.800000" y1="121.000000" x2="175.800000" y2="120.000000"  transform="rotate(0.000000,175.800000,120.000000)" style="stroke: black; stroke-width:0.25;"/>
<line x1="172.800000" y1="127.000000" x2="175.800000" y2="128.000000"  transform="rotate(0.000000,175.800000,128.000000)" style="stroke: black; stroke-width:0.25;"/>
<line x1="172.800000" y1="129.000000" x2="175.800000" y2="128.000000"  transform="rotate(0.000000,175.800000,128.000000)" style="stroke: black; stroke-width:0.25;"/>
<line x1="172.800000" y1="135.000000" x2="175.800000" y2="136.000000"  transform="rotate(0.000000,175.800000,136.000000)" style="stroke: black; stroke-width:0.25;"/>
<line x1="172.800000" y1="137.000000" x2="175.800000" y2="136.000000"  transform="rotate(0.000000,175.800000,136.000000)" style="stroke: black; stroke-width:0.25;"/>
<line x1="172.800000" y1="143.000000" x2="175.800000" y2="144.000000"  transform="rotate(0.000000,175.800000,144.000000)" style="stroke: black; stroke-width:0.25;"/>
<line x1="172.800000" y1="145.000000" x2="175.800000" y2="144.000000"  transform="rotate(0.000000,175.800000,144.000000)" style="stroke: black; stroke-width:0.25;"/>
<line x1="172.800000" y1="151.000000" x2="175.800000" y2="152.000000"  transform="rotate(0.000000,175.800000,152.000000)" style="stroke: black; stroke-width:0.25;"/>
<line x1="172.800000" y1="153.000000" x2="175.800000" y2="152.000000"  transform="rotate(0.000000,175.800000,152.000000)" style="stroke: black; stroke-width:0.25;"/>
<line x1="172.800000" y1="159.000000" x2="175.800000" y2="160.000000"  transform="rotate(0.000000,175.800000,160.000000)" style="stroke: black; stroke-width:0.25;"/>
<line x1="172.800000" y1="161.000000" x2="175.800000" y2="160.000000"  transform="rotate(0.000000,175.800000,160.000000)" style="stroke: black; stroke-width:0.25;"/>
<line x1="10.000000" y1="72.000000" x2="20.000000" y2="72.000000"  style="stroke:black; stroke-linecap:round; stroke-width:0.25;"/>
<line x1="10.000000" y1="80.000000" x2="20.000000" y2="80.000000"  style="stroke:black; stroke-linecap:round; stroke-width:0.25;"/>
<line x1="10.000000" y1="88.000000" x2="20.000000" y2="88.000000"  style="stroke:black; stroke-linecap:round; stroke-width:0.25;"/>
<line x1="10.000000" y1="96.000000" x2="20.000000" y2="96.000000"  style="stroke:black; stroke-linecap:round; stroke-width:0.25;"/>
<line x1="10.000000" y1="104.000000" x2="20.000000" y2="104.000000"  style="stroke:black; stroke-linecap:round; stroke-width:0.25;"/>
<line x1="10.000000" y1="112.000000" x2="20.000000" y2="112.000000"  style="stroke:black; stroke-linecap:round; stroke-width:0.25;"/>
<line x1="10.000000" y1="120.000000" x2="20.000000" y2="120.000000"  style="stroke:black; stroke-linecap:round; stroke-width:0.25;"/>
<line x1="10.000000" y1="128.000000" x2="20.000000" y2="128.000000"  style="stroke:black; stroke-linecap:round; stroke-width:0.25;"/>
<line x1="10.000000" y1="136.000000" x2="20.000000" y2="136.000000"  style="stroke:black; stroke-linecap:round; stroke-width:0.25;"/>
<line x1="10.000000" y1="144.000000" x2="20.000000" y2="144.000000"  style="stroke:black; stroke-linecap:round; stroke-width:0.25;"/>
<line x1="10.000000" y1="152.000000" x2="20.000000" y2="152.000000"  style="stroke:black; stroke-linecap:round; stroke-width:0.25;"/>
<line x1="10.000000" y1="160.000000" x2="20.000000" y2="160.000000"  style="stroke:black; stroke-linecap:round; stroke-width:0.25;"/>
<line x1="20.000000" y1="72.000000" x2="24.000000" y2="72.000000"  style="stroke:black; stroke-linecap:round; stroke-width:0.25;"/>
<line x1="20.000000" y1="80.000000" x2="24.000000" y2="80.000000"  style="stroke:black; stroke-linecap:round; stroke-width:0.25;"/>
<line x1="20.000000" y1="88.000000" x2="24.000000" y2="88.000000"  style="stroke:black; stroke-linecap:round; stroke-width:0.25;"/>
<line x1="20.000000" y1="96.000000" x2="24.000000" y2="96.000000"  style="stroke:black; stroke-linecap:round; stroke-width:0.25;"/>
<line x1="20.000000" y1="104.000000" x2="24.000000" y2="104.000000"  style="stroke:black; stroke-linecap:round; stroke-width:0.25;"/>
<line x1="20.000000" y1="112.000000" x2="24.000000" y2="112.000000"  style="stroke:black; stroke-linecap:round; stroke-width:0.25;"/>
<line x1="20.000000" y1="120.000000" x2="24.000000" y2="120.000000"  style="stroke:black; stroke-linecap:round; stroke-width:0.25;"/>
<line x1="20.000000" y1="128.000000" x2="24.000000" y2="128.000000"  style="stroke:black; stroke-linecap:round; stroke-width:0.25;"/>
<line x1="20.000000" y1="136.000000" x2="24.000000" y2="136.000000"  style="stroke:black; stroke-linecap:round; stroke-width:0.25;"/>
<line x1="20.000000" y1="144.000000" x2="24.000000" y2="144.000000"  style="stroke:black; stroke-linecap:round; stroke-width:0.25;"/>
<line x1="20.000000" y1="152.000000" x2="24.000000" y2="152.000000"  style="stroke:black; stroke-linecap:round; stroke-width:0.25;"/>
<line x1="20.000000" y1="160.000000" x2="24.000000" y2="160.000000"  style="stroke:black; stroke-linecap:round; stroke-width:0.25;"/>
<line x1="24.000000" y1="72.000000" x2="28.000000" y2="72.000000"  style="stroke:black; stroke-linecap:round; stroke-width:0.25;"/>
<line x1="24.000000" y1="80.000000" x2="28.000000" y2="80.000000"  style="stroke:black; stroke-linecap:round; stroke-width:0.25;"/>
<line x1="24.000000" y1="88.000000" x2="28.000000" y2="88.000000"  style="stroke:black; stroke-linecap:round; stroke-width:0.25;"/>
<line x1="24.000000" y1="96.000000" x2="28.000000" y2="96.000000"  style="stroke:black; stroke-linecap:round; stroke-width:0.25;"/>
<line x1="24.000000" y1="104.000000" x2="28.000000" y2="104.000000"  style="stroke:black; stroke-linecap:round; stroke-width:0.25;"/>
<line x1="24.000000" y1="112.000000" x2="28.000000" y2="112.000000"  style="stroke:black; stroke-linecap:round; stroke-width:0.25;"/>
<line x1="24.000000" y1="120.000000" x2="28.000000" y2="120.000000"  style="stroke:black; stroke-linecap:round; stroke-width:0.25;"/>
<line x1="24.000000" y1="128.000000" x2="28.000000" y2="128.000000"  style="stroke:black; stroke-linecap:round; stroke-width:0.25;"/>
<line x1="24.000000" y1="136.000000" x2="28.000000" y2="136.000000"  style="stroke:black; stroke-linecap:round; stroke-width:0.25;"/>
<line x1="24.000000" y1="144.000000" x2="28.000000" y2="144.000000"  style="stroke:black; stroke-linecap:round; stroke-width:0.25;"/>
<line x1="24.000000" y1="152.000000" x2="28.000000" y2="152.000000"  style="stroke:black; stroke-linecap:round; stroke-width:0.25;"/>
<line x1="24.000000" y1="160.000000" x2="28.000000" y2="160.000000"  style="stroke:black; stroke-linecap:round; stroke-width:0.25;"/>
<line x1="28.000000" y1="32.000000" x2="76.000000" y2="32.000000"  style="stroke:black; stroke-linecap:round; stroke-width:0.25;"/>
<line x1="28.000000" y1="72.000000" x2="28.000000" y2="32.000000"  style="stroke:black; stroke-linecap:round; stroke-width:0.25;"/>
<line x1="28.000000" y1="72.000000" x2="28.000000" y2="72.000000"  style="stroke:black; stroke-linecap:round; stroke-width:0.25;"/>
<line x1="28.000000" y1="80.000000" x2="36.000000" y2="80.000000"  style="stroke:black; stroke-linecap:round; stroke-width:0.25;"/>
<line x1="28.000000" y1="88.000000" x2="44.000000" y2="88.000000"  style="stroke:black; stroke-linecap:round; stroke-width:0.25;"/>
<line x1="28.000000" y1="96.000000" x2="52.000000" y2="96.000000"  style="stroke:black; stroke-linecap:round; stroke-width:0.25;"/>
<line x1="28.000000" y1="104.000000" x2="60.000000" y2="104.000000"  style="stroke:black; stroke-linecap:round; stroke-width:0.25;"/>
<line x1="28.000000" y1="112.000000" x2="68.000000" y2="112.000000"  style="stroke:black; stroke-linecap:round; stroke-width:0.25;"/>
<line x1="28.000000" y1="120.000000" x2="76.000000" y2="120.000000"  style="stroke:black; stroke-linecap:round; stroke-width:0.25;"/>
<line x1="28.000000" y1="128.000000" x2="68.000000" y2="128.000000"  style="stroke:black; stroke-linecap:round; stroke-width:0.25;"/>
<line x1="28.000000" y1="136.000000" x2="60.000000" y2="136.000000"  style="stroke:black; stroke-linecap:round; stroke-width:0.25;"/>
<line x1="28.000000" y1="144.000000" x2="52.000000" y2="144.000000"  style="stroke:black; stroke-linecap:round; stroke-width:0.25;"/>
<line x1="28.000000" y1="152.000000" x2="44.000000" y2="152.000000"  style="stroke:black; stroke-linecap:round; stroke-width:0.25;"/>
<line x1="28.000000" y1="160.000000" x2="36.000000" y2="160.000000"  style="stroke:black; stroke-linecap:round; stroke-width:0.25;"/>
<line x1="36.000000" y1="40.000000" x2="76.000000" y2="40.000000"  style="stroke:black; stroke-linecap:round; stroke-width:0.25;"/>
<line x1="36.000000" y1="80.000000" x2="36.000000" y2="40.000000"  style="stroke:black; stroke-linecap:round; stroke-width:0.25;"/>
<line x1="36.000000" y1="160.000000" x2="36.000000" y2="200.000000"  style="stroke:black; stroke-linecap:round; stroke-width:0.25;"/>
<line x1="36.000000" y1="200.000000" x2="76.000000" y2="200.000000"  style="stroke:black; stroke-linecap:round; stroke-width:0.25;"/>
<line x1="44.000000" y1="64.000000" x2="76.000000" y2="64.000000"  style="stroke:black; stroke-linecap:round; stroke-width:0.25;"/>
<line x1="44.000000" y1="88.000000" x2="44.000000" y2="64.000000"  style="stroke:black; stroke-linecap:round; stroke-width:0.25;"/>
<line x1="44.000000" y1="152.000000" x2="44.000000" y2="192.000000"  style="stroke:black; stroke-linecap:round; stroke-width:0.25;"/>
<line x1="44.000000" y1="192.000000" x2="76.000000" y2="192.000000"  style="stroke:black; stroke-linecap:round; stroke-width:0.25;"/>
<line x1="52.000000" y1="72.000000" x2="76.000000" y2="72.000000"  style="stroke:black; stroke-linecap:round; stroke-width:0.25;"/>
<line x1="52.000000" y1="96.000000" x2="52.000000" y2="72.000000"  style="stroke:black; stroke-linecap:round; stroke-width:0.25;"/>
<line x1="52.000000" y1="144.000000" x2="52.000000" y2="168.000000"  style="stroke:black; stroke-linecap:round; stroke-width:0.25;"/>
<line x1="52.000000" y1="168.000000" x2="76.000000" y2="168.000000"  style="stroke:black; stroke-linecap:round; stroke-width:0.25;"/>
<line x1="60.000000" y1="96.000000" x2="76.000000" y2="96.000000"  style="stroke:black; stroke-linecap:round; stroke-width:0.25;"/>
<line x1="60.000000" y1="104.000000" x2="60.000000" y2="96.000000"  style="stroke:black; stroke-linecap:round; stroke-width:0.25;"/>
<line x1="60.000000" y1="136.000000" x2="60.000000" y2="160.000000"  style="stroke:black; stroke-linecap:round; stroke-width:0.25;"/>
<line x1="60.000000" y1="160.000000" x2="76.000000" y2="160.000000"  style="stroke:black; stroke-linecap:round; stroke-width:0.25;"/>
<line x1="68.000000" y1="104.000000" x2="76.000000" y2="104.000000"  style="stroke:black; stroke-linecap:round; stroke-width:0.25;"/>
<line x1="68.000000" y1="112.000000" x2="68.000000" y2="104.000000"  style="stroke:black; stroke-linecap:round; stroke-width:0.25;"/>
<line x1="68.000000" y1="128.000000" x2="68.000000" y2="136.000000"  style="stroke:black; stroke-linecap:round; stroke-width:0.25;"/>
<line x1="68.000000" y1="136.000000" x2="76.000000" y2="136.000000"  style="stroke:black; stroke-linecap:round; stroke-width:0.25;"/>
<line x1="76.000000" y1="32.000000" x2="80.000000" y2="32.000000"  style="stroke:black; stroke-linecap:round; stroke-width:0.25;"/>
<line x1="76.000000" y1="40.000000" x2="80.000000" y2="40.000000"  style="stroke:black; stroke-linecap:round; stroke-width:0.25;"/>
<line x1="76.000000" y1="64.000000" x2="80.000000" y2="64.000000"  style="stroke:black; stroke-linecap:round; stroke-width:0.25;"/>
<line x1="76.000000" y1="72.000000" x2="80.000000" y2="72.000000"  style="stroke:black; stroke-linecap:round; stroke-width:0.25;"/>
<line x1="76.000000" y1="96.000000" x2="80.000000" y2="96.000000"  style="stroke:black; stroke-linecap:round; stroke-width:0.25;"/>
<line x1="76.000000" y1="104.000000" x2="80.000000" y2="104.000000"  style="stroke:black; stroke-linecap:round; stroke-width:0.25;"/>
<line x1="76.000000" y1="120.000000" x2="76.000000" y2="128.000000"  style="stroke:black; stroke-linecap:round; stroke-width:0.25;"/>
<line x1="76.000000" y1="128.000000" x2="76.000000" y2="128.000000"  style="stroke:black; stroke-linecap:round; stroke-width:0.25;"/>
<line x1="76.000000" y1="128.000000" x2="80.000000" y2="128.000000"  style="stroke:black; stroke-linecap:round; stroke-width:0.25;"/>
<line x1="76.000000" y1="136.000000" x2="80.000000" y2="136.000000"  style="stroke:black; stroke-linecap:round; stroke-width:0.25;"/>
<line x1="76.000000" y1="160.000000" x2="80.000000" y2="160.000000"  style="stroke:black; stroke-linecap:round; stroke-width:0.25;"/>
<line x1="76.000000" y1="168.000000" x2="80.000000" y2="168.000000"  style="stroke:black; stroke-linecap:round; stroke-width:0.25;"/>
<line x1="76.000000" y1="192.000000" x2="80.000000" y2="192.000000"  style="stroke:black; stroke-linecap:round; stroke-width:0.25;"/>
<line x1="76.000000" y1="200.000000" x2="80.000000" y2="200.000000"  style="stroke:black; stroke-linecap:round; stroke-width:0.25;"/>
<line x1="105.800000" y1="32.000000" x2="109.800000" y2="32.000000"  style="stroke:black; stroke-linecap:round; stroke-width:0.25;"/>
<line x1="105.800000" y1="40.000000" x2="109.800000" y2="40.000000"  style="stroke:black; stroke-linecap:round; stroke-width:0.25;"/>
<line x1="105.800000" y1="64.000000" x2="109.800000" y2="64.000000"  style="stroke:black; stroke-linecap:round; stroke-width:0.25;"/>
<line x1="105.800000" y1="72.000000" x2="109.800000" y2="72.000000"  style="stroke:black; stroke-linecap:round; stroke-width:0.25;"/>
<line x1="105.800000" y1="96.000000" x2="109.800000" y2="96.000000"  style="stroke:black; stroke-linecap:round; stroke-width:0.25;"/>
<line x1="105.800000" y1="104.000000" x2="109.800000" y2="104.000000"  style="stroke:black; stroke-linecap:round; stroke-width:0.25;"/>
<line x1="105.800000" y1="128.000000" x2="109.800000" y2="128.000000"  style="stroke:black; stroke-linecap:round; stroke-width:0.25;"/>
<line x1="105.800000" y1="136.000000" x2="109.800000" y2="136.000000"  style="stroke:black; stroke-linecap:round; stroke-width:0.25;"/>
<line x1="105.800000" y1="160.000000" x2="109.800000" y2="160.000000"  style="stroke:black; stroke-linecap:round; stroke-width:0.25;"/>
<line x1="105.800000" y1="168.000000" x2="109.800000" y2="168.000000"  style="stroke:black; stroke-linecap:round; stroke-width:0.25;"/>
<line x1="105.800000" y1="192.000000" x2="109.800000" y2="192.000000"  style="stroke:black; stroke-linecap:round; stroke-width:0.25;"/>
<line x1="105.800000" y1="200.000000" x2="109.800000" y2="200.000000"  style="stroke:black; stroke-linecap:round; stroke-width:0.25;"/>
<line x1="109.800000" y1="32.000000" x2="157.800000" y2="32.000000"  style="stroke:black; stroke-linecap:round; stroke-width:0.25;"/>
<line x1="109.800000" y1="40.000000" x2="149.800000" y2="40.000000"  style="stroke:black; stroke-linecap:round; stroke-width:0.25;"/>
<line x1="109.800000" y1="64.000000" x2="141.800000" y2="64.000000"  style="stroke:black; stroke-linecap:round; stroke-width:0.25;"/>
<line x1="109.800000" y1="72.000000" x2="133.800000" y2="72.000000"  style="stroke:black; stroke-linecap:round; stroke-width:0.25;"/>
<line x1="109.800000" y1="96.000000" x2="125.800000" y2="96.000000"  style="stroke:black; stroke-linecap:round; stroke-width:0.25;"/>
<line x1="109.800000" y1="104.000000" x2="117.800000" y2="104.000000"  style="stroke:black; stroke-linecap:round; stroke-width:0.25;"/>
<line x1="109.800000" y1="120.000000" x2="157.800000" y2="120.000000"  style="stroke:black; stroke-linecap:round; stroke-width:0.25;"/>
<line x1="109.800000" y1="128.000000" x2="109.800000" y2="120.000000"  style="stroke:black; stroke-linecap:round; stroke-width:0.25;"/>
<line x1="109.800000" y1="128.000000" x2="109.800000" y2="128.000000"  style="stroke:black; stroke-linecap:round; stroke-width:0.25;"/>
<line x1="109.800000" y1="136.000000" x2="117.800000" y2="136.000000"  style="stroke:black; stroke-linecap:round; stroke-width:0.25;"/>
<line x1="109.800000" y1="160.000000" x2="125.800000" y2="160.000000"  style="stroke:black; stroke-linecap:round; stroke-width:0.25;"/>
<line x1="109.800000" y1="168.000000" x2="133.800000" y2="168.000000"  style="stroke:black; stroke-linecap:round; stroke-width:0.25;"/>
<line x1="109.800000" y1="192.000000" x2="141.800000" y2="192.000000"  style="stroke:black; stroke-linecap:round; stroke-width:0.25;"/>
<line x1="109.800000" y1="200.000000" x2="149.800000" y2="200.000000"  style="stroke:black; stroke-linecap:round; stroke-width:0.25;"/>
<line x1="117.800000" y1="104.000000" x2="117.800000" y2="112.000000"  style="stroke:black; stroke-linecap:round; stroke-width:0.25;"/>
<line x1="117.800000" y1="112.000000" x2="157.800000" y2="112.000000"  style="stroke:black; stroke-linecap:round; stroke-width:0.25;"/>
<line x1="117.800000" y1="128.000000" x2="157.800000" y2="128.000000"  style="stroke:black; stroke-linecap:round; stroke-width:0.25;"/>
<line x1="117.800000" y1="136.000000" x2="117.800000" y2="128.000000"  style="stroke:black; stroke-linecap:round; stroke-width:0.25;"/>
<line x1="125.800000" y1="96.000000" x2="125.800000" y2="104.000000"  style="stroke:black; stroke-linecap:round; stroke-width:0.25;"/>
<line x1="125.800000" y1="104.000000" x2="157.800000" y2="104.000000"  style="stroke:black; stroke-linecap:round; stroke-width:0.25;"/>
<line x1="125.800000" y1="136.000000" x2="157.800000" y2="136.000000"  style="stroke:black; stroke-linecap:round; stroke-width:0.25;"/>
<line x1="125.800000" y1="160.000000" x2="125.800000" y2="136.000000"  style="stroke:black; stroke-linecap:round; stroke-width:0.25;"/>
<line x1="133.800000" y1="72.000000" x2="133.800000" y2="96.000000"  style="stroke:black; stroke-linecap:round; stroke-width:0.25;"/>
<line x1="133.800000" y1="96.000000" x2="157.800000" y2="96.000000"  style="stroke:black; stroke-linecap:round; stroke-width:0.25;"/>
<line x1="133.800000" y1="144.000000" x2="157.800000" y2="144.000000"  style="stroke:black; stroke-linecap:round; stroke-width:0.25;"/>
<line x1="133.800000" y1="168.000000" x2="133.800000" y2="144.000000"  style="stroke:black; stroke-linecap:round; stroke-width:0.25;"/>
<line x1="141.800000" y1="64.000000" x2="141.800000" y2="88.000000"  style="stroke:black; stroke-linecap:round; stroke-width:0.25;"/>
<line x1="141.800000" y1="88.000000" x2="157.800000" y2="88.000000"  style="stroke:black; stroke-linecap:round; stroke-width:0.25;"/>
<line x1="141.800000" y1="152.000000" x2="157.800000" y2="152.000000"  style="stroke:black; stroke-linecap:round; stroke-width:0.25;"/>
<line x1="141.800000" y1="192.000000" x2="141.800000" y2="152.000000"  style="stroke:black; stroke-linecap:round; stroke-width:0.25;"/>
<line x1="149.800000" y1="40.000000" x2="149.800000" y2="80.000000"  style="stroke:black; stroke-linecap:round; stroke-width:0.25;"/>
<line x1="149.800000" y1="80.000000" x2="157.800000" y2="80.000000"  style="stroke:black; stroke-linecap:round; stroke-width:0.25;"/>
<line x1="149.800000" y1="160.000000" x2="157.800000" y2="160.000000"  style="stroke:black; stroke-linecap:round; stroke-width:0.25;"/>
<line x1="149.800000" y1="200.000000" x2="149.800000" y2="160.000000"  style="stroke:black; stroke-linecap:round; stroke-width:0.25;"/>
<line x1="157.800000" y1="32.000000" x2="157.800000" y2="72.000000"  style="stroke:black; stroke-linecap:round; stroke-width:0.25;"/>
<line x1="157.800000" y1="72.000000" x2="157.800000" y2="72.000000"  style="stroke:black; stroke-linecap:round; stroke-width:0.25;"/>
<line x1="157.800000" y1="72.000000" x2="161.800000" y2="72.000000"  style="stroke:black; stroke-linecap:round; stroke-width:0.25;"/>
<line x1="157.800000" y1="80.000000" x2="161.800000" y2="80.000000"  style="stroke:black; stroke-linecap:round; stroke-width:0.25;"/>
<line x1="157.800000" y1="88.000000" x2="161.800000" y2="88.000000"  style="stroke:black; stroke-linecap:round; stroke-width:0.25;"/>
<line x1="157.800000" y1="96.000000" x2="161.800000" y2="96.000000"  style="stroke:black; stroke-linecap:round; stroke-width:0.25;"/>
<line x1="157.800000" y1="104.000000" x2="161.800000" y2="104.000000"  style="stroke:black; stroke-linecap:round; stroke-width:0.25;"/>
<line x1="157.800000" y1="112.000000" x2="161.800000" y2="112.000000"  style="stroke:black; stroke-linecap:round; stroke-width:0.25;"/>
<line x1="157.800000" y1="120.000000" x2="161.800000" y2="120.000000"  style="stroke:black; stroke-linecap:round; stroke-width:0.25;"/>
<line x1="157.800000" y1="128.000000" x2="161.800000" y2="128.000000"  style="stroke:black; stroke-linecap:round; stroke-width:0.25;"/>
<line x1="157.800000" y1="136.000000" x2="161.800000" y2="136.000000"  style="stroke:black; stroke-linecap:round; stroke-width:0.25;"/>
<line x1="157.800000" y1="144.000000" x2="161.800000" y2="144.000000"  style="stroke:black; stroke-linecap:round; stroke-width:0.25;"/>
<line x1="157.800000" y1="152.000000" x2="161.800000" y2="152.000000"  style="stroke:black; stroke-linecap:round; stroke-width:0.25;"/>
<line x1="157.800000" y1="160.000000" x2="161.800000" y2="160.000000"  style="stroke:black; stroke-linecap:round; stroke-width:0.25;"/>
<line x1="161.800000" y1="72.000000" x2="165.800000" y2="72.000000"  style="stroke:black; stroke-linecap:round; stroke-width:0.25;"/>
<line x1="161.800000" y1="80.000000" x2="165.800000" y2="80.000000"  style="stroke:black; stroke-linecap:round; stroke-width:0.25;"/>
<line x1="161.800000" y1="88.000000" x2="165.800000" y2="88.000000"  style="stroke:black; stroke-linecap:round; stroke-width:0.25;"/>
<line x1="161.800000" y1="96.000000" x2="165.800000" y2="96.000000"  style="stroke:black; stroke-linecap:round; stroke-width:0.25;"/>
<line x1="161.800000" y1="104.000000" x2="165.800000" y2="104.000000"  style="stroke:black; stroke-linecap:round; stroke-width:0.25;"/>
<line x1="161.800000" y1="112.000000" x2="165.800000" y2="112.000000"  style="stroke:black; stroke-linecap:round; stroke-width:0.25;"/>
<line x1="161.800000" y1="120.000000" x2="165.800000" y2="120.000000"  style="stroke:black; stroke-linecap:round; stroke-width:0.25;"/>
<line x1="161.800000" y1="128.000000" x2="165.800000" y2="128.000000"  style="stroke:black; stroke-linecap:round; stroke-width:0.25;"/>
<line x1="161.800000" y1="136.000000" x2="165.800000" y2="136.000000"  style="stroke:black; stroke-linecap:round; stroke-width:0.25;"/>
<line x1="161.800000" y1="144.000000" x2="165.800000" y2="144.000000"  style="stroke:black; stroke-linecap:round; stroke-width:0.25;"/>
<line x1="161.800000" y1="152.000000" x2="165.800000" y2="152.000000"  style="stroke:black; stroke-linecap:round; stroke-width:0.25;"/>
<line x1="161.800000" y1="160.000000" x2="165.800000" y2="160.000000"  style="stroke:black; stroke-linecap:round; stroke-width:0.25;"/>
<line x1="165.800000" y1="72.000000" x2="175.800000" y2="72.000000"  style="stroke:black; stroke-linecap:round; stroke-width:0.25;"/>
<line x1="165.800000" y1="80.000000" x2="175.800000" y2="80.000000"  style="stroke:black; stroke-linecap:round; stroke-width:0.25;"/>
<line x1="165.800000" y1="88.000000" x2="175.800000" y2="88.000000"  style="stroke:black; stroke-linecap:round; stroke-width:0.25;"/>
<line x1="165.800000" y1="96.000000" x2="175.800000" y2="96.000000"  style="stroke:black; stroke-linecap:round; stroke-width:0.25;"/>
<line x1="165.800000" y1="104.000000" x2="175.800000" y2="104.000000"  style="stroke:black; stroke-linecap:round; stroke-width:0.25;"/>
<line x1="165.800000" y1="112.000000" x2="175.800000" y2="112.000000"  style="stroke:black; stroke-linecap:round; stroke-width:0.25;"/>
<line x1="165.800000" y1="120.000000" x2="175.800000" y2="120.000000"  style="stroke:black; stroke-linecap:round; stroke-width:0.25;"/>
<line x1="165.800000" y1="128.000000" x2="175.800000" y2="128.000000"  style="stroke:black; stroke-linecap:round; stroke-width:0.25;"/>
<line x1="165.800000" y1="136.000000" x2="175.800000" y2="136.000000"  style="stroke:black; stroke-linecap:round; stroke-width:0.25;"/>
<line x1="165.800000" y1="144.000000" x2="175.800000" y2="144.000000"  style="stroke:black; stroke-linecap:round; stroke-width:0.25;"/>
<line x1="165.800000" y1="152.000000" x2="175.800000" y2="152.000000"  style="stroke:black; stroke-linecap:round; stroke-width:0.25;"/>
<line x1="165.800000" y1="160.000000" x2="175.800000" y2="160.000000"  style="stroke:black; stroke-linecap:round; stroke-width:0.25;"/>
</svg>
