<?xml version="1.0"?>
<svg xmlns="http://www.w3.org/2000/svg" xmlns:xlink="http://www.w3.org/1999/xlink" viewBox="0 0 392.600000 100.000000" width="196.300000mm" height="50.000000mm" version="1.1">
<a xlink:href="dist2-0x7fc3da6d6cb0.svg">
<rect x="1.000000" y="1.000000" width="391.600000" height="99.000000" rx="0" ry="0" style="stroke:none;fill:#cccccc;"/>
<rect x="0.000000" y="0.000000" width="391.600000" height="99.000000" rx="0" ry="0" style="stroke:none;fill:#ffffff;"/>
</a>
<text x="10.000000" y="7.000000" font-family="Arial" font-size="7"></text>
<rect x="51.000000" y="43.000000" width="25.800000" height="24.000000" rx="0" ry="0" style="stroke:none;fill:#cccccc;"/>
<rect x="50.000000" y="42.000000" width="25.800000" height="24.000000" rx="0" ry="0" style="stroke:none;fill:#f44800;"/>
<text x="62.900000" y="56.000000" font-family="Arial" font-size="7" text-anchor="middle" fill="#FFFFFF">0.05</text>
<circle cx="52.000000" cy="44.000000" r="1"/>
<line x1="41.000000" y1="33.000000" x2="41.000000" y2="75.000000"  style="stroke: black; stroke-linecap:round; stroke-width:0.25; stroke-dasharray:3,3;"/>
<line x1="41.000000" y1="75.000000" x2="84.800000" y2="75.000000"  style="stroke: black; stroke-linecap:round; stroke-width:0.25; stroke-dasharray:3,3;"/>
<line x1="84.800000" y1="75.000000" x2="84.800000" y2="33.000000"  style="stroke: black; stroke-linecap:round; stroke-width:0.25; stroke-dasharray:3,3;"/>
<line x1="41.000000" y1="33.000000" x2="46.000000" y2="33.000000"  style="stroke: black; stroke-linecap:round; stroke-width:0.25; stroke-dasharray:3,3;"/>
<line x1="71.800000" y1="33.000000" x2="84.800000" y2="33.000000"  style="stroke: black; stroke-linecap:round; stroke-width:0.25; stroke-dasharray:3,3;"/>
<text x="46.000000" y="35.000000" font-family="Arial" font-size="7">offset</text>
<rect x="102.800000" y="39.000000" width="24.000000" height="24.000000" rx="0" ry="0" style="stroke:none;fill:#cccccc;"/>
<rect x="101.800000" y="38.000000" width="24.000000" height="24.000000" rx="0" ry="0" style="stroke:none;fill:#4B71A1;"/>
<text x="113.800000" y="52.000000" font-family="Arial" font-size="7" text-anchor="middle" fill="#FFFFFF">+</text>
<circle cx="103.800000" cy="40.000000" r="1"/>
<line x1="98.800000" y1="45.000000" x2="101.800000" y2="46.000000"  transform="rotate(0.000000,101.800000,46.000000)" style="stroke: black; stroke-width:0.25;"/>
<line x1="98.800000" y1="47.000000" x2="101.800000" y2="46.000000"  transform="rotate(0.000000,101.800000,46.000000)" style="stroke: black; stroke-width:0.25;"/>
<line x1="98.800000" y1="53.000000" x2="101.800000" y2="54.000000"  transform="rotate(0.000000,101.800000,54.000000)" style="stroke: black; stroke-width:0.25;"/>
<line x1="98.800000" y1="55.000000" x2="101.800000" y2="54.000000"  transform="rotate(0.000000,101.800000,54.000000)" style="stroke: black; stroke-width:0.25;"/>
<a xlink:href="pregain-0x7fc3da6c8df0.svg">
<rect x="142.800000" y="43.000000" width="38.700000" height="24.000000" rx="0" ry="0" style="stroke:none;fill:#cccccc;"/>
<rect x="141.800000" y="42.000000" width="38.700000" height="24.000000" rx="0" ry="0" style="stroke:none;fill:#003366;"/>
</a>
<a xlink:href="pregain-0x7fc3da6c8df0.svg">
<text x="161.150000" y="56.000000" font-family="Arial" font-size="7" text-anchor="middle" fill="#FFFFFF">pregain</text>
</a>
<circle cx="143.800000" cy="44.000000" r="1"/>
<rect x="197.500000" y="39.000000" width="24.000000" height="24.000000" rx="0" ry="0" style="stroke:none;fill:#cccccc;"/>
<rect x="196.500000" y="38.000000" width="24.000000" height="24.000000" rx="0" ry="0" style="stroke:none;fill:#4B71A1;"/>
<text x="208.500000" y="52.000000" font-family="Arial" font-size="7" text-anchor="middle" fill="#FFFFFF">*</text>
<circle cx="198.500000" cy="40.000000" r="1"/>
<line x1="193.500000" y1="45.000000" x2="196.500000" y2="46.000000"  transform="rotate(0.000000,196.500000,46.000000)" style="stroke: black; stroke-width:0.25;"/>
<line x1="193.500000" y1="47.000000" x2="196.500000" y2="46.000000"  transform="rotate(0.000000,196.500000,46.000000)" style="stroke: black; stroke-width:0.25;"/>
<line x1="193.500000" y1="53.000000" x2="196.500000" y2="54.000000"  transform="rotate(0.000000,196.500000,54.000000)" style="stroke: black; stroke-width:0.25;"/>
<line x1="193.500000" y1="55.000000" x2="196.500000" y2="54.000000"  transform="rotate(0.000000,196.500000,54.000000)" style="stroke: black; stroke-width:0.25;"/>
<a xlink:href="clip-0x7fc3da6cab70.svg">
<rect x="229.500000" y="39.000000" width="51.600000" height="24.000000" rx="0" ry="0" style="stroke:none;fill:#cccccc;"/>
<rect x="228.500000" y="38.000000" width="51.600000" height="24.000000" rx="0" ry="0" style="stroke:none;fill:#003366;"/>
</a>
<a xlink:href="clip-0x7fc3da6cab70.svg">
<text x="254.300000" y="52.000000" font-family="Arial" font-size="7" text-anchor="middle" fill="#FFFFFF">clip(-1)(1)</text>
</a>
<circle cx="230.500000" cy="40.000000" r="1"/>
<line x1="225.500000" y1="49.000000" x2="228.500000" y2="50.000000"  transform="rotate(0.000000,228.500000,50.000000)" style="stroke: black; stroke-width:0.25;"/>
<line x1="225.500000" y1="51.000000" x2="228.500000" y2="50.000000"  transform="rotate(0.000000,228.500000,50.000000)" style="stroke: black; stroke-width:0.25;"/>
<a xlink:href="cubic-0x7fc3da6d66e0.svg">
<rect x="289.100000" y="39.000000" width="25.800000" height="24.000000" rx="0" ry="0" style="stroke:none;fill:#cccccc;"/>
<rect x="288.100000" y="38.000000" width="25.800000" height="24.000000" rx="0" ry="0" style="stroke:none;fill:#003366;"/>
</a>
<a xlink:href="cubic-0x7fc3da6d66e0.svg">
<text x="301.000000" y="52.000000" font-family="Arial" font-size="7" text-anchor="middle" fill="#FFFFFF">cubic</text>
</a>
<circle cx="290.100000" cy="40.000000" r="1"/>
<line x1="285.100000" y1="49.000000" x2="288.100000" y2="50.000000"  transform="rotate(0.000000,288.100000,50.000000)" style="stroke: black; stroke-width:0.25;"/>
<line x1="285.100000" y1="51.000000" x2="288.100000" y2="50.000000"  transform="rotate(0.000000,288.100000,50.000000)" style="stroke: black; stroke-width:0.25;"/>
<a xlink:href="dcblocker-0x7fc3da6cdaa0.svg">
<rect x="322.900000" y="39.000000" width="38.700000" height="24.000000" rx="0" ry="0" style="stroke:none;fill:#cccccc;"/>
<rect x="321.900000" y="38.000000" width="38.700000" height="24.000000" rx="0" ry="0" style="stroke:none;fill:#003366;"/>
</a>
<a xlink:href="dcblocker-0x7fc3da6cdaa0.svg">
<text x="341.250000" y="52.000000" font-family="Arial" font-size="7" text-anchor="middle" fill="#FFFFFF">dcblocker</text>
</a>
<circle cx="323.900000" cy="40.000000" r="1"/>
<line x1="318.900000" y1="49.000000" x2="321.900000" y2="50.000000"  transform="rotate(0.000000,321.900000,50.000000)" style="stroke: black; stroke-width:0.25;"/>
<line x1="318.900000" y1="51.000000" x2="321.900000" y2="50.000000"  transform="rotate(0.000000,321.900000,50.000000)" style="stroke: black; stroke-width:0.25;"/>
<line x1="15.000000" y1="15.000000" x2="15.000000" y2="85.000000"  style="stroke: black; stroke-linecap:round; stroke-width:0.25; stroke-dasharray:3,3;"/>
<line x1="15.000000" y1="85.000000" x2="377.600000" y2="85.000000"  style="stroke: black; stroke-linecap:round; stroke-width:0.25; stroke-dasharray:3,3;"/>
<line x1="377.600000" y1="85.000000" x2="377.600000" y2="15.000000"  style="stroke: black; stroke-linecap:round; stroke-width:0.25; stroke-dasharray:3,3;"/>
<line x1="15.000000" y1="15.000000" x2="20.000000" y2="15.000000"  style="stroke: black; stroke-linecap:round; stroke-width:0.25; stroke-dasharray:3,3;"/>
<line x1="39.350000" y1="15.000000" x2="377.600000" y2="15.000000"  style="stroke: black; stroke-linecap:round; stroke-width:0.25; stroke-dasharray:3,3;"/>
<text x="20.000000" y="17.000000" font-family="Arial" font-size="7">dist</text>
<line x1="379.600000" y1="49.000000" x2="382.600000" y2="50.000000"  transform="rotate(0.000000,382.600000,50.000000)" style="stroke: black; stroke-width:0.25;"/>
<line x1="379.600000" y1="51.000000" x2="382.600000" y2="50.000000"  transform="rotate(0.000000,382.600000,50.000000)" style="stroke: black; stroke-width:0.25;"/>
<line x1="10.000000" y1="50.000000" x2="20.000000" y2="50.000000"  style="stroke:black; stroke-linecap:round; stroke-width:0.25;"/>
<line x1="20.000000" y1="50.000000" x2="24.000000" y2="50.000000"  style="stroke:black; stroke-linecap:round; stroke-width:0.25;"/>
<line x1="24.000000" y1="50.000000" x2="28.000000" y2="50.000000"  style="stroke:black; stroke-linecap:round; stroke-width:0.25;"/>
<line x1="28.000000" y1="24.000000" x2="36.000000" y2="24.000000"  style="stroke:black; stroke-linecap:round; stroke-width:0.25;"/>
<line x1="28.000000" y1="50.000000" x2="28.000000" y2="24.000000"  style="stroke:black; stroke-linecap:round; stroke-width:0.25;"/>
<line x1="28.000000" y1="50.000000" x2="28.000000" y2="50.000000"  style="stroke:black; stroke-linecap:round; stroke-width:0.25;"/>
<line x1="36.000000" y1="24.000000" x2="62.900000" y2="24.000000"  style="stroke:black; stroke-linecap:round; stroke-width:0.25;"/>
<line x1="62.900000" y1="24.000000" x2="89.800000" y2="24.000000"  style="stroke:black; stroke-linecap:round; stroke-width:0.25;"/>
<line x1="75.800000" y1="54.000000" x2="79.800000" y2="54.000000"  style="stroke:black; stroke-linecap:round; stroke-width:0.25;"/>
<line x1="79.800000" y1="54.000000" x2="89.800000" y2="54.000000"  style="stroke:black; stroke-linecap:round; stroke-width:0.25;"/>
<line x1="89.800000" y1="24.000000" x2="97.800000" y2="24.000000"  style="stroke:black; stroke-linecap:round; stroke-width:0.25;"/>
<line x1="89.800000" y1="54.000000" x2="97.800000" y2="54.000000"  style="stroke:black; stroke-linecap:round; stroke-width:0.25;"/>
<line x1="97.800000" y1="24.000000" x2="97.800000" y2="46.000000"  style="stroke:black; stroke-linecap:round; stroke-width:0.25;"/>
<line x1="97.800000" y1="46.000000" x2="97.800000" y2="46.000000"  style="stroke:black; stroke-linecap:round; stroke-width:0.25;"/>
<line x1="97.800000" y1="46.000000" x2="101.800000" y2="46.000000"  style="stroke:black; stroke-linecap:round; stroke-width:0.25;"/>
<line x1="97.800000" y1="54.000000" x2="101.800000" y2="54.000000"  style="stroke:black; stroke-linecap:round; stroke-width:0.25;"/>
<line x1="125.800000" y1="50.000000" x2="129.800000" y2="50.000000"  style="stroke:black; stroke-linecap:round; stroke-width:0.25;"/>
<line x1="129.800000" y1="34.000000" x2="137.800000" y2="34.000000"  style="stroke:black; stroke-linecap:round; stroke-width:0.25;"/>
<line x1="129.800000" y1="50.000000" x2="129.800000" y2="34.000000"  style="stroke:black; stroke-linecap:round; stroke-width:0.25;"/>
<line x1="129.800000" y1="50.000000" x2="129.800000" y2="50.000000"  style="stroke:black; stroke-linecap:round; stroke-width:0.25;"/>
<line x1="137.800000" y1="34.000000" x2="161.150000" y2="34.000000"  style="stroke:black; stroke-linecap:round; stroke-width:0.25;"/>
<line x1="161.150000" y1="34.000000" x2="184.500000" y2="34.000000"  style="stroke:black; stroke-linecap:round; stroke-width:0.25;"/>
<line x1="180.500000" y1="54.000000" x2="184.500000" y2="54.000000"  style="stroke:black; stroke-linecap:round; stroke-width:0.25;"/>
<line x1="184.500000" y1="34.000000" x2="192.500000" y2="34.000000"  style="stroke:black; stroke-linecap:round; stroke-width:0.25;"/>
<line x1="184.500000" y1="54.000000" x2="192.500000" y2="54.000000"  style="stroke:black; stroke-linecap:round; stroke-width:0.25;"/>
<line x1="192.500000" y1="34.000000" x2="192.500000" y2="46.000000"  style="stroke:black; stroke-linecap:round; stroke-width:0.25;"/>
<line x1="192.500000" y1="46.000000" x2="192.500000" y2="46.000000"  style="stroke:black; stroke-linecap:round; stroke-width:0.25;"/>
<line x1="192.500000" y1="46.000000" x2="196.500000" y2="46.000000"  style="stroke:black; stroke-linecap:round; stroke-width:0.25;"/>
<line x1="192.500000" y1="54.000000" x2="196.500000" y2="54.000000"  style="stroke:black; stroke-linecap:round; stroke-width:0.25;"/>
<line x1="220.500000" y1="50.000000" x2="224.500000" y2="50.000000"  style="stroke:black; stroke-linecap:round; stroke-width:0.25;"/>
<line x1="224.500000" y1="50.000000" x2="224.500000" y2="50.000000"  style="stroke:black; stroke-linecap:round; stroke-width:0.25;"/>
<line x1="224.500000" y1="50.000000" x2="228.500000" y2="50.000000"  style="stroke:black; stroke-linecap:round; stroke-width:0.25;"/>
<line x1="280.100000" y1="50.000000" x2="284.100000" y2="50.000000"  style="stroke:black; stroke-linecap:round; stroke-width:0.25;"/>
<line x1="284.100000" y1="50.000000" x2="284.100000" y2="50.000000"  style="stroke:black; stroke-linecap:round; stroke-width:0.25;"/>
<line x1="284.100000" y1="50.000000" x2="288.100000" y2="50.000000"  style="stroke:black; stroke-linecap:round; stroke-width:0.25;"/>
<line x1="313.900000" y1="50.000000" x2="317.900000" y2="50.000000"  style="stroke:black; stroke-linecap:round; stroke-width:0.25;"/>
<line x1="317.900000" y1="50.000000" x2="317.900000" y2="50.000000"  style="stroke:black; stroke-linecap:round; stroke-width:0.25;"/>
<line x1="317.900000" y1="50.000000" x2="321.900000" y2="50.000000"  style="stroke:black; stroke-linecap:round; stroke-width:0.25;"/>
<line x1="360.600000" y1="50.000000" x2="364.600000" y2="50.000000"  style="stroke:black; stroke-linecap:round; stroke-width:0.25;"/>
<line x1="364.600000" y1="50.000000" x2="368.600000" y2="50.000000"  style="stroke:black; stroke-linecap:round; stroke-width:0.25;"/>
<line x1="364.600000" y1="50.000000" x2="364.600000" y2="50.000000"  style="stroke:black; stroke-linecap:round; stroke-width:0.25;"/>
<line x1="368.600000" y1="50.000000" x2="372.600000" y2="50.000000"  style="stroke:black; stroke-linecap:round; stroke-width:0.25;"/>
<line x1="372.600000" y1="50.000000" x2="382.600000" y2="50.000000"  style="stroke:black; stroke-linecap:round; stroke-width:0.25;"/>
</svg>
