<?xml version="1.0"?>
<svg xmlns="http://www.w3.org/2000/svg" xmlns:xlink="http://www.w3.org/1999/xlink" viewBox="0 0 376.200000 360.000000" width="188.100000mm" height="180.000000mm" version="1.1">
<a xlink:href="h-0x7fa542ec8400.svg">
<rect x="1.000000" y="1.000000" width="375.200000" height="359.000000" rx="0" ry="0" style="stroke:none;fill:#cccccc;"/>
<rect x="0.000000" y="0.000000" width="375.200000" height="359.000000" rx="0" ry="0" style="stroke:none;fill:#ffffff;"/>
</a>
<text x="10.000000" y="7.000000" font-family="Arial" font-size="7"></text>
<rect x="141.750000" y="25.000000" width="24.000000" height="24.000000" rx="0" ry="0" style="stroke:none;fill:#cccccc;"/>
<rect x="140.750000" y="24.000000" width="24.000000" height="24.000000" rx="0" ry="0" style="stroke:none;fill:#f44800;"/>
<text x="152.750000" y="38.000000" font-family="Arial" font-size="7" text-anchor="middle" fill="#FFFFFF">2</text>
<circle cx="142.750000" cy="26.000000" r="1"/>
<rect x="141.750000" y="57.000000" width="24.000000" height="24.000000" rx="0" ry="0" style="stroke:none;fill:#cccccc;"/>
<rect x="140.750000" y="56.000000" width="24.000000" height="24.000000" rx="0" ry="0" style="stroke:none;fill:#f44800;"/>
<text x="152.750000" y="70.000000" font-family="Arial" font-size="7" text-anchor="middle" fill="#FFFFFF">1</text>
<circle cx="142.750000" cy="58.000000" r="1"/>
<rect x="70.400000" y="89.000000" width="24.000000" height="24.000000" rx="0" ry="0" style="stroke:none;fill:#cccccc;"/>
<rect x="69.400000" y="88.000000" width="24.000000" height="24.000000" rx="0" ry="0" style="stroke:none;fill:#f44800;"/>
<text x="81.400000" y="102.000000" font-family="Arial" font-size="7" text-anchor="middle" fill="#FFFFFF">0</text>
<circle cx="71.400000" cy="90.000000" r="1"/>
<rect x="70.400000" y="121.000000" width="24.000000" height="24.000000" rx="0" ry="0" style="stroke:none;fill:#cccccc;"/>
<rect x="69.400000" y="120.000000" width="24.000000" height="24.000000" rx="0" ry="0" style="stroke:none;fill:#f44800;"/>
<text x="81.400000" y="134.000000" font-family="Arial" font-size="7" text-anchor="middle" fill="#FFFFFF">2</text>
<circle cx="71.400000" cy="122.000000" r="1"/>
<rect x="110.400000" y="105.000000" width="24.000000" height="24.000000" rx="0" ry="0" style="stroke:none;fill:#cccccc;"/>
<rect x="109.400000" y="104.000000" width="24.000000" height="24.000000" rx="0" ry="0" style="stroke:none;fill:#4B71A1;"/>
<text x="121.400000" y="118.000000" font-family="Arial" font-size="7" text-anchor="middle" fill="#FFFFFF">&lt;</text>
<circle cx="111.400000" cy="106.000000" r="1"/>
<line x1="106.400000" y1="111.000000" x2="109.400000" y2="112.000000"  transform="rotate(0.000000,109.400000,112.000000)" style="stroke: black; stroke-width:0.25;"/>
<line x1="106.400000" y1="113.000000" x2="109.400000" y2="112.000000"  transform="rotate(0.000000,109.400000,112.000000)" style="stroke: black; stroke-width:0.25;"/>
<line x1="106.400000" y1="119.000000" x2="109.400000" y2="120.000000"  transform="rotate(0.000000,109.400000,120.000000)" style="stroke: black; stroke-width:0.25;"/>
<line x1="106.400000" y1="121.000000" x2="109.400000" y2="120.000000"  transform="rotate(0.000000,109.400000,120.000000)" style="stroke: black; stroke-width:0.25;"/>
<rect x="90.400000" y="153.000000" width="24.000000" height="24.000000" rx="0" ry="0" style="stroke:none;fill:#cccccc;"/>
<rect x="89.400000" y="152.000000" width="24.000000" height="24.000000" rx="0" ry="0" style="stroke:none;fill:#f44800;"/>
<text x="101.400000" y="166.000000" font-family="Arial" font-size="7" text-anchor="middle" fill="#FFFFFF">1</text>
<circle cx="91.400000" cy="154.000000" r="1"/>
<a xlink:href="fac-0x7fa542ebc220.svg">
<rect x="25.000000" y="185.000000" width="154.800000" height="24.000000" rx="0" ry="0" style="stroke:none;fill:#cccccc;"/>
<rect x="24.000000" y="184.000000" width="154.800000" height="24.000000" rx="0" ry="0" style="stroke:none;fill:#003366;"/>
</a>
<a xlink:href="fac-0x7fa542ebc220.svg">
<text x="101.400000" y="198.000000" font-family="Arial" font-size="7" text-anchor="middle" fill="#FFFFFF">fac(((2,1.000...nt) : -) : +)(2)(0)</text>
</a>
<circle cx="26.000000" cy="186.000000" r="1"/>
<rect x="203.800000" y="137.000000" width="38.700000" height="24.000000" rx="0" ry="0" style="stroke:none;fill:#cccccc;"/>
<rect x="202.800000" y="136.000000" width="38.700000" height="24.000000" rx="0" ry="0" style="stroke:none;fill:#4B71A1;"/>
<text x="222.150000" y="150.000000" font-family="Arial" font-size="7" text-anchor="middle" fill="#FFFFFF">select2</text>
<circle cx="204.800000" cy="138.000000" r="1"/>
<line x1="199.800000" y1="139.000000" x2="202.800000" y2="140.000000"  transform="rotate(0.000000,202.800000,140.000000)" style="stroke: black; stroke-width:0.25;"/>
<line x1="199.800000" y1="141.000000" x2="202.800000" y2="140.000000"  transform="rotate(0.000000,202.800000,140.000000)" style="stroke: black; stroke-width:0.25;"/>
<line x1="199.800000" y1="147.000000" x2="202.800000" y2="148.000000"  transform="rotate(0.000000,202.800000,148.000000)" style="stroke: black; stroke-width:0.25;"/>
<line x1="199.800000" y1="149.000000" x2="202.800000" y2="148.000000"  transform="rotate(0.000000,202.800000,148.000000)" style="stroke: black; stroke-width:0.25;"/>
<line x1="199.800000" y1="155.000000" x2="202.800000" y2="156.000000"  transform="rotate(0.000000,202.800000,156.000000)" style="stroke: black; stroke-width:0.25;"/>
<line x1="199.800000" y1="157.000000" x2="202.800000" y2="156.000000"  transform="rotate(0.000000,202.800000,156.000000)" style="stroke: black; stroke-width:0.25;"/>
<rect x="70.400000" y="217.000000" width="24.000000" height="24.000000" rx="0" ry="0" style="stroke:none;fill:#cccccc;"/>
<rect x="69.400000" y="216.000000" width="24.000000" height="24.000000" rx="0" ry="0" style="stroke:none;fill:#f44800;"/>
<text x="81.400000" y="230.000000" font-family="Arial" font-size="7" text-anchor="middle" fill="#FFFFFF">1</text>
<circle cx="71.400000" cy="218.000000" r="1"/>
<rect x="70.400000" y="249.000000" width="24.000000" height="24.000000" rx="0" ry="0" style="stroke:none;fill:#cccccc;"/>
<rect x="69.400000" y="248.000000" width="24.000000" height="24.000000" rx="0" ry="0" style="stroke:none;fill:#f44800;"/>
<text x="81.400000" y="262.000000" font-family="Arial" font-size="7" text-anchor="middle" fill="#FFFFFF">2</text>
<circle cx="71.400000" cy="250.000000" r="1"/>
<rect x="110.400000" y="233.000000" width="24.000000" height="24.000000" rx="0" ry="0" style="stroke:none;fill:#cccccc;"/>
<rect x="109.400000" y="232.000000" width="24.000000" height="24.000000" rx="0" ry="0" style="stroke:none;fill:#4B71A1;"/>
<text x="121.400000" y="246.000000" font-family="Arial" font-size="7" text-anchor="middle" fill="#FFFFFF">&lt;</text>
<circle cx="111.400000" cy="234.000000" r="1"/>
<line x1="106.400000" y1="239.000000" x2="109.400000" y2="240.000000"  transform="rotate(0.000000,109.400000,240.000000)" style="stroke: black; stroke-width:0.25;"/>
<line x1="106.400000" y1="241.000000" x2="109.400000" y2="240.000000"  transform="rotate(0.000000,109.400000,240.000000)" style="stroke: black; stroke-width:0.25;"/>
<line x1="106.400000" y1="247.000000" x2="109.400000" y2="248.000000"  transform="rotate(0.000000,109.400000,248.000000)" style="stroke: black; stroke-width:0.25;"/>
<line x1="106.400000" y1="249.000000" x2="109.400000" y2="248.000000"  transform="rotate(0.000000,109.400000,248.000000)" style="stroke: black; stroke-width:0.25;"/>
<rect x="90.400000" y="281.000000" width="24.000000" height="24.000000" rx="0" ry="0" style="stroke:none;fill:#cccccc;"/>
<rect x="89.400000" y="280.000000" width="24.000000" height="24.000000" rx="0" ry="0" style="stroke:none;fill:#f44800;"/>
<text x="101.400000" y="294.000000" font-family="Arial" font-size="7" text-anchor="middle" fill="#FFFFFF">1</text>
<circle cx="91.400000" cy="282.000000" r="1"/>
<a xlink:href="fac-0x7fa542ebf150.svg">
<rect x="25.000000" y="313.000000" width="154.800000" height="24.000000" rx="0" ry="0" style="stroke:none;fill:#cccccc;"/>
<rect x="24.000000" y="312.000000" width="154.800000" height="24.000000" rx="0" ry="0" style="stroke:none;fill:#003366;"/>
</a>
<a xlink:href="fac-0x7fa542ebf150.svg">
<text x="101.400000" y="326.000000" font-family="Arial" font-size="7" text-anchor="middle" fill="#FFFFFF">fac(((2,1.000...nt) : -) : +)(2)(1)</text>
</a>
<circle cx="26.000000" cy="314.000000" r="1"/>
<rect x="203.800000" y="265.000000" width="38.700000" height="24.000000" rx="0" ry="0" style="stroke:none;fill:#cccccc;"/>
<rect x="202.800000" y="264.000000" width="38.700000" height="24.000000" rx="0" ry="0" style="stroke:none;fill:#4B71A1;"/>
<text x="222.150000" y="278.000000" font-family="Arial" font-size="7" text-anchor="middle" fill="#FFFFFF">select2</text>
<circle cx="204.800000" cy="266.000000" r="1"/>
<line x1="199.800000" y1="267.000000" x2="202.800000" y2="268.000000"  transform="rotate(0.000000,202.800000,268.000000)" style="stroke: black; stroke-width:0.25;"/>
<line x1="199.800000" y1="269.000000" x2="202.800000" y2="268.000000"  transform="rotate(0.000000,202.800000,268.000000)" style="stroke: black; stroke-width:0.25;"/>
<line x1="199.800000" y1="275.000000" x2="202.800000" y2="276.000000"  transform="rotate(0.000000,202.800000,276.000000)" style="stroke: black; stroke-width:0.25;"/>
<line x1="199.800000" y1="277.000000" x2="202.800000" y2="276.000000"  transform="rotate(0.000000,202.800000,276.000000)" style="stroke: black; stroke-width:0.25;"/>
<line x1="199.800000" y1="283.000000" x2="202.800000" y2="284.000000"  transform="rotate(0.000000,202.800000,284.000000)" style="stroke: black; stroke-width:0.25;"/>
<line x1="199.800000" y1="285.000000" x2="202.800000" y2="284.000000"  transform="rotate(0.000000,202.800000,284.000000)" style="stroke: black; stroke-width:0.25;"/>
<rect x="258.500000" y="201.000000" width="24.000000" height="24.000000" rx="0" ry="0" style="stroke:none;fill:#cccccc;"/>
<rect x="257.500000" y="200.000000" width="24.000000" height="24.000000" rx="0" ry="0" style="stroke:none;fill:#4B71A1;"/>
<text x="269.500000" y="214.000000" font-family="Arial" font-size="7" text-anchor="middle" fill="#FFFFFF">*</text>
<circle cx="259.500000" cy="202.000000" r="1"/>
<line x1="254.500000" y1="207.000000" x2="257.500000" y2="208.000000"  transform="rotate(0.000000,257.500000,208.000000)" style="stroke: black; stroke-width:0.25;"/>
<line x1="254.500000" y1="209.000000" x2="257.500000" y2="208.000000"  transform="rotate(0.000000,257.500000,208.000000)" style="stroke: black; stroke-width:0.25;"/>
<line x1="254.500000" y1="215.000000" x2="257.500000" y2="216.000000"  transform="rotate(0.000000,257.500000,216.000000)" style="stroke: black; stroke-width:0.25;"/>
<line x1="254.500000" y1="217.000000" x2="257.500000" y2="216.000000"  transform="rotate(0.000000,257.500000,216.000000)" style="stroke: black; stroke-width:0.25;"/>
<rect x="306.500000" y="169.000000" width="38.700000" height="24.000000" rx="0" ry="0" style="stroke:none;fill:#cccccc;"/>
<rect x="305.500000" y="168.000000" width="38.700000" height="24.000000" rx="0" ry="0" style="stroke:none;fill:#4B71A1;"/>
<text x="324.850000" y="182.000000" font-family="Arial" font-size="7" text-anchor="middle" fill="#FFFFFF">select2</text>
<circle cx="307.500000" cy="170.000000" r="1"/>
<line x1="302.500000" y1="171.000000" x2="305.500000" y2="172.000000"  transform="rotate(0.000000,305.500000,172.000000)" style="stroke: black; stroke-width:0.25;"/>
<line x1="302.500000" y1="173.000000" x2="305.500000" y2="172.000000"  transform="rotate(0.000000,305.500000,172.000000)" style="stroke: black; stroke-width:0.25;"/>
<line x1="302.500000" y1="179.000000" x2="305.500000" y2="180.000000"  transform="rotate(0.000000,305.500000,180.000000)" style="stroke: black; stroke-width:0.25;"/>
<line x1="302.500000" y1="181.000000" x2="305.500000" y2="180.000000"  transform="rotate(0.000000,305.500000,180.000000)" style="stroke: black; stroke-width:0.25;"/>
<line x1="302.500000" y1="187.000000" x2="305.500000" y2="188.000000"  transform="rotate(0.000000,305.500000,188.000000)" style="stroke: black; stroke-width:0.25;"/>
<line x1="302.500000" y1="189.000000" x2="305.500000" y2="188.000000"  transform="rotate(0.000000,305.500000,188.000000)" style="stroke: black; stroke-width:0.25;"/>
<line x1="15.000000" y1="15.000000" x2="15.000000" y2="345.000000"  style="stroke: black; stroke-linecap:round; stroke-width:0.25; stroke-dasharray:3,3;"/>
<line x1="15.000000" y1="345.000000" x2="361.200000" y2="345.000000"  style="stroke: black; stroke-linecap:round; stroke-width:0.25; stroke-dasharray:3,3;"/>
<line x1="361.200000" y1="345.000000" x2="361.200000" y2="15.000000"  style="stroke: black; stroke-linecap:round; stroke-width:0.25; stroke-dasharray:3,3;"/>
<line x1="15.000000" y1="15.000000" x2="20.000000" y2="15.000000"  style="stroke: black; stroke-linecap:round; stroke-width:0.25; stroke-dasharray:3,3;"/>
<line x1="129.650000" y1="15.000000" x2="361.200000" y2="15.000000"  style="stroke: black; stroke-linecap:round; stroke-width:0.25; stroke-dasharray:3,3;"/>
<text x="20.000000" y="17.000000" font-family="Arial" font-size="7">facs1(2)(((2,...nt) : -) : +)(2)</text>
<line x1="363.200000" y1="179.000000" x2="366.200000" y2="180.000000"  transform="rotate(0.000000,366.200000,180.000000)" style="stroke: black; stroke-width:0.25;"/>
<line x1="363.200000" y1="181.000000" x2="366.200000" y2="180.000000"  transform="rotate(0.000000,366.200000,180.000000)" style="stroke: black; stroke-width:0.25;"/>
<line x1="93.400000" y1="100.000000" x2="97.400000" y2="100.000000"  style="stroke:black; stroke-linecap:round; stroke-width:0.25;"/>
<line x1="93.400000" y1="132.000000" x2="97.400000" y2="132.000000"  style="stroke:black; stroke-linecap:round; stroke-width:0.25;"/>
<line x1="93.400000" y1="228.000000" x2="97.400000" y2="228.000000"  style="stroke:black; stroke-linecap:round; stroke-width:0.25;"/>
<line x1="93.400000" y1="260.000000" x2="97.400000" y2="260.000000"  style="stroke:black; stroke-linecap:round; stroke-width:0.25;"/>
<line x1="97.400000" y1="100.000000" x2="105.400000" y2="100.000000"  style="stroke:black; stroke-linecap:round; stroke-width:0.25;"/>
<line x1="97.400000" y1="120.000000" x2="105.400000" y2="120.000000"  style="stroke:black; stroke-linecap:round; stroke-width:0.25;"/>
<line x1="97.400000" y1="132.000000" x2="97.400000" y2="120.000000"  style="stroke:black; stroke-linecap:round; stroke-width:0.25;"/>
<line x1="97.400000" y1="132.000000" x2="97.400000" y2="132.000000"  style="stroke:black; stroke-linecap:round; stroke-width:0.25;"/>
<line x1="97.400000" y1="228.000000" x2="105.400000" y2="228.000000"  style="stroke:black; stroke-linecap:round; stroke-width:0.25;"/>
<line x1="97.400000" y1="248.000000" x2="105.400000" y2="248.000000"  style="stroke:black; stroke-linecap:round; stroke-width:0.25;"/>
<line x1="97.400000" y1="260.000000" x2="97.400000" y2="248.000000"  style="stroke:black; stroke-linecap:round; stroke-width:0.25;"/>
<line x1="97.400000" y1="260.000000" x2="97.400000" y2="260.000000"  style="stroke:black; stroke-linecap:round; stroke-width:0.25;"/>
<line x1="105.400000" y1="100.000000" x2="105.400000" y2="112.000000"  style="stroke:black; stroke-linecap:round; stroke-width:0.25;"/>
<line x1="105.400000" y1="112.000000" x2="105.400000" y2="112.000000"  style="stroke:black; stroke-linecap:round; stroke-width:0.25;"/>
<line x1="105.400000" y1="112.000000" x2="109.400000" y2="112.000000"  style="stroke:black; stroke-linecap:round; stroke-width:0.25;"/>
<line x1="105.400000" y1="120.000000" x2="109.400000" y2="120.000000"  style="stroke:black; stroke-linecap:round; stroke-width:0.25;"/>
<line x1="105.400000" y1="228.000000" x2="105.400000" y2="240.000000"  style="stroke:black; stroke-linecap:round; stroke-width:0.25;"/>
<line x1="105.400000" y1="240.000000" x2="105.400000" y2="240.000000"  style="stroke:black; stroke-linecap:round; stroke-width:0.25;"/>
<line x1="105.400000" y1="240.000000" x2="109.400000" y2="240.000000"  style="stroke:black; stroke-linecap:round; stroke-width:0.25;"/>
<line x1="105.400000" y1="248.000000" x2="109.400000" y2="248.000000"  style="stroke:black; stroke-linecap:round; stroke-width:0.25;"/>
<line x1="113.400000" y1="164.000000" x2="117.400000" y2="164.000000"  style="stroke:black; stroke-linecap:round; stroke-width:0.25;"/>
<line x1="113.400000" y1="292.000000" x2="117.400000" y2="292.000000"  style="stroke:black; stroke-linecap:round; stroke-width:0.25;"/>
<line x1="117.400000" y1="164.000000" x2="182.800000" y2="164.000000"  style="stroke:black; stroke-linecap:round; stroke-width:0.25;"/>
<line x1="117.400000" y1="292.000000" x2="182.800000" y2="292.000000"  style="stroke:black; stroke-linecap:round; stroke-width:0.25;"/>
<line x1="133.400000" y1="116.000000" x2="137.400000" y2="116.000000"  style="stroke:black; stroke-linecap:round; stroke-width:0.25;"/>
<line x1="133.400000" y1="244.000000" x2="137.400000" y2="244.000000"  style="stroke:black; stroke-linecap:round; stroke-width:0.25;"/>
<line x1="137.400000" y1="116.000000" x2="182.800000" y2="116.000000"  style="stroke:black; stroke-linecap:round; stroke-width:0.25;"/>
<line x1="137.400000" y1="244.000000" x2="182.800000" y2="244.000000"  style="stroke:black; stroke-linecap:round; stroke-width:0.25;"/>
<line x1="164.750000" y1="36.000000" x2="168.750000" y2="36.000000"  style="stroke:black; stroke-linecap:round; stroke-width:0.25;"/>
<line x1="164.750000" y1="68.000000" x2="168.750000" y2="68.000000"  style="stroke:black; stroke-linecap:round; stroke-width:0.25;"/>
<line x1="168.750000" y1="36.000000" x2="285.500000" y2="36.000000"  style="stroke:black; stroke-linecap:round; stroke-width:0.25;"/>
<line x1="168.750000" y1="68.000000" x2="285.500000" y2="68.000000"  style="stroke:black; stroke-linecap:round; stroke-width:0.25;"/>
<line x1="178.800000" y1="196.000000" x2="182.800000" y2="196.000000"  style="stroke:black; stroke-linecap:round; stroke-width:0.25;"/>
<line x1="178.800000" y1="324.000000" x2="182.800000" y2="324.000000"  style="stroke:black; stroke-linecap:round; stroke-width:0.25;"/>
<line x1="182.800000" y1="116.000000" x2="198.800000" y2="116.000000"  style="stroke:black; stroke-linecap:round; stroke-width:0.25;"/>
<line x1="182.800000" y1="244.000000" x2="198.800000" y2="244.000000"  style="stroke:black; stroke-linecap:round; stroke-width:0.25;"/>
<line x1="182.800000" y1="148.000000" x2="198.800000" y2="148.000000"  style="stroke:black; stroke-linecap:round; stroke-width:0.25;"/>
<line x1="182.800000" y1="164.000000" x2="182.800000" y2="148.000000"  style="stroke:black; stroke-linecap:round; stroke-width:0.25;"/>
<line x1="182.800000" y1="164.000000" x2="182.800000" y2="164.000000"  style="stroke:black; stroke-linecap:round; stroke-width:0.25;"/>
<line x1="182.800000" y1="196.000000" x2="190.800000" y2="196.000000"  style="stroke:black; stroke-linecap:round; stroke-width:0.25;"/>
<line x1="182.800000" y1="276.000000" x2="198.800000" y2="276.000000"  style="stroke:black; stroke-linecap:round; stroke-width:0.25;"/>
<line x1="182.800000" y1="292.000000" x2="182.800000" y2="276.000000"  style="stroke:black; stroke-linecap:round; stroke-width:0.25;"/>
<line x1="182.800000" y1="292.000000" x2="182.800000" y2="292.000000"  style="stroke:black; stroke-linecap:round; stroke-width:0.25;"/>
<line x1="182.800000" y1="324.000000" x2="190.800000" y2="324.000000"  style="stroke:black; stroke-linecap:round; stroke-width:0.25;"/>
<line x1="190.800000" y1="156.000000" x2="198.800000" y2="156.000000"  style="stroke:black; stroke-linecap:round; stroke-width:0.25;"/>
<line x1="190.800000" y1="196.000000" x2="190.800000" y2="156.000000"  style="stroke:black; stroke-linecap:round; stroke-width:0.25;"/>
<line x1="190.800000" y1="284.000000" x2="198.800000" y2="284.000000"  style="stroke:black; stroke-linecap:round; stroke-width:0.25;"/>
<line x1="190.800000" y1="324.000000" x2="190.800000" y2="284.000000"  style="stroke:black; stroke-linecap:round; stroke-width:0.25;"/>
<line x1="198.800000" y1="116.000000" x2="198.800000" y2="140.000000"  style="stroke:black; stroke-linecap:round; stroke-width:0.25;"/>
<line x1="198.800000" y1="140.000000" x2="198.800000" y2="140.000000"  style="stroke:black; stroke-linecap:round; stroke-width:0.25;"/>
<line x1="198.800000" y1="244.000000" x2="198.800000" y2="268.000000"  style="stroke:black; stroke-linecap:round; stroke-width:0.25;"/>
<line x1="198.800000" y1="268.000000" x2="198.800000" y2="268.000000"  style="stroke:black; stroke-linecap:round; stroke-width:0.25;"/>
<line x1="198.800000" y1="140.000000" x2="202.800000" y2="140.000000"  style="stroke:black; stroke-linecap:round; stroke-width:0.25;"/>
<line x1="198.800000" y1="148.000000" x2="202.800000" y2="148.000000"  style="stroke:black; stroke-linecap:round; stroke-width:0.25;"/>
<line x1="198.800000" y1="156.000000" x2="202.800000" y2="156.000000"  style="stroke:black; stroke-linecap:round; stroke-width:0.25;"/>
<line x1="198.800000" y1="268.000000" x2="202.800000" y2="268.000000"  style="stroke:black; stroke-linecap:round; stroke-width:0.25;"/>
<line x1="198.800000" y1="276.000000" x2="202.800000" y2="276.000000"  style="stroke:black; stroke-linecap:round; stroke-width:0.25;"/>
<line x1="198.800000" y1="284.000000" x2="202.800000" y2="284.000000"  style="stroke:black; stroke-linecap:round; stroke-width:0.25;"/>
<line x1="241.500000" y1="148.000000" x2="245.500000" y2="148.000000"  style="stroke:black; stroke-linecap:round; stroke-width:0.25;"/>
<line x1="241.500000" y1="276.000000" x2="245.500000" y2="276.000000"  style="stroke:black; stroke-linecap:round; stroke-width:0.25;"/>
<line x1="245.500000" y1="148.000000" x2="253.500000" y2="148.000000"  style="stroke:black; stroke-linecap:round; stroke-width:0.25;"/>
<line x1="245.500000" y1="216.000000" x2="253.500000" y2="216.000000"  style="stroke:black; stroke-linecap:round; stroke-width:0.25;"/>
<line x1="245.500000" y1="276.000000" x2="245.500000" y2="216.000000"  style="stroke:black; stroke-linecap:round; stroke-width:0.25;"/>
<line x1="245.500000" y1="276.000000" x2="245.500000" y2="276.000000"  style="stroke:black; stroke-linecap:round; stroke-width:0.25;"/>
<line x1="253.500000" y1="148.000000" x2="253.500000" y2="208.000000"  style="stroke:black; stroke-linecap:round; stroke-width:0.25;"/>
<line x1="253.500000" y1="208.000000" x2="253.500000" y2="208.000000"  style="stroke:black; stroke-linecap:round; stroke-width:0.25;"/>
<line x1="253.500000" y1="208.000000" x2="257.500000" y2="208.000000"  style="stroke:black; stroke-linecap:round; stroke-width:0.25;"/>
<line x1="253.500000" y1="216.000000" x2="257.500000" y2="216.000000"  style="stroke:black; stroke-linecap:round; stroke-width:0.25;"/>
<line x1="281.500000" y1="212.000000" x2="285.500000" y2="212.000000"  style="stroke:black; stroke-linecap:round; stroke-width:0.25;"/>
<line x1="285.500000" y1="36.000000" x2="301.500000" y2="36.000000"  style="stroke:black; stroke-linecap:round; stroke-width:0.25;"/>
<line x1="285.500000" y1="68.000000" x2="293.500000" y2="68.000000"  style="stroke:black; stroke-linecap:round; stroke-width:0.25;"/>
<line x1="285.500000" y1="188.000000" x2="301.500000" y2="188.000000"  style="stroke:black; stroke-linecap:round; stroke-width:0.25;"/>
<line x1="285.500000" y1="212.000000" x2="285.500000" y2="188.000000"  style="stroke:black; stroke-linecap:round; stroke-width:0.25;"/>
<line x1="285.500000" y1="212.000000" x2="285.500000" y2="212.000000"  style="stroke:black; stroke-linecap:round; stroke-width:0.25;"/>
<line x1="293.500000" y1="68.000000" x2="293.500000" y2="180.000000"  style="stroke:black; stroke-linecap:round; stroke-width:0.25;"/>
<line x1="293.500000" y1="180.000000" x2="301.500000" y2="180.000000"  style="stroke:black; stroke-linecap:round; stroke-width:0.25;"/>
<line x1="301.500000" y1="36.000000" x2="301.500000" y2="172.000000"  style="stroke:black; stroke-linecap:round; stroke-width:0.25;"/>
<line x1="301.500000" y1="172.000000" x2="301.500000" y2="172.000000"  style="stroke:black; stroke-linecap:round; stroke-width:0.25;"/>
<line x1="301.500000" y1="172.000000" x2="305.500000" y2="172.000000"  style="stroke:black; stroke-linecap:round; stroke-width:0.25;"/>
<line x1="301.500000" y1="180.000000" x2="305.500000" y2="180.000000"  style="stroke:black; stroke-linecap:round; stroke-width:0.25;"/>
<line x1="301.500000" y1="188.000000" x2="305.500000" y2="188.000000"  style="stroke:black; stroke-linecap:round; stroke-width:0.25;"/>
<line x1="344.200000" y1="180.000000" x2="348.200000" y2="180.000000"  style="stroke:black; stroke-linecap:round; stroke-width:0.25;"/>
<line x1="348.200000" y1="180.000000" x2="348.200000" y2="180.000000"  style="stroke:black; stroke-linecap:round; stroke-width:0.25;"/>
<line x1="348.200000" y1="180.000000" x2="352.200000" y2="180.000000"  style="stroke:black; stroke-linecap:round; stroke-width:0.25;"/>
<line x1="352.200000" y1="180.000000" x2="356.200000" y2="180.000000"  style="stroke:black; stroke-linecap:round; stroke-width:0.25;"/>
<line x1="356.200000" y1="180.000000" x2="366.200000" y2="180.000000"  style="stroke:black; stroke-linecap:round; stroke-width:0.25;"/>
</svg>
