<?xml version="1.0"?>
<svg xmlns="http://www.w3.org/2000/svg" xmlns:xlink="http://www.w3.org/1999/xlink" viewBox="0 0 376.200000 420.000000" width="188.100000mm" height="210.000000mm" version="1.1">
<a xlink:href="h-0x7fed625d15b0.svg">
<rect x="1.000000" y="1.000000" width="375.200000" height="419.000000" rx="0" ry="0" style="stroke:none;fill:#cccccc;"/>
<rect x="0.000000" y="0.000000" width="375.200000" height="419.000000" rx="0" ry="0" style="stroke:none;fill:#ffffff;"/>
</a>
<text x="10.000000" y="7.000000" font-family="Arial" font-size="7"></text>
<rect x="141.750000" y="35.000000" width="24.000000" height="24.000000" rx="0" ry="0" style="stroke:none;fill:#cccccc;"/>
<rect x="140.750000" y="34.000000" width="24.000000" height="24.000000" rx="0" ry="0" style="stroke:none;fill:#f44800;"/>
<text x="152.750000" y="48.000000" font-family="Arial" font-size="7" text-anchor="middle" fill="#FFFFFF">2</text>
<circle cx="142.750000" cy="36.000000" r="1"/>
<line x1="131.750000" y1="25.000000" x2="131.750000" y2="67.000000"  style="stroke: black; stroke-linecap:round; stroke-width:0.25; stroke-dasharray:3,3;"/>
<line x1="131.750000" y1="67.000000" x2="173.750000" y2="67.000000"  style="stroke: black; stroke-linecap:round; stroke-width:0.25; stroke-dasharray:3,3;"/>
<line x1="173.750000" y1="67.000000" x2="173.750000" y2="25.000000"  style="stroke: black; stroke-linecap:round; stroke-width:0.25; stroke-dasharray:3,3;"/>
<line x1="131.750000" y1="25.000000" x2="136.750000" y2="25.000000"  style="stroke: black; stroke-linecap:round; stroke-width:0.25; stroke-dasharray:3,3;"/>
<line x1="159.325000" y1="25.000000" x2="173.750000" y2="25.000000"  style="stroke: black; stroke-linecap:round; stroke-width:0.25; stroke-dasharray:3,3;"/>
<text x="136.750000" y="27.000000" font-family="Arial" font-size="7">ratio</text>
<rect x="141.750000" y="77.000000" width="24.000000" height="24.000000" rx="0" ry="0" style="stroke:none;fill:#cccccc;"/>
<rect x="140.750000" y="76.000000" width="24.000000" height="24.000000" rx="0" ry="0" style="stroke:none;fill:#f44800;"/>
<text x="152.750000" y="90.000000" font-family="Arial" font-size="7" text-anchor="middle" fill="#FFFFFF">1</text>
<circle cx="142.750000" cy="78.000000" r="1"/>
<rect x="70.400000" y="109.000000" width="24.000000" height="24.000000" rx="0" ry="0" style="stroke:none;fill:#cccccc;"/>
<rect x="69.400000" y="108.000000" width="24.000000" height="24.000000" rx="0" ry="0" style="stroke:none;fill:#f44800;"/>
<text x="81.400000" y="122.000000" font-family="Arial" font-size="7" text-anchor="middle" fill="#FFFFFF">0</text>
<circle cx="71.400000" cy="110.000000" r="1"/>
<rect x="70.400000" y="151.000000" width="24.000000" height="24.000000" rx="0" ry="0" style="stroke:none;fill:#cccccc;"/>
<rect x="69.400000" y="150.000000" width="24.000000" height="24.000000" rx="0" ry="0" style="stroke:none;fill:#f44800;"/>
<text x="81.400000" y="164.000000" font-family="Arial" font-size="7" text-anchor="middle" fill="#FFFFFF">2</text>
<circle cx="71.400000" cy="152.000000" r="1"/>
<line x1="60.400000" y1="141.000000" x2="60.400000" y2="183.000000"  style="stroke: black; stroke-linecap:round; stroke-width:0.25; stroke-dasharray:3,3;"/>
<line x1="60.400000" y1="183.000000" x2="102.400000" y2="183.000000"  style="stroke: black; stroke-linecap:round; stroke-width:0.25; stroke-dasharray:3,3;"/>
<line x1="102.400000" y1="183.000000" x2="102.400000" y2="141.000000"  style="stroke: black; stroke-linecap:round; stroke-width:0.25; stroke-dasharray:3,3;"/>
<line x1="60.400000" y1="141.000000" x2="65.400000" y2="141.000000"  style="stroke: black; stroke-linecap:round; stroke-width:0.25; stroke-dasharray:3,3;"/>
<line x1="87.975000" y1="141.000000" x2="102.400000" y2="141.000000"  style="stroke: black; stroke-linecap:round; stroke-width:0.25; stroke-dasharray:3,3;"/>
<text x="65.400000" y="143.000000" font-family="Arial" font-size="7">ratio</text>
<rect x="120.400000" y="135.000000" width="24.000000" height="24.000000" rx="0" ry="0" style="stroke:none;fill:#cccccc;"/>
<rect x="119.400000" y="134.000000" width="24.000000" height="24.000000" rx="0" ry="0" style="stroke:none;fill:#4B71A1;"/>
<text x="131.400000" y="148.000000" font-family="Arial" font-size="7" text-anchor="middle" fill="#FFFFFF">&lt;</text>
<circle cx="121.400000" cy="136.000000" r="1"/>
<line x1="116.400000" y1="141.000000" x2="119.400000" y2="142.000000"  transform="rotate(0.000000,119.400000,142.000000)" style="stroke: black; stroke-width:0.25;"/>
<line x1="116.400000" y1="143.000000" x2="119.400000" y2="142.000000"  transform="rotate(0.000000,119.400000,142.000000)" style="stroke: black; stroke-width:0.25;"/>
<line x1="116.400000" y1="149.000000" x2="119.400000" y2="150.000000"  transform="rotate(0.000000,119.400000,150.000000)" style="stroke: black; stroke-width:0.25;"/>
<line x1="116.400000" y1="151.000000" x2="119.400000" y2="150.000000"  transform="rotate(0.000000,119.400000,150.000000)" style="stroke: black; stroke-width:0.25;"/>
<rect x="90.400000" y="193.000000" width="24.000000" height="24.000000" rx="0" ry="0" style="stroke:none;fill:#cccccc;"/>
<rect x="89.400000" y="192.000000" width="24.000000" height="24.000000" rx="0" ry="0" style="stroke:none;fill:#f44800;"/>
<text x="101.400000" y="206.000000" font-family="Arial" font-size="7" text-anchor="middle" fill="#FFFFFF">1</text>
<circle cx="91.400000" cy="194.000000" r="1"/>
<a xlink:href="fac-0x7fed625c5440.svg">
<rect x="25.000000" y="225.000000" width="154.800000" height="24.000000" rx="0" ry="0" style="stroke:none;fill:#cccccc;"/>
<rect x="24.000000" y="224.000000" width="154.800000" height="24.000000" rx="0" ry="0" style="stroke:none;fill:#003366;"/>
</a>
<a xlink:href="fac-0x7fed625c5440.svg">
<text x="101.400000" y="238.000000" font-family="Arial" font-size="7" text-anchor="middle" fill="#FFFFFF">fac(((2,1.000...nt) : -) : +)(2)(0)</text>
</a>
<circle cx="26.000000" cy="226.000000" r="1"/>
<rect x="203.800000" y="167.000000" width="38.700000" height="24.000000" rx="0" ry="0" style="stroke:none;fill:#cccccc;"/>
<rect x="202.800000" y="166.000000" width="38.700000" height="24.000000" rx="0" ry="0" style="stroke:none;fill:#4B71A1;"/>
<text x="222.150000" y="180.000000" font-family="Arial" font-size="7" text-anchor="middle" fill="#FFFFFF">select2</text>
<circle cx="204.800000" cy="168.000000" r="1"/>
<line x1="199.800000" y1="169.000000" x2="202.800000" y2="170.000000"  transform="rotate(0.000000,202.800000,170.000000)" style="stroke: black; stroke-width:0.25;"/>
<line x1="199.800000" y1="171.000000" x2="202.800000" y2="170.000000"  transform="rotate(0.000000,202.800000,170.000000)" style="stroke: black; stroke-width:0.25;"/>
<line x1="199.800000" y1="177.000000" x2="202.800000" y2="178.000000"  transform="rotate(0.000000,202.800000,178.000000)" style="stroke: black; stroke-width:0.25;"/>
<line x1="199.800000" y1="179.000000" x2="202.800000" y2="178.000000"  transform="rotate(0.000000,202.800000,178.000000)" style="stroke: black; stroke-width:0.25;"/>
<line x1="199.800000" y1="185.000000" x2="202.800000" y2="186.000000"  transform="rotate(0.000000,202.800000,186.000000)" style="stroke: black; stroke-width:0.25;"/>
<line x1="199.800000" y1="187.000000" x2="202.800000" y2="186.000000"  transform="rotate(0.000000,202.800000,186.000000)" style="stroke: black; stroke-width:0.25;"/>
<rect x="70.400000" y="257.000000" width="24.000000" height="24.000000" rx="0" ry="0" style="stroke:none;fill:#cccccc;"/>
<rect x="69.400000" y="256.000000" width="24.000000" height="24.000000" rx="0" ry="0" style="stroke:none;fill:#f44800;"/>
<text x="81.400000" y="270.000000" font-family="Arial" font-size="7" text-anchor="middle" fill="#FFFFFF">1</text>
<circle cx="71.400000" cy="258.000000" r="1"/>
<rect x="70.400000" y="299.000000" width="24.000000" height="24.000000" rx="0" ry="0" style="stroke:none;fill:#cccccc;"/>
<rect x="69.400000" y="298.000000" width="24.000000" height="24.000000" rx="0" ry="0" style="stroke:none;fill:#f44800;"/>
<text x="81.400000" y="312.000000" font-family="Arial" font-size="7" text-anchor="middle" fill="#FFFFFF">2</text>
<circle cx="71.400000" cy="300.000000" r="1"/>
<line x1="60.400000" y1="289.000000" x2="60.400000" y2="331.000000"  style="stroke: black; stroke-linecap:round; stroke-width:0.25; stroke-dasharray:3,3;"/>
<line x1="60.400000" y1="331.000000" x2="102.400000" y2="331.000000"  style="stroke: black; stroke-linecap:round; stroke-width:0.25; stroke-dasharray:3,3;"/>
<line x1="102.400000" y1="331.000000" x2="102.400000" y2="289.000000"  style="stroke: black; stroke-linecap:round; stroke-width:0.25; stroke-dasharray:3,3;"/>
<line x1="60.400000" y1="289.000000" x2="65.400000" y2="289.000000"  style="stroke: black; stroke-linecap:round; stroke-width:0.25; stroke-dasharray:3,3;"/>
<line x1="87.975000" y1="289.000000" x2="102.400000" y2="289.000000"  style="stroke: black; stroke-linecap:round; stroke-width:0.25; stroke-dasharray:3,3;"/>
<text x="65.400000" y="291.000000" font-family="Arial" font-size="7">ratio</text>
<rect x="120.400000" y="283.000000" width="24.000000" height="24.000000" rx="0" ry="0" style="stroke:none;fill:#cccccc;"/>
<rect x="119.400000" y="282.000000" width="24.000000" height="24.000000" rx="0" ry="0" style="stroke:none;fill:#4B71A1;"/>
<text x="131.400000" y="296.000000" font-family="Arial" font-size="7" text-anchor="middle" fill="#FFFFFF">&lt;</text>
<circle cx="121.400000" cy="284.000000" r="1"/>
<line x1="116.400000" y1="289.000000" x2="119.400000" y2="290.000000"  transform="rotate(0.000000,119.400000,290.000000)" style="stroke: black; stroke-width:0.25;"/>
<line x1="116.400000" y1="291.000000" x2="119.400000" y2="290.000000"  transform="rotate(0.000000,119.400000,290.000000)" style="stroke: black; stroke-width:0.25;"/>
<line x1="116.400000" y1="297.000000" x2="119.400000" y2="298.000000"  transform="rotate(0.000000,119.400000,298.000000)" style="stroke: black; stroke-width:0.25;"/>
<line x1="116.400000" y1="299.000000" x2="119.400000" y2="298.000000"  transform="rotate(0.000000,119.400000,298.000000)" style="stroke: black; stroke-width:0.25;"/>
<rect x="90.400000" y="341.000000" width="24.000000" height="24.000000" rx="0" ry="0" style="stroke:none;fill:#cccccc;"/>
<rect x="89.400000" y="340.000000" width="24.000000" height="24.000000" rx="0" ry="0" style="stroke:none;fill:#f44800;"/>
<text x="101.400000" y="354.000000" font-family="Arial" font-size="7" text-anchor="middle" fill="#FFFFFF">1</text>
<circle cx="91.400000" cy="342.000000" r="1"/>
<a xlink:href="fac-0x7fed625c8370.svg">
<rect x="25.000000" y="373.000000" width="154.800000" height="24.000000" rx="0" ry="0" style="stroke:none;fill:#cccccc;"/>
<rect x="24.000000" y="372.000000" width="154.800000" height="24.000000" rx="0" ry="0" style="stroke:none;fill:#003366;"/>
</a>
<a xlink:href="fac-0x7fed625c8370.svg">
<text x="101.400000" y="386.000000" font-family="Arial" font-size="7" text-anchor="middle" fill="#FFFFFF">fac(((2,1.000...nt) : -) : +)(2)(1)</text>
</a>
<circle cx="26.000000" cy="374.000000" r="1"/>
<rect x="203.800000" y="315.000000" width="38.700000" height="24.000000" rx="0" ry="0" style="stroke:none;fill:#cccccc;"/>
<rect x="202.800000" y="314.000000" width="38.700000" height="24.000000" rx="0" ry="0" style="stroke:none;fill:#4B71A1;"/>
<text x="222.150000" y="328.000000" font-family="Arial" font-size="7" text-anchor="middle" fill="#FFFFFF">select2</text>
<circle cx="204.800000" cy="316.000000" r="1"/>
<line x1="199.800000" y1="317.000000" x2="202.800000" y2="318.000000"  transform="rotate(0.000000,202.800000,318.000000)" style="stroke: black; stroke-width:0.25;"/>
<line x1="199.800000" y1="319.000000" x2="202.800000" y2="318.000000"  transform="rotate(0.000000,202.800000,318.000000)" style="stroke: black; stroke-width:0.25;"/>
<line x1="199.800000" y1="325.000000" x2="202.800000" y2="326.000000"  transform="rotate(0.000000,202.800000,326.000000)" style="stroke: black; stroke-width:0.25;"/>
<line x1="199.800000" y1="327.000000" x2="202.800000" y2="326.000000"  transform="rotate(0.000000,202.800000,326.000000)" style="stroke: black; stroke-width:0.25;"/>
<line x1="199.800000" y1="333.000000" x2="202.800000" y2="334.000000"  transform="rotate(0.000000,202.800000,334.000000)" style="stroke: black; stroke-width:0.25;"/>
<line x1="199.800000" y1="335.000000" x2="202.800000" y2="334.000000"  transform="rotate(0.000000,202.800000,334.000000)" style="stroke: black; stroke-width:0.25;"/>
<rect x="258.500000" y="241.000000" width="24.000000" height="24.000000" rx="0" ry="0" style="stroke:none;fill:#cccccc;"/>
<rect x="257.500000" y="240.000000" width="24.000000" height="24.000000" rx="0" ry="0" style="stroke:none;fill:#4B71A1;"/>
<text x="269.500000" y="254.000000" font-family="Arial" font-size="7" text-anchor="middle" fill="#FFFFFF">*</text>
<circle cx="259.500000" cy="242.000000" r="1"/>
<line x1="254.500000" y1="247.000000" x2="257.500000" y2="248.000000"  transform="rotate(0.000000,257.500000,248.000000)" style="stroke: black; stroke-width:0.25;"/>
<line x1="254.500000" y1="249.000000" x2="257.500000" y2="248.000000"  transform="rotate(0.000000,257.500000,248.000000)" style="stroke: black; stroke-width:0.25;"/>
<line x1="254.500000" y1="255.000000" x2="257.500000" y2="256.000000"  transform="rotate(0.000000,257.500000,256.000000)" style="stroke: black; stroke-width:0.25;"/>
<line x1="254.500000" y1="257.000000" x2="257.500000" y2="256.000000"  transform="rotate(0.000000,257.500000,256.000000)" style="stroke: black; stroke-width:0.25;"/>
<rect x="306.500000" y="199.000000" width="38.700000" height="24.000000" rx="0" ry="0" style="stroke:none;fill:#cccccc;"/>
<rect x="305.500000" y="198.000000" width="38.700000" height="24.000000" rx="0" ry="0" style="stroke:none;fill:#4B71A1;"/>
<text x="324.850000" y="212.000000" font-family="Arial" font-size="7" text-anchor="middle" fill="#FFFFFF">select2</text>
<circle cx="307.500000" cy="200.000000" r="1"/>
<line x1="302.500000" y1="201.000000" x2="305.500000" y2="202.000000"  transform="rotate(0.000000,305.500000,202.000000)" style="stroke: black; stroke-width:0.25;"/>
<line x1="302.500000" y1="203.000000" x2="305.500000" y2="202.000000"  transform="rotate(0.000000,305.500000,202.000000)" style="stroke: black; stroke-width:0.25;"/>
<line x1="302.500000" y1="209.000000" x2="305.500000" y2="210.000000"  transform="rotate(0.000000,305.500000,210.000000)" style="stroke: black; stroke-width:0.25;"/>
<line x1="302.500000" y1="211.000000" x2="305.500000" y2="210.000000"  transform="rotate(0.000000,305.500000,210.000000)" style="stroke: black; stroke-width:0.25;"/>
<line x1="302.500000" y1="217.000000" x2="305.500000" y2="218.000000"  transform="rotate(0.000000,305.500000,218.000000)" style="stroke: black; stroke-width:0.25;"/>
<line x1="302.500000" y1="219.000000" x2="305.500000" y2="218.000000"  transform="rotate(0.000000,305.500000,218.000000)" style="stroke: black; stroke-width:0.25;"/>
<line x1="15.000000" y1="15.000000" x2="15.000000" y2="405.000000"  style="stroke: black; stroke-linecap:round; stroke-width:0.25; stroke-dasharray:3,3;"/>
<line x1="15.000000" y1="405.000000" x2="361.200000" y2="405.000000"  style="stroke: black; stroke-linecap:round; stroke-width:0.25; stroke-dasharray:3,3;"/>
<line x1="361.200000" y1="405.000000" x2="361.200000" y2="15.000000"  style="stroke: black; stroke-linecap:round; stroke-width:0.25; stroke-dasharray:3,3;"/>
<line x1="15.000000" y1="15.000000" x2="20.000000" y2="15.000000"  style="stroke: black; stroke-linecap:round; stroke-width:0.25; stroke-dasharray:3,3;"/>
<line x1="129.650000" y1="15.000000" x2="361.200000" y2="15.000000"  style="stroke: black; stroke-linecap:round; stroke-width:0.25; stroke-dasharray:3,3;"/>
<text x="20.000000" y="17.000000" font-family="Arial" font-size="7">facs1(2)(((2,...nt) : -) : +)(2)</text>
<line x1="363.200000" y1="209.000000" x2="366.200000" y2="210.000000"  transform="rotate(0.000000,366.200000,210.000000)" style="stroke: black; stroke-width:0.25;"/>
<line x1="363.200000" y1="211.000000" x2="366.200000" y2="210.000000"  transform="rotate(0.000000,366.200000,210.000000)" style="stroke: black; stroke-width:0.25;"/>
<line x1="93.400000" y1="120.000000" x2="97.400000" y2="120.000000"  style="stroke:black; stroke-linecap:round; stroke-width:0.25;"/>
<line x1="93.400000" y1="162.000000" x2="97.400000" y2="162.000000"  style="stroke:black; stroke-linecap:round; stroke-width:0.25;"/>
<line x1="93.400000" y1="268.000000" x2="97.400000" y2="268.000000"  style="stroke:black; stroke-linecap:round; stroke-width:0.25;"/>
<line x1="93.400000" y1="310.000000" x2="97.400000" y2="310.000000"  style="stroke:black; stroke-linecap:round; stroke-width:0.25;"/>
<line x1="97.400000" y1="120.000000" x2="107.400000" y2="120.000000"  style="stroke:black; stroke-linecap:round; stroke-width:0.25;"/>
<line x1="97.400000" y1="162.000000" x2="107.400000" y2="162.000000"  style="stroke:black; stroke-linecap:round; stroke-width:0.25;"/>
<line x1="97.400000" y1="268.000000" x2="107.400000" y2="268.000000"  style="stroke:black; stroke-linecap:round; stroke-width:0.25;"/>
<line x1="97.400000" y1="310.000000" x2="107.400000" y2="310.000000"  style="stroke:black; stroke-linecap:round; stroke-width:0.25;"/>
<line x1="107.400000" y1="120.000000" x2="115.400000" y2="120.000000"  style="stroke:black; stroke-linecap:round; stroke-width:0.25;"/>
<line x1="107.400000" y1="150.000000" x2="115.400000" y2="150.000000"  style="stroke:black; stroke-linecap:round; stroke-width:0.25;"/>
<line x1="107.400000" y1="162.000000" x2="107.400000" y2="150.000000"  style="stroke:black; stroke-linecap:round; stroke-width:0.25;"/>
<line x1="107.400000" y1="162.000000" x2="107.400000" y2="162.000000"  style="stroke:black; stroke-linecap:round; stroke-width:0.25;"/>
<line x1="107.400000" y1="268.000000" x2="115.400000" y2="268.000000"  style="stroke:black; stroke-linecap:round; stroke-width:0.25;"/>
<line x1="107.400000" y1="298.000000" x2="115.400000" y2="298.000000"  style="stroke:black; stroke-linecap:round; stroke-width:0.25;"/>
<line x1="107.400000" y1="310.000000" x2="107.400000" y2="298.000000"  style="stroke:black; stroke-linecap:round; stroke-width:0.25;"/>
<line x1="107.400000" y1="310.000000" x2="107.400000" y2="310.000000"  style="stroke:black; stroke-linecap:round; stroke-width:0.25;"/>
<line x1="113.400000" y1="204.000000" x2="117.400000" y2="204.000000"  style="stroke:black; stroke-linecap:round; stroke-width:0.25;"/>
<line x1="113.400000" y1="352.000000" x2="117.400000" y2="352.000000"  style="stroke:black; stroke-linecap:round; stroke-width:0.25;"/>
<line x1="115.400000" y1="120.000000" x2="115.400000" y2="142.000000"  style="stroke:black; stroke-linecap:round; stroke-width:0.25;"/>
<line x1="115.400000" y1="142.000000" x2="115.400000" y2="142.000000"  style="stroke:black; stroke-linecap:round; stroke-width:0.25;"/>
<line x1="115.400000" y1="142.000000" x2="119.400000" y2="142.000000"  style="stroke:black; stroke-linecap:round; stroke-width:0.25;"/>
<line x1="115.400000" y1="150.000000" x2="119.400000" y2="150.000000"  style="stroke:black; stroke-linecap:round; stroke-width:0.25;"/>
<line x1="115.400000" y1="268.000000" x2="115.400000" y2="290.000000"  style="stroke:black; stroke-linecap:round; stroke-width:0.25;"/>
<line x1="115.400000" y1="290.000000" x2="115.400000" y2="290.000000"  style="stroke:black; stroke-linecap:round; stroke-width:0.25;"/>
<line x1="115.400000" y1="290.000000" x2="119.400000" y2="290.000000"  style="stroke:black; stroke-linecap:round; stroke-width:0.25;"/>
<line x1="115.400000" y1="298.000000" x2="119.400000" y2="298.000000"  style="stroke:black; stroke-linecap:round; stroke-width:0.25;"/>
<line x1="117.400000" y1="204.000000" x2="182.800000" y2="204.000000"  style="stroke:black; stroke-linecap:round; stroke-width:0.25;"/>
<line x1="117.400000" y1="352.000000" x2="182.800000" y2="352.000000"  style="stroke:black; stroke-linecap:round; stroke-width:0.25;"/>
<line x1="143.400000" y1="146.000000" x2="147.400000" y2="146.000000"  style="stroke:black; stroke-linecap:round; stroke-width:0.25;"/>
<line x1="143.400000" y1="294.000000" x2="147.400000" y2="294.000000"  style="stroke:black; stroke-linecap:round; stroke-width:0.25;"/>
<line x1="147.400000" y1="146.000000" x2="182.800000" y2="146.000000"  style="stroke:black; stroke-linecap:round; stroke-width:0.25;"/>
<line x1="147.400000" y1="294.000000" x2="182.800000" y2="294.000000"  style="stroke:black; stroke-linecap:round; stroke-width:0.25;"/>
<line x1="164.750000" y1="46.000000" x2="168.750000" y2="46.000000"  style="stroke:black; stroke-linecap:round; stroke-width:0.25;"/>
<line x1="164.750000" y1="88.000000" x2="168.750000" y2="88.000000"  style="stroke:black; stroke-linecap:round; stroke-width:0.25;"/>
<line x1="168.750000" y1="46.000000" x2="178.750000" y2="46.000000"  style="stroke:black; stroke-linecap:round; stroke-width:0.25;"/>
<line x1="168.750000" y1="88.000000" x2="285.500000" y2="88.000000"  style="stroke:black; stroke-linecap:round; stroke-width:0.25;"/>
<line x1="178.750000" y1="46.000000" x2="285.500000" y2="46.000000"  style="stroke:black; stroke-linecap:round; stroke-width:0.25;"/>
<line x1="178.800000" y1="236.000000" x2="182.800000" y2="236.000000"  style="stroke:black; stroke-linecap:round; stroke-width:0.25;"/>
<line x1="178.800000" y1="384.000000" x2="182.800000" y2="384.000000"  style="stroke:black; stroke-linecap:round; stroke-width:0.25;"/>
<line x1="182.800000" y1="146.000000" x2="198.800000" y2="146.000000"  style="stroke:black; stroke-linecap:round; stroke-width:0.25;"/>
<line x1="182.800000" y1="294.000000" x2="198.800000" y2="294.000000"  style="stroke:black; stroke-linecap:round; stroke-width:0.25;"/>
<line x1="182.800000" y1="178.000000" x2="198.800000" y2="178.000000"  style="stroke:black; stroke-linecap:round; stroke-width:0.25;"/>
<line x1="182.800000" y1="204.000000" x2="182.800000" y2="178.000000"  style="stroke:black; stroke-linecap:round; stroke-width:0.25;"/>
<line x1="182.800000" y1="204.000000" x2="182.800000" y2="204.000000"  style="stroke:black; stroke-linecap:round; stroke-width:0.25;"/>
<line x1="182.800000" y1="236.000000" x2="190.800000" y2="236.000000"  style="stroke:black; stroke-linecap:round; stroke-width:0.25;"/>
<line x1="182.800000" y1="326.000000" x2="198.800000" y2="326.000000"  style="stroke:black; stroke-linecap:round; stroke-width:0.25;"/>
<line x1="182.800000" y1="352.000000" x2="182.800000" y2="326.000000"  style="stroke:black; stroke-linecap:round; stroke-width:0.25;"/>
<line x1="182.800000" y1="352.000000" x2="182.800000" y2="352.000000"  style="stroke:black; stroke-linecap:round; stroke-width:0.25;"/>
<line x1="182.800000" y1="384.000000" x2="190.800000" y2="384.000000"  style="stroke:black; stroke-linecap:round; stroke-width:0.25;"/>
<line x1="190.800000" y1="186.000000" x2="198.800000" y2="186.000000"  style="stroke:black; stroke-linecap:round; stroke-width:0.25;"/>
<line x1="190.800000" y1="236.000000" x2="190.800000" y2="186.000000"  style="stroke:black; stroke-linecap:round; stroke-width:0.25;"/>
<line x1="190.800000" y1="334.000000" x2="198.800000" y2="334.000000"  style="stroke:black; stroke-linecap:round; stroke-width:0.25;"/>
<line x1="190.800000" y1="384.000000" x2="190.800000" y2="334.000000"  style="stroke:black; stroke-linecap:round; stroke-width:0.25;"/>
<line x1="198.800000" y1="146.000000" x2="198.800000" y2="170.000000"  style="stroke:black; stroke-linecap:round; stroke-width:0.25;"/>
<line x1="198.800000" y1="170.000000" x2="198.800000" y2="170.000000"  style="stroke:black; stroke-linecap:round; stroke-width:0.25;"/>
<line x1="198.800000" y1="294.000000" x2="198.800000" y2="318.000000"  style="stroke:black; stroke-linecap:round; stroke-width:0.25;"/>
<line x1="198.800000" y1="318.000000" x2="198.800000" y2="318.000000"  style="stroke:black; stroke-linecap:round; stroke-width:0.25;"/>
<line x1="198.800000" y1="170.000000" x2="202.800000" y2="170.000000"  style="stroke:black; stroke-linecap:round; stroke-width:0.25;"/>
<line x1="198.800000" y1="178.000000" x2="202.800000" y2="178.000000"  style="stroke:black; stroke-linecap:round; stroke-width:0.25;"/>
<line x1="198.800000" y1="186.000000" x2="202.800000" y2="186.000000"  style="stroke:black; stroke-linecap:round; stroke-width:0.25;"/>
<line x1="198.800000" y1="318.000000" x2="202.800000" y2="318.000000"  style="stroke:black; stroke-linecap:round; stroke-width:0.25;"/>
<line x1="198.800000" y1="326.000000" x2="202.800000" y2="326.000000"  style="stroke:black; stroke-linecap:round; stroke-width:0.25;"/>
<line x1="198.800000" y1="334.000000" x2="202.800000" y2="334.000000"  style="stroke:black; stroke-linecap:round; stroke-width:0.25;"/>
<line x1="241.500000" y1="178.000000" x2="245.500000" y2="178.000000"  style="stroke:black; stroke-linecap:round; stroke-width:0.25;"/>
<line x1="241.500000" y1="326.000000" x2="245.500000" y2="326.000000"  style="stroke:black; stroke-linecap:round; stroke-width:0.25;"/>
<line x1="245.500000" y1="178.000000" x2="253.500000" y2="178.000000"  style="stroke:black; stroke-linecap:round; stroke-width:0.25;"/>
<line x1="245.500000" y1="256.000000" x2="253.500000" y2="256.000000"  style="stroke:black; stroke-linecap:round; stroke-width:0.25;"/>
<line x1="245.500000" y1="326.000000" x2="245.500000" y2="256.000000"  style="stroke:black; stroke-linecap:round; stroke-width:0.25;"/>
<line x1="245.500000" y1="326.000000" x2="245.500000" y2="326.000000"  style="stroke:black; stroke-linecap:round; stroke-width:0.25;"/>
<line x1="253.500000" y1="178.000000" x2="253.500000" y2="248.000000"  style="stroke:black; stroke-linecap:round; stroke-width:0.25;"/>
<line x1="253.500000" y1="248.000000" x2="253.500000" y2="248.000000"  style="stroke:black; stroke-linecap:round; stroke-width:0.25;"/>
<line x1="253.500000" y1="248.000000" x2="257.500000" y2="248.000000"  style="stroke:black; stroke-linecap:round; stroke-width:0.25;"/>
<line x1="253.500000" y1="256.000000" x2="257.500000" y2="256.000000"  style="stroke:black; stroke-linecap:round; stroke-width:0.25;"/>
<line x1="281.500000" y1="252.000000" x2="285.500000" y2="252.000000"  style="stroke:black; stroke-linecap:round; stroke-width:0.25;"/>
<line x1="285.500000" y1="46.000000" x2="301.500000" y2="46.000000"  style="stroke:black; stroke-linecap:round; stroke-width:0.25;"/>
<line x1="285.500000" y1="88.000000" x2="293.500000" y2="88.000000"  style="stroke:black; stroke-linecap:round; stroke-width:0.25;"/>
<line x1="285.500000" y1="218.000000" x2="301.500000" y2="218.000000"  style="stroke:black; stroke-linecap:round; stroke-width:0.25;"/>
<line x1="285.500000" y1="252.000000" x2="285.500000" y2="218.000000"  style="stroke:black; stroke-linecap:round; stroke-width:0.25;"/>
<line x1="285.500000" y1="252.000000" x2="285.500000" y2="252.000000"  style="stroke:black; stroke-linecap:round; stroke-width:0.25;"/>
<line x1="293.500000" y1="88.000000" x2="293.500000" y2="210.000000"  style="stroke:black; stroke-linecap:round; stroke-width:0.25;"/>
<line x1="293.500000" y1="210.000000" x2="301.500000" y2="210.000000"  style="stroke:black; stroke-linecap:round; stroke-width:0.25;"/>
<line x1="301.500000" y1="46.000000" x2="301.500000" y2="202.000000"  style="stroke:black; stroke-linecap:round; stroke-width:0.25;"/>
<line x1="301.500000" y1="202.000000" x2="301.500000" y2="202.000000"  style="stroke:black; stroke-linecap:round; stroke-width:0.25;"/>
<line x1="301.500000" y1="202.000000" x2="305.500000" y2="202.000000"  style="stroke:black; stroke-linecap:round; stroke-width:0.25;"/>
<line x1="301.500000" y1="210.000000" x2="305.500000" y2="210.000000"  style="stroke:black; stroke-linecap:round; stroke-width:0.25;"/>
<line x1="301.500000" y1="218.000000" x2="305.500000" y2="218.000000"  style="stroke:black; stroke-linecap:round; stroke-width:0.25;"/>
<line x1="344.200000" y1="210.000000" x2="348.200000" y2="210.000000"  style="stroke:black; stroke-linecap:round; stroke-width:0.25;"/>
<line x1="348.200000" y1="210.000000" x2="348.200000" y2="210.000000"  style="stroke:black; stroke-linecap:round; stroke-width:0.25;"/>
<line x1="348.200000" y1="210.000000" x2="352.200000" y2="210.000000"  style="stroke:black; stroke-linecap:round; stroke-width:0.25;"/>
<line x1="352.200000" y1="210.000000" x2="356.200000" y2="210.000000"  style="stroke:black; stroke-linecap:round; stroke-width:0.25;"/>
<line x1="356.200000" y1="210.000000" x2="366.200000" y2="210.000000"  style="stroke:black; stroke-linecap:round; stroke-width:0.25;"/>
</svg>
