<?xml version="1.0"?>
<svg xmlns="http://www.w3.org/2000/svg" xmlns:xlink="http://www.w3.org/1999/xlink" viewBox="0 0 336.200000 232.000000" width="168.100000mm" height="116.000000mm" version="1.1">
<a xlink:href="h-0x7fa542eafe20.svg">
<rect x="1.000000" y="1.000000" width="335.200000" height="231.000000" rx="0" ry="0" style="stroke:none;fill:#cccccc;"/>
<rect x="0.000000" y="0.000000" width="335.200000" height="231.000000" rx="0" ry="0" style="stroke:none;fill:#ffffff;"/>
</a>
<text x="10.000000" y="7.000000" font-family="Arial" font-size="7"></text>
<rect x="121.750000" y="25.000000" width="24.000000" height="24.000000" rx="0" ry="0" style="stroke:none;fill:#cccccc;"/>
<rect x="120.750000" y="24.000000" width="24.000000" height="24.000000" rx="0" ry="0" style="stroke:none;fill:#f44800;"/>
<text x="132.750000" y="38.000000" font-family="Arial" font-size="7" text-anchor="middle" fill="#FFFFFF">1</text>
<circle cx="122.750000" cy="26.000000" r="1"/>
<rect x="121.750000" y="57.000000" width="24.000000" height="24.000000" rx="0" ry="0" style="stroke:none;fill:#cccccc;"/>
<rect x="120.750000" y="56.000000" width="24.000000" height="24.000000" rx="0" ry="0" style="stroke:none;fill:#f44800;"/>
<text x="132.750000" y="70.000000" font-family="Arial" font-size="7" text-anchor="middle" fill="#FFFFFF">1</text>
<circle cx="122.750000" cy="58.000000" r="1"/>
<rect x="70.400000" y="89.000000" width="24.000000" height="24.000000" rx="0" ry="0" style="stroke:none;fill:#cccccc;"/>
<rect x="69.400000" y="88.000000" width="24.000000" height="24.000000" rx="0" ry="0" style="stroke:none;fill:#f44800;"/>
<text x="81.400000" y="102.000000" font-family="Arial" font-size="7" text-anchor="middle" fill="#FFFFFF">0</text>
<circle cx="71.400000" cy="90.000000" r="1"/>
<rect x="70.400000" y="121.000000" width="24.000000" height="24.000000" rx="0" ry="0" style="stroke:none;fill:#cccccc;"/>
<rect x="69.400000" y="120.000000" width="24.000000" height="24.000000" rx="0" ry="0" style="stroke:none;fill:#f44800;"/>
<text x="81.400000" y="134.000000" font-family="Arial" font-size="7" text-anchor="middle" fill="#FFFFFF">1</text>
<circle cx="71.400000" cy="122.000000" r="1"/>
<rect x="110.400000" y="105.000000" width="24.000000" height="24.000000" rx="0" ry="0" style="stroke:none;fill:#cccccc;"/>
<rect x="109.400000" y="104.000000" width="24.000000" height="24.000000" rx="0" ry="0" style="stroke:none;fill:#4B71A1;"/>
<text x="121.400000" y="118.000000" font-family="Arial" font-size="7" text-anchor="middle" fill="#FFFFFF">&lt;</text>
<circle cx="111.400000" cy="106.000000" r="1"/>
<line x1="106.400000" y1="111.000000" x2="109.400000" y2="112.000000"  transform="rotate(0.000000,109.400000,112.000000)" style="stroke: black; stroke-width:0.25;"/>
<line x1="106.400000" y1="113.000000" x2="109.400000" y2="112.000000"  transform="rotate(0.000000,109.400000,112.000000)" style="stroke: black; stroke-width:0.25;"/>
<line x1="106.400000" y1="119.000000" x2="109.400000" y2="120.000000"  transform="rotate(0.000000,109.400000,120.000000)" style="stroke: black; stroke-width:0.25;"/>
<line x1="106.400000" y1="121.000000" x2="109.400000" y2="120.000000"  transform="rotate(0.000000,109.400000,120.000000)" style="stroke: black; stroke-width:0.25;"/>
<rect x="90.400000" y="153.000000" width="24.000000" height="24.000000" rx="0" ry="0" style="stroke:none;fill:#cccccc;"/>
<rect x="89.400000" y="152.000000" width="24.000000" height="24.000000" rx="0" ry="0" style="stroke:none;fill:#f44800;"/>
<text x="101.400000" y="166.000000" font-family="Arial" font-size="7" text-anchor="middle" fill="#FFFFFF">1</text>
<circle cx="91.400000" cy="154.000000" r="1"/>
<a xlink:href="fac-0x7fa542cb5fb0.svg">
<rect x="25.000000" y="185.000000" width="154.800000" height="24.000000" rx="0" ry="0" style="stroke:none;fill:#cccccc;"/>
<rect x="24.000000" y="184.000000" width="154.800000" height="24.000000" rx="0" ry="0" style="stroke:none;fill:#003366;"/>
</a>
<a xlink:href="fac-0x7fa542cb5fb0.svg">
<text x="101.400000" y="198.000000" font-family="Arial" font-size="7" text-anchor="middle" fill="#FFFFFF">fac(((2,1.000...nt) : -) : +)(1)(0)</text>
</a>
<circle cx="26.000000" cy="186.000000" r="1"/>
<rect x="203.800000" y="137.000000" width="38.700000" height="24.000000" rx="0" ry="0" style="stroke:none;fill:#cccccc;"/>
<rect x="202.800000" y="136.000000" width="38.700000" height="24.000000" rx="0" ry="0" style="stroke:none;fill:#4B71A1;"/>
<text x="222.150000" y="150.000000" font-family="Arial" font-size="7" text-anchor="middle" fill="#FFFFFF">select2</text>
<circle cx="204.800000" cy="138.000000" r="1"/>
<line x1="199.800000" y1="139.000000" x2="202.800000" y2="140.000000"  transform="rotate(0.000000,202.800000,140.000000)" style="stroke: black; stroke-width:0.25;"/>
<line x1="199.800000" y1="141.000000" x2="202.800000" y2="140.000000"  transform="rotate(0.000000,202.800000,140.000000)" style="stroke: black; stroke-width:0.25;"/>
<line x1="199.800000" y1="147.000000" x2="202.800000" y2="148.000000"  transform="rotate(0.000000,202.800000,148.000000)" style="stroke: black; stroke-width:0.25;"/>
<line x1="199.800000" y1="149.000000" x2="202.800000" y2="148.000000"  transform="rotate(0.000000,202.800000,148.000000)" style="stroke: black; stroke-width:0.25;"/>
<line x1="199.800000" y1="155.000000" x2="202.800000" y2="156.000000"  transform="rotate(0.000000,202.800000,156.000000)" style="stroke: black; stroke-width:0.25;"/>
<line x1="199.800000" y1="157.000000" x2="202.800000" y2="156.000000"  transform="rotate(0.000000,202.800000,156.000000)" style="stroke: black; stroke-width:0.25;"/>
<rect x="266.500000" y="105.000000" width="38.700000" height="24.000000" rx="0" ry="0" style="stroke:none;fill:#cccccc;"/>
<rect x="265.500000" y="104.000000" width="38.700000" height="24.000000" rx="0" ry="0" style="stroke:none;fill:#4B71A1;"/>
<text x="284.850000" y="118.000000" font-family="Arial" font-size="7" text-anchor="middle" fill="#FFFFFF">select2</text>
<circle cx="267.500000" cy="106.000000" r="1"/>
<line x1="262.500000" y1="107.000000" x2="265.500000" y2="108.000000"  transform="rotate(0.000000,265.500000,108.000000)" style="stroke: black; stroke-width:0.25;"/>
<line x1="262.500000" y1="109.000000" x2="265.500000" y2="108.000000"  transform="rotate(0.000000,265.500000,108.000000)" style="stroke: black; stroke-width:0.25;"/>
<line x1="262.500000" y1="115.000000" x2="265.500000" y2="116.000000"  transform="rotate(0.000000,265.500000,116.000000)" style="stroke: black; stroke-width:0.25;"/>
<line x1="262.500000" y1="117.000000" x2="265.500000" y2="116.000000"  transform="rotate(0.000000,265.500000,116.000000)" style="stroke: black; stroke-width:0.25;"/>
<line x1="262.500000" y1="123.000000" x2="265.500000" y2="124.000000"  transform="rotate(0.000000,265.500000,124.000000)" style="stroke: black; stroke-width:0.25;"/>
<line x1="262.500000" y1="125.000000" x2="265.500000" y2="124.000000"  transform="rotate(0.000000,265.500000,124.000000)" style="stroke: black; stroke-width:0.25;"/>
<line x1="15.000000" y1="15.000000" x2="15.000000" y2="217.000000"  style="stroke: black; stroke-linecap:round; stroke-width:0.25; stroke-dasharray:3,3;"/>
<line x1="15.000000" y1="217.000000" x2="321.200000" y2="217.000000"  style="stroke: black; stroke-linecap:round; stroke-width:0.25; stroke-dasharray:3,3;"/>
<line x1="321.200000" y1="217.000000" x2="321.200000" y2="15.000000"  style="stroke: black; stroke-linecap:round; stroke-width:0.25; stroke-dasharray:3,3;"/>
<line x1="15.000000" y1="15.000000" x2="20.000000" y2="15.000000"  style="stroke: black; stroke-linecap:round; stroke-width:0.25; stroke-dasharray:3,3;"/>
<line x1="129.650000" y1="15.000000" x2="321.200000" y2="15.000000"  style="stroke: black; stroke-linecap:round; stroke-width:0.25; stroke-dasharray:3,3;"/>
<text x="20.000000" y="17.000000" font-family="Arial" font-size="7">facs1(2)(((2,...nt) : -) : +)(1)</text>
<line x1="323.200000" y1="115.000000" x2="326.200000" y2="116.000000"  transform="rotate(0.000000,326.200000,116.000000)" style="stroke: black; stroke-width:0.25;"/>
<line x1="323.200000" y1="117.000000" x2="326.200000" y2="116.000000"  transform="rotate(0.000000,326.200000,116.000000)" style="stroke: black; stroke-width:0.25;"/>
<line x1="93.400000" y1="100.000000" x2="97.400000" y2="100.000000"  style="stroke:black; stroke-linecap:round; stroke-width:0.25;"/>
<line x1="93.400000" y1="132.000000" x2="97.400000" y2="132.000000"  style="stroke:black; stroke-linecap:round; stroke-width:0.25;"/>
<line x1="97.400000" y1="100.000000" x2="105.400000" y2="100.000000"  style="stroke:black; stroke-linecap:round; stroke-width:0.25;"/>
<line x1="97.400000" y1="120.000000" x2="105.400000" y2="120.000000"  style="stroke:black; stroke-linecap:round; stroke-width:0.25;"/>
<line x1="97.400000" y1="132.000000" x2="97.400000" y2="120.000000"  style="stroke:black; stroke-linecap:round; stroke-width:0.25;"/>
<line x1="97.400000" y1="132.000000" x2="97.400000" y2="132.000000"  style="stroke:black; stroke-linecap:round; stroke-width:0.25;"/>
<line x1="105.400000" y1="100.000000" x2="105.400000" y2="112.000000"  style="stroke:black; stroke-linecap:round; stroke-width:0.25;"/>
<line x1="105.400000" y1="112.000000" x2="105.400000" y2="112.000000"  style="stroke:black; stroke-linecap:round; stroke-width:0.25;"/>
<line x1="105.400000" y1="112.000000" x2="109.400000" y2="112.000000"  style="stroke:black; stroke-linecap:round; stroke-width:0.25;"/>
<line x1="105.400000" y1="120.000000" x2="109.400000" y2="120.000000"  style="stroke:black; stroke-linecap:round; stroke-width:0.25;"/>
<line x1="113.400000" y1="164.000000" x2="117.400000" y2="164.000000"  style="stroke:black; stroke-linecap:round; stroke-width:0.25;"/>
<line x1="117.400000" y1="164.000000" x2="182.800000" y2="164.000000"  style="stroke:black; stroke-linecap:round; stroke-width:0.25;"/>
<line x1="133.400000" y1="116.000000" x2="137.400000" y2="116.000000"  style="stroke:black; stroke-linecap:round; stroke-width:0.25;"/>
<line x1="137.400000" y1="116.000000" x2="182.800000" y2="116.000000"  style="stroke:black; stroke-linecap:round; stroke-width:0.25;"/>
<line x1="144.750000" y1="36.000000" x2="148.750000" y2="36.000000"  style="stroke:black; stroke-linecap:round; stroke-width:0.25;"/>
<line x1="144.750000" y1="68.000000" x2="148.750000" y2="68.000000"  style="stroke:black; stroke-linecap:round; stroke-width:0.25;"/>
<line x1="148.750000" y1="36.000000" x2="245.500000" y2="36.000000"  style="stroke:black; stroke-linecap:round; stroke-width:0.25;"/>
<line x1="148.750000" y1="68.000000" x2="245.500000" y2="68.000000"  style="stroke:black; stroke-linecap:round; stroke-width:0.25;"/>
<line x1="178.800000" y1="196.000000" x2="182.800000" y2="196.000000"  style="stroke:black; stroke-linecap:round; stroke-width:0.25;"/>
<line x1="182.800000" y1="116.000000" x2="198.800000" y2="116.000000"  style="stroke:black; stroke-linecap:round; stroke-width:0.25;"/>
<line x1="182.800000" y1="148.000000" x2="198.800000" y2="148.000000"  style="stroke:black; stroke-linecap:round; stroke-width:0.25;"/>
<line x1="182.800000" y1="164.000000" x2="182.800000" y2="148.000000"  style="stroke:black; stroke-linecap:round; stroke-width:0.25;"/>
<line x1="182.800000" y1="164.000000" x2="182.800000" y2="164.000000"  style="stroke:black; stroke-linecap:round; stroke-width:0.25;"/>
<line x1="182.800000" y1="196.000000" x2="190.800000" y2="196.000000"  style="stroke:black; stroke-linecap:round; stroke-width:0.25;"/>
<line x1="190.800000" y1="156.000000" x2="198.800000" y2="156.000000"  style="stroke:black; stroke-linecap:round; stroke-width:0.25;"/>
<line x1="190.800000" y1="196.000000" x2="190.800000" y2="156.000000"  style="stroke:black; stroke-linecap:round; stroke-width:0.25;"/>
<line x1="198.800000" y1="116.000000" x2="198.800000" y2="140.000000"  style="stroke:black; stroke-linecap:round; stroke-width:0.25;"/>
<line x1="198.800000" y1="140.000000" x2="198.800000" y2="140.000000"  style="stroke:black; stroke-linecap:round; stroke-width:0.25;"/>
<line x1="198.800000" y1="140.000000" x2="202.800000" y2="140.000000"  style="stroke:black; stroke-linecap:round; stroke-width:0.25;"/>
<line x1="198.800000" y1="148.000000" x2="202.800000" y2="148.000000"  style="stroke:black; stroke-linecap:round; stroke-width:0.25;"/>
<line x1="198.800000" y1="156.000000" x2="202.800000" y2="156.000000"  style="stroke:black; stroke-linecap:round; stroke-width:0.25;"/>
<line x1="241.500000" y1="148.000000" x2="245.500000" y2="148.000000"  style="stroke:black; stroke-linecap:round; stroke-width:0.25;"/>
<line x1="245.500000" y1="124.000000" x2="261.500000" y2="124.000000"  style="stroke:black; stroke-linecap:round; stroke-width:0.25;"/>
<line x1="245.500000" y1="148.000000" x2="245.500000" y2="124.000000"  style="stroke:black; stroke-linecap:round; stroke-width:0.25;"/>
<line x1="245.500000" y1="148.000000" x2="245.500000" y2="148.000000"  style="stroke:black; stroke-linecap:round; stroke-width:0.25;"/>
<line x1="245.500000" y1="36.000000" x2="261.500000" y2="36.000000"  style="stroke:black; stroke-linecap:round; stroke-width:0.25;"/>
<line x1="245.500000" y1="68.000000" x2="253.500000" y2="68.000000"  style="stroke:black; stroke-linecap:round; stroke-width:0.25;"/>
<line x1="253.500000" y1="68.000000" x2="253.500000" y2="116.000000"  style="stroke:black; stroke-linecap:round; stroke-width:0.25;"/>
<line x1="253.500000" y1="116.000000" x2="261.500000" y2="116.000000"  style="stroke:black; stroke-linecap:round; stroke-width:0.25;"/>
<line x1="261.500000" y1="36.000000" x2="261.500000" y2="108.000000"  style="stroke:black; stroke-linecap:round; stroke-width:0.25;"/>
<line x1="261.500000" y1="108.000000" x2="261.500000" y2="108.000000"  style="stroke:black; stroke-linecap:round; stroke-width:0.25;"/>
<line x1="261.500000" y1="108.000000" x2="265.500000" y2="108.000000"  style="stroke:black; stroke-linecap:round; stroke-width:0.25;"/>
<line x1="261.500000" y1="116.000000" x2="265.500000" y2="116.000000"  style="stroke:black; stroke-linecap:round; stroke-width:0.25;"/>
<line x1="261.500000" y1="124.000000" x2="265.500000" y2="124.000000"  style="stroke:black; stroke-linecap:round; stroke-width:0.25;"/>
<line x1="304.200000" y1="116.000000" x2="308.200000" y2="116.000000"  style="stroke:black; stroke-linecap:round; stroke-width:0.25;"/>
<line x1="308.200000" y1="116.000000" x2="308.200000" y2="116.000000"  style="stroke:black; stroke-linecap:round; stroke-width:0.25;"/>
<line x1="308.200000" y1="116.000000" x2="312.200000" y2="116.000000"  style="stroke:black; stroke-linecap:round; stroke-width:0.25;"/>
<line x1="312.200000" y1="116.000000" x2="316.200000" y2="116.000000"  style="stroke:black; stroke-linecap:round; stroke-width:0.25;"/>
<line x1="316.200000" y1="116.000000" x2="326.200000" y2="116.000000"  style="stroke:black; stroke-linecap:round; stroke-width:0.25;"/>
</svg>
