<?xml version="1.0"?>
<svg xmlns="http://www.w3.org/2000/svg" xmlns:xlink="http://www.w3.org/1999/xlink" viewBox="0 0 305.500000 200.000000" width="152.750000mm" height="100.000000mm" version="1.1">
<a xlink:href="h-0x7fe2ec855610.svg">
<rect x="1.000000" y="1.000000" width="304.500000" height="199.000000" rx="0" ry="0" style="stroke:none;fill:#cccccc;"/>
<rect x="0.000000" y="0.000000" width="304.500000" height="199.000000" rx="0" ry="0" style="stroke:none;fill:#ffffff;"/>
</a>
<text x="10.000000" y="7.000000" font-family="Arial" font-size="7"></text>
<rect x="90.400000" y="25.000000" width="24.000000" height="24.000000" rx="0" ry="0" style="stroke:none;fill:#cccccc;"/>
<rect x="89.400000" y="24.000000" width="24.000000" height="24.000000" rx="0" ry="0" style="stroke:none;fill:#f44800;"/>
<text x="101.400000" y="38.000000" font-family="Arial" font-size="7" text-anchor="middle" fill="#FFFFFF">0</text>
<circle cx="91.400000" cy="26.000000" r="1"/>
<rect x="90.400000" y="57.000000" width="24.000000" height="24.000000" rx="0" ry="0" style="stroke:none;fill:#cccccc;"/>
<rect x="89.400000" y="56.000000" width="24.000000" height="24.000000" rx="0" ry="0" style="stroke:none;fill:#f44800;"/>
<text x="101.400000" y="70.000000" font-family="Arial" font-size="7" text-anchor="middle" fill="#FFFFFF">2</text>
<circle cx="91.400000" cy="58.000000" r="1"/>
<rect x="130.400000" y="41.000000" width="24.000000" height="24.000000" rx="0" ry="0" style="stroke:none;fill:#cccccc;"/>
<rect x="129.400000" y="40.000000" width="24.000000" height="24.000000" rx="0" ry="0" style="stroke:none;fill:#4B71A1;"/>
<text x="141.400000" y="54.000000" font-family="Arial" font-size="7" text-anchor="middle" fill="#FFFFFF">&lt;</text>
<circle cx="131.400000" cy="42.000000" r="1"/>
<line x1="126.400000" y1="47.000000" x2="129.400000" y2="48.000000"  transform="rotate(0.000000,129.400000,48.000000)" style="stroke: black; stroke-width:0.25;"/>
<line x1="126.400000" y1="49.000000" x2="129.400000" y2="48.000000"  transform="rotate(0.000000,129.400000,48.000000)" style="stroke: black; stroke-width:0.25;"/>
<line x1="126.400000" y1="55.000000" x2="129.400000" y2="56.000000"  transform="rotate(0.000000,129.400000,56.000000)" style="stroke: black; stroke-width:0.25;"/>
<line x1="126.400000" y1="57.000000" x2="129.400000" y2="56.000000"  transform="rotate(0.000000,129.400000,56.000000)" style="stroke: black; stroke-width:0.25;"/>
<rect x="110.400000" y="89.000000" width="24.000000" height="24.000000" rx="0" ry="0" style="stroke:none;fill:#cccccc;"/>
<rect x="109.400000" y="88.000000" width="24.000000" height="24.000000" rx="0" ry="0" style="stroke:none;fill:#f44800;"/>
<text x="121.400000" y="102.000000" font-family="Arial" font-size="7" text-anchor="middle" fill="#FFFFFF">1</text>
<circle cx="111.400000" cy="90.000000" r="1"/>
<a xlink:href="fac-0x7fe2ec850810.svg">
<rect x="25.000000" y="121.000000" width="154.800000" height="24.000000" rx="0" ry="0" style="stroke:none;fill:#cccccc;"/>
<rect x="24.000000" y="120.000000" width="154.800000" height="24.000000" rx="0" ry="0" style="stroke:none;fill:#003366;"/>
</a>
<a xlink:href="fac-0x7fe2ec850810.svg">
<text x="101.400000" y="134.000000" font-family="Arial" font-size="7" text-anchor="middle" fill="#FFFFFF">fac(((2,1.000...nt) : -) : +)(0)(1)</text>
</a>
<circle cx="26.000000" cy="122.000000" r="1"/>
<a xlink:href="fac-0x7fe2ec854300.svg">
<rect x="25.000000" y="153.000000" width="154.800000" height="24.000000" rx="0" ry="0" style="stroke:none;fill:#cccccc;"/>
<rect x="24.000000" y="152.000000" width="154.800000" height="24.000000" rx="0" ry="0" style="stroke:none;fill:#003366;"/>
</a>
<a xlink:href="fac-0x7fe2ec854300.svg">
<text x="101.400000" y="166.000000" font-family="Arial" font-size="7" text-anchor="middle" fill="#FFFFFF">fac(((2,1.000...nt) : -) : +)(0)(2)</text>
</a>
<circle cx="26.000000" cy="154.000000" r="1"/>
<rect x="195.800000" y="137.000000" width="24.000000" height="24.000000" rx="0" ry="0" style="stroke:none;fill:#cccccc;"/>
<rect x="194.800000" y="136.000000" width="24.000000" height="24.000000" rx="0" ry="0" style="stroke:none;fill:#4B71A1;"/>
<text x="206.800000" y="150.000000" font-family="Arial" font-size="7" text-anchor="middle" fill="#FFFFFF">*</text>
<circle cx="196.800000" cy="138.000000" r="1"/>
<line x1="191.800000" y1="143.000000" x2="194.800000" y2="144.000000"  transform="rotate(0.000000,194.800000,144.000000)" style="stroke: black; stroke-width:0.25;"/>
<line x1="191.800000" y1="145.000000" x2="194.800000" y2="144.000000"  transform="rotate(0.000000,194.800000,144.000000)" style="stroke: black; stroke-width:0.25;"/>
<line x1="191.800000" y1="151.000000" x2="194.800000" y2="152.000000"  transform="rotate(0.000000,194.800000,152.000000)" style="stroke: black; stroke-width:0.25;"/>
<line x1="191.800000" y1="153.000000" x2="194.800000" y2="152.000000"  transform="rotate(0.000000,194.800000,152.000000)" style="stroke: black; stroke-width:0.25;"/>
<rect x="235.800000" y="89.000000" width="38.700000" height="24.000000" rx="0" ry="0" style="stroke:none;fill:#cccccc;"/>
<rect x="234.800000" y="88.000000" width="38.700000" height="24.000000" rx="0" ry="0" style="stroke:none;fill:#4B71A1;"/>
<text x="254.150000" y="102.000000" font-family="Arial" font-size="7" text-anchor="middle" fill="#FFFFFF">select2</text>
<circle cx="236.800000" cy="90.000000" r="1"/>
<line x1="231.800000" y1="91.000000" x2="234.800000" y2="92.000000"  transform="rotate(0.000000,234.800000,92.000000)" style="stroke: black; stroke-width:0.25;"/>
<line x1="231.800000" y1="93.000000" x2="234.800000" y2="92.000000"  transform="rotate(0.000000,234.800000,92.000000)" style="stroke: black; stroke-width:0.25;"/>
<line x1="231.800000" y1="99.000000" x2="234.800000" y2="100.000000"  transform="rotate(0.000000,234.800000,100.000000)" style="stroke: black; stroke-width:0.25;"/>
<line x1="231.800000" y1="101.000000" x2="234.800000" y2="100.000000"  transform="rotate(0.000000,234.800000,100.000000)" style="stroke: black; stroke-width:0.25;"/>
<line x1="231.800000" y1="107.000000" x2="234.800000" y2="108.000000"  transform="rotate(0.000000,234.800000,108.000000)" style="stroke: black; stroke-width:0.25;"/>
<line x1="231.800000" y1="109.000000" x2="234.800000" y2="108.000000"  transform="rotate(0.000000,234.800000,108.000000)" style="stroke: black; stroke-width:0.25;"/>
<line x1="15.000000" y1="15.000000" x2="15.000000" y2="185.000000"  style="stroke: black; stroke-linecap:round; stroke-width:0.25; stroke-dasharray:3,3;"/>
<line x1="15.000000" y1="185.000000" x2="290.500000" y2="185.000000"  style="stroke: black; stroke-linecap:round; stroke-width:0.25; stroke-dasharray:3,3;"/>
<line x1="290.500000" y1="185.000000" x2="290.500000" y2="15.000000"  style="stroke: black; stroke-linecap:round; stroke-width:0.25; stroke-dasharray:3,3;"/>
<line x1="15.000000" y1="15.000000" x2="20.000000" y2="15.000000"  style="stroke: black; stroke-linecap:round; stroke-width:0.25; stroke-dasharray:3,3;"/>
<line x1="129.650000" y1="15.000000" x2="290.500000" y2="15.000000"  style="stroke: black; stroke-linecap:round; stroke-width:0.25; stroke-dasharray:3,3;"/>
<text x="20.000000" y="17.000000" font-family="Arial" font-size="7">facs2(2)(((2,...nt) : -) : +)(0)</text>
<line x1="292.500000" y1="99.000000" x2="295.500000" y2="100.000000"  transform="rotate(0.000000,295.500000,100.000000)" style="stroke: black; stroke-width:0.25;"/>
<line x1="292.500000" y1="101.000000" x2="295.500000" y2="100.000000"  transform="rotate(0.000000,295.500000,100.000000)" style="stroke: black; stroke-width:0.25;"/>
<line x1="113.400000" y1="36.000000" x2="117.400000" y2="36.000000"  style="stroke:black; stroke-linecap:round; stroke-width:0.25;"/>
<line x1="113.400000" y1="68.000000" x2="117.400000" y2="68.000000"  style="stroke:black; stroke-linecap:round; stroke-width:0.25;"/>
<line x1="117.400000" y1="36.000000" x2="125.400000" y2="36.000000"  style="stroke:black; stroke-linecap:round; stroke-width:0.25;"/>
<line x1="117.400000" y1="56.000000" x2="125.400000" y2="56.000000"  style="stroke:black; stroke-linecap:round; stroke-width:0.25;"/>
<line x1="117.400000" y1="68.000000" x2="117.400000" y2="56.000000"  style="stroke:black; stroke-linecap:round; stroke-width:0.25;"/>
<line x1="117.400000" y1="68.000000" x2="117.400000" y2="68.000000"  style="stroke:black; stroke-linecap:round; stroke-width:0.25;"/>
<line x1="125.400000" y1="36.000000" x2="125.400000" y2="48.000000"  style="stroke:black; stroke-linecap:round; stroke-width:0.25;"/>
<line x1="125.400000" y1="48.000000" x2="125.400000" y2="48.000000"  style="stroke:black; stroke-linecap:round; stroke-width:0.25;"/>
<line x1="125.400000" y1="48.000000" x2="129.400000" y2="48.000000"  style="stroke:black; stroke-linecap:round; stroke-width:0.25;"/>
<line x1="125.400000" y1="56.000000" x2="129.400000" y2="56.000000"  style="stroke:black; stroke-linecap:round; stroke-width:0.25;"/>
<line x1="133.400000" y1="100.000000" x2="137.400000" y2="100.000000"  style="stroke:black; stroke-linecap:round; stroke-width:0.25;"/>
<line x1="137.400000" y1="100.000000" x2="222.800000" y2="100.000000"  style="stroke:black; stroke-linecap:round; stroke-width:0.25;"/>
<line x1="153.400000" y1="52.000000" x2="157.400000" y2="52.000000"  style="stroke:black; stroke-linecap:round; stroke-width:0.25;"/>
<line x1="157.400000" y1="52.000000" x2="222.800000" y2="52.000000"  style="stroke:black; stroke-linecap:round; stroke-width:0.25;"/>
<line x1="178.800000" y1="132.000000" x2="182.800000" y2="132.000000"  style="stroke:black; stroke-linecap:round; stroke-width:0.25;"/>
<line x1="178.800000" y1="164.000000" x2="182.800000" y2="164.000000"  style="stroke:black; stroke-linecap:round; stroke-width:0.25;"/>
<line x1="182.800000" y1="132.000000" x2="190.800000" y2="132.000000"  style="stroke:black; stroke-linecap:round; stroke-width:0.25;"/>
<line x1="182.800000" y1="152.000000" x2="190.800000" y2="152.000000"  style="stroke:black; stroke-linecap:round; stroke-width:0.25;"/>
<line x1="182.800000" y1="164.000000" x2="182.800000" y2="152.000000"  style="stroke:black; stroke-linecap:round; stroke-width:0.25;"/>
<line x1="182.800000" y1="164.000000" x2="182.800000" y2="164.000000"  style="stroke:black; stroke-linecap:round; stroke-width:0.25;"/>
<line x1="190.800000" y1="132.000000" x2="190.800000" y2="144.000000"  style="stroke:black; stroke-linecap:round; stroke-width:0.25;"/>
<line x1="190.800000" y1="144.000000" x2="190.800000" y2="144.000000"  style="stroke:black; stroke-linecap:round; stroke-width:0.25;"/>
<line x1="190.800000" y1="144.000000" x2="194.800000" y2="144.000000"  style="stroke:black; stroke-linecap:round; stroke-width:0.25;"/>
<line x1="190.800000" y1="152.000000" x2="194.800000" y2="152.000000"  style="stroke:black; stroke-linecap:round; stroke-width:0.25;"/>
<line x1="218.800000" y1="148.000000" x2="222.800000" y2="148.000000"  style="stroke:black; stroke-linecap:round; stroke-width:0.25;"/>
<line x1="222.800000" y1="52.000000" x2="230.800000" y2="52.000000"  style="stroke:black; stroke-linecap:round; stroke-width:0.25;"/>
<line x1="222.800000" y1="100.000000" x2="230.800000" y2="100.000000"  style="stroke:black; stroke-linecap:round; stroke-width:0.25;"/>
<line x1="222.800000" y1="108.000000" x2="230.800000" y2="108.000000"  style="stroke:black; stroke-linecap:round; stroke-width:0.25;"/>
<line x1="222.800000" y1="148.000000" x2="222.800000" y2="108.000000"  style="stroke:black; stroke-linecap:round; stroke-width:0.25;"/>
<line x1="222.800000" y1="148.000000" x2="222.800000" y2="148.000000"  style="stroke:black; stroke-linecap:round; stroke-width:0.25;"/>
<line x1="230.800000" y1="52.000000" x2="230.800000" y2="92.000000"  style="stroke:black; stroke-linecap:round; stroke-width:0.25;"/>
<line x1="230.800000" y1="92.000000" x2="230.800000" y2="92.000000"  style="stroke:black; stroke-linecap:round; stroke-width:0.25;"/>
<line x1="230.800000" y1="92.000000" x2="234.800000" y2="92.000000"  style="stroke:black; stroke-linecap:round; stroke-width:0.25;"/>
<line x1="230.800000" y1="100.000000" x2="234.800000" y2="100.000000"  style="stroke:black; stroke-linecap:round; stroke-width:0.25;"/>
<line x1="230.800000" y1="108.000000" x2="234.800000" y2="108.000000"  style="stroke:black; stroke-linecap:round; stroke-width:0.25;"/>
<line x1="273.500000" y1="100.000000" x2="277.500000" y2="100.000000"  style="stroke:black; stroke-linecap:round; stroke-width:0.25;"/>
<line x1="277.500000" y1="100.000000" x2="277.500000" y2="100.000000"  style="stroke:black; stroke-linecap:round; stroke-width:0.25;"/>
<line x1="277.500000" y1="100.000000" x2="281.500000" y2="100.000000"  style="stroke:black; stroke-linecap:round; stroke-width:0.25;"/>
<line x1="281.500000" y1="100.000000" x2="285.500000" y2="100.000000"  style="stroke:black; stroke-linecap:round; stroke-width:0.25;"/>
<line x1="285.500000" y1="100.000000" x2="295.500000" y2="100.000000"  style="stroke:black; stroke-linecap:round; stroke-width:0.25;"/>
</svg>
