<?xml version="1.0"?>
<svg xmlns="http://www.w3.org/2000/svg" xmlns:xlink="http://www.w3.org/1999/xlink" viewBox="0 0 990.200000 296.000000" width="495.100000mm" height="148.000000mm" version="1.1">
<a xlink:href="process.svg">
<rect x="1.000000" y="1.000000" width="989.200000" height="295.000000" rx="0" ry="0" style="stroke:none;fill:#cccccc;"/>
<rect x="0.000000" y="0.000000" width="989.200000" height="295.000000" rx="0" ry="0" style="stroke:none;fill:#ffffff;"/>
</a>
<text x="10.000000" y="7.000000" font-family="Arial" font-size="7"></text>
<a xlink:href="lpcf-0x7ffd251a8a30.svg">
<rect x="107.000000" y="25.000000" width="129.000000" height="24.000000" rx="0" ry="0" style="stroke:none;fill:#cccccc;"/>
<rect x="106.000000" y="24.000000" width="129.000000" height="24.000000" rx="0" ry="0" style="stroke:none;fill:#003366;"/>
</a>
<a xlink:href="lpcf-0x7ffd251a8a30.svg">
<text x="170.500000" y="38.000000" font-family="Arial" font-size="7" text-anchor="middle" fill="#FFFFFF">lpcf((1116,(1...)(0.7f)(0.5f)</text>
</a>
<circle cx="108.000000" cy="26.000000" r="1"/>
<line x1="103.000000" y1="35.000000" x2="106.000000" y2="36.000000"  transform="rotate(0.000000,106.000000,36.000000)" style="stroke: black; stroke-width:0.25;"/>
<line x1="103.000000" y1="37.000000" x2="106.000000" y2="36.000000"  transform="rotate(0.000000,106.000000,36.000000)" style="stroke: black; stroke-width:0.25;"/>
<a xlink:href="lpcf-0x7ffd251aa480.svg">
<rect x="107.000000" y="57.000000" width="129.000000" height="24.000000" rx="0" ry="0" style="stroke:none;fill:#cccccc;"/>
<rect x="106.000000" y="56.000000" width="129.000000" height="24.000000" rx="0" ry="0" style="stroke:none;fill:#003366;"/>
</a>
<a xlink:href="lpcf-0x7ffd251aa480.svg">
<text x="170.500000" y="70.000000" font-family="Arial" font-size="7" text-anchor="middle" fill="#FFFFFF">lpcf((1188,(1...)(0.7f)(0.5f)</text>
</a>
<circle cx="108.000000" cy="58.000000" r="1"/>
<line x1="103.000000" y1="67.000000" x2="106.000000" y2="68.000000"  transform="rotate(0.000000,106.000000,68.000000)" style="stroke: black; stroke-width:0.25;"/>
<line x1="103.000000" y1="69.000000" x2="106.000000" y2="68.000000"  transform="rotate(0.000000,106.000000,68.000000)" style="stroke: black; stroke-width:0.25;"/>
<a xlink:href="lpcf-0x7ffd251abed0.svg">
<rect x="107.000000" y="89.000000" width="129.000000" height="24.000000" rx="0" ry="0" style="stroke:none;fill:#cccccc;"/>
<rect x="106.000000" y="88.000000" width="129.000000" height="24.000000" rx="0" ry="0" style="stroke:none;fill:#003366;"/>
</a>
<a xlink:href="lpcf-0x7ffd251abed0.svg">
<text x="170.500000" y="102.000000" font-family="Arial" font-size="7" text-anchor="middle" fill="#FFFFFF">lpcf((1277,(1...)(0.7f)(0.5f)</text>
</a>
<circle cx="108.000000" cy="90.000000" r="1"/>
<line x1="103.000000" y1="99.000000" x2="106.000000" y2="100.000000"  transform="rotate(0.000000,106.000000,100.000000)" style="stroke: black; stroke-width:0.25;"/>
<line x1="103.000000" y1="101.000000" x2="106.000000" y2="100.000000"  transform="rotate(0.000000,106.000000,100.000000)" style="stroke: black; stroke-width:0.25;"/>
<a xlink:href="lpcf-0x7ffd251ad920.svg">
<rect x="107.000000" y="121.000000" width="129.000000" height="24.000000" rx="0" ry="0" style="stroke:none;fill:#cccccc;"/>
<rect x="106.000000" y="120.000000" width="129.000000" height="24.000000" rx="0" ry="0" style="stroke:none;fill:#003366;"/>
</a>
<a xlink:href="lpcf-0x7ffd251ad920.svg">
<text x="170.500000" y="134.000000" font-family="Arial" font-size="7" text-anchor="middle" fill="#FFFFFF">lpcf((1356,(1...)(0.7f)(0.5f)</text>
</a>
<circle cx="108.000000" cy="122.000000" r="1"/>
<line x1="103.000000" y1="131.000000" x2="106.000000" y2="132.000000"  transform="rotate(0.000000,106.000000,132.000000)" style="stroke: black; stroke-width:0.25;"/>
<line x1="103.000000" y1="133.000000" x2="106.000000" y2="132.000000"  transform="rotate(0.000000,106.000000,132.000000)" style="stroke: black; stroke-width:0.25;"/>
<a xlink:href="lpcf-0x7ffd251af370.svg">
<rect x="107.000000" y="153.000000" width="129.000000" height="24.000000" rx="0" ry="0" style="stroke:none;fill:#cccccc;"/>
<rect x="106.000000" y="152.000000" width="129.000000" height="24.000000" rx="0" ry="0" style="stroke:none;fill:#003366;"/>
</a>
<a xlink:href="lpcf-0x7ffd251af370.svg">
<text x="170.500000" y="166.000000" font-family="Arial" font-size="7" text-anchor="middle" fill="#FFFFFF">lpcf((1422,(1...)(0.7f)(0.5f)</text>
</a>
<circle cx="108.000000" cy="154.000000" r="1"/>
<line x1="103.000000" y1="163.000000" x2="106.000000" y2="164.000000"  transform="rotate(0.000000,106.000000,164.000000)" style="stroke: black; stroke-width:0.25;"/>
<line x1="103.000000" y1="165.000000" x2="106.000000" y2="164.000000"  transform="rotate(0.000000,106.000000,164.000000)" style="stroke: black; stroke-width:0.25;"/>
<a xlink:href="lpcf-0x7ffd251b0dc0.svg">
<rect x="107.000000" y="185.000000" width="129.000000" height="24.000000" rx="0" ry="0" style="stroke:none;fill:#cccccc;"/>
<rect x="106.000000" y="184.000000" width="129.000000" height="24.000000" rx="0" ry="0" style="stroke:none;fill:#003366;"/>
</a>
<a xlink:href="lpcf-0x7ffd251b0dc0.svg">
<text x="170.500000" y="198.000000" font-family="Arial" font-size="7" text-anchor="middle" fill="#FFFFFF">lpcf((1491,(1...)(0.7f)(0.5f)</text>
</a>
<circle cx="108.000000" cy="186.000000" r="1"/>
<line x1="103.000000" y1="195.000000" x2="106.000000" y2="196.000000"  transform="rotate(0.000000,106.000000,196.000000)" style="stroke: black; stroke-width:0.25;"/>
<line x1="103.000000" y1="197.000000" x2="106.000000" y2="196.000000"  transform="rotate(0.000000,106.000000,196.000000)" style="stroke: black; stroke-width:0.25;"/>
<a xlink:href="lpcf-0x7ffd251b2840.svg">
<rect x="107.000000" y="217.000000" width="129.000000" height="24.000000" rx="0" ry="0" style="stroke:none;fill:#cccccc;"/>
<rect x="106.000000" y="216.000000" width="129.000000" height="24.000000" rx="0" ry="0" style="stroke:none;fill:#003366;"/>
</a>
<a xlink:href="lpcf-0x7ffd251b2840.svg">
<text x="170.500000" y="230.000000" font-family="Arial" font-size="7" text-anchor="middle" fill="#FFFFFF">lpcf((1557,(1...)(0.7f)(0.5f)</text>
</a>
<circle cx="108.000000" cy="218.000000" r="1"/>
<line x1="103.000000" y1="227.000000" x2="106.000000" y2="228.000000"  transform="rotate(0.000000,106.000000,228.000000)" style="stroke: black; stroke-width:0.25;"/>
<line x1="103.000000" y1="229.000000" x2="106.000000" y2="228.000000"  transform="rotate(0.000000,106.000000,228.000000)" style="stroke: black; stroke-width:0.25;"/>
<a xlink:href="lpcf-0x7ffd251b4280.svg">
<rect x="107.000000" y="249.000000" width="129.000000" height="24.000000" rx="0" ry="0" style="stroke:none;fill:#cccccc;"/>
<rect x="106.000000" y="248.000000" width="129.000000" height="24.000000" rx="0" ry="0" style="stroke:none;fill:#003366;"/>
</a>
<a xlink:href="lpcf-0x7ffd251b4280.svg">
<text x="170.500000" y="262.000000" font-family="Arial" font-size="7" text-anchor="middle" fill="#FFFFFF">lpcf((1617,(1...)(0.7f)(0.5f)</text>
</a>
<circle cx="108.000000" cy="250.000000" r="1"/>
<line x1="103.000000" y1="259.000000" x2="106.000000" y2="260.000000"  transform="rotate(0.000000,106.000000,260.000000)" style="stroke: black; stroke-width:0.25;"/>
<line x1="103.000000" y1="261.000000" x2="106.000000" y2="260.000000"  transform="rotate(0.000000,106.000000,260.000000)" style="stroke: black; stroke-width:0.25;"/>
<a xlink:href="allpass-0x7ffd251b65a0.svg">
<rect x="316.000000" y="137.000000" width="154.800000" height="24.000000" rx="0" ry="0" style="stroke:none;fill:#cccccc;"/>
<rect x="315.000000" y="136.000000" width="154.800000" height="24.000000" rx="0" ry="0" style="stroke:none;fill:#003366;"/>
</a>
<a xlink:href="allpass-0x7ffd251b65a0.svg">
<text x="392.400000" y="150.000000" font-family="Arial" font-size="7" text-anchor="middle" fill="#FFFFFF">allpass_comb(...00 : / : int)(-0.7f)</text>
</a>
<circle cx="317.000000" cy="138.000000" r="1"/>
<line x1="312.000000" y1="147.000000" x2="315.000000" y2="148.000000"  transform="rotate(0.000000,315.000000,148.000000)" style="stroke: black; stroke-width:0.25;"/>
<line x1="312.000000" y1="149.000000" x2="315.000000" y2="148.000000"  transform="rotate(0.000000,315.000000,148.000000)" style="stroke: black; stroke-width:0.25;"/>
<a xlink:href="allpass-0x7ffd251b8220.svg">
<rect x="478.800000" y="137.000000" width="154.800000" height="24.000000" rx="0" ry="0" style="stroke:none;fill:#cccccc;"/>
<rect x="477.800000" y="136.000000" width="154.800000" height="24.000000" rx="0" ry="0" style="stroke:none;fill:#003366;"/>
</a>
<a xlink:href="allpass-0x7ffd251b8220.svg">
<text x="555.200000" y="150.000000" font-family="Arial" font-size="7" text-anchor="middle" fill="#FFFFFF">allpass_comb(...00 : / : int)(-0.7f)</text>
</a>
<circle cx="479.800000" cy="138.000000" r="1"/>
<line x1="474.800000" y1="147.000000" x2="477.800000" y2="148.000000"  transform="rotate(0.000000,477.800000,148.000000)" style="stroke: black; stroke-width:0.25;"/>
<line x1="474.800000" y1="149.000000" x2="477.800000" y2="148.000000"  transform="rotate(0.000000,477.800000,148.000000)" style="stroke: black; stroke-width:0.25;"/>
<a xlink:href="allpass-0x7ffd251b9eb0.svg">
<rect x="641.600000" y="137.000000" width="154.800000" height="24.000000" rx="0" ry="0" style="stroke:none;fill:#cccccc;"/>
<rect x="640.600000" y="136.000000" width="154.800000" height="24.000000" rx="0" ry="0" style="stroke:none;fill:#003366;"/>
</a>
<a xlink:href="allpass-0x7ffd251b9eb0.svg">
<text x="718.000000" y="150.000000" font-family="Arial" font-size="7" text-anchor="middle" fill="#FFFFFF">allpass_comb(...00 : / : int)(-0.7f)</text>
</a>
<circle cx="642.600000" cy="138.000000" r="1"/>
<line x1="637.600000" y1="147.000000" x2="640.600000" y2="148.000000"  transform="rotate(0.000000,640.600000,148.000000)" style="stroke: black; stroke-width:0.25;"/>
<line x1="637.600000" y1="149.000000" x2="640.600000" y2="148.000000"  transform="rotate(0.000000,640.600000,148.000000)" style="stroke: black; stroke-width:0.25;"/>
<a xlink:href="allpass-0x7ffd251bbb30.svg">
<rect x="804.400000" y="137.000000" width="154.800000" height="24.000000" rx="0" ry="0" style="stroke:none;fill:#cccccc;"/>
<rect x="803.400000" y="136.000000" width="154.800000" height="24.000000" rx="0" ry="0" style="stroke:none;fill:#003366;"/>
</a>
<a xlink:href="allpass-0x7ffd251bbb30.svg">
<text x="880.800000" y="150.000000" font-family="Arial" font-size="7" text-anchor="middle" fill="#FFFFFF">allpass_comb(...00 : / : int)(-0.7f)</text>
</a>
<circle cx="805.400000" cy="138.000000" r="1"/>
<line x1="800.400000" y1="147.000000" x2="803.400000" y2="148.000000"  transform="rotate(0.000000,803.400000,148.000000)" style="stroke: black; stroke-width:0.25;"/>
<line x1="800.400000" y1="149.000000" x2="803.400000" y2="148.000000"  transform="rotate(0.000000,803.400000,148.000000)" style="stroke: black; stroke-width:0.25;"/>
<line x1="15.000000" y1="15.000000" x2="15.000000" y2="281.000000"  style="stroke: black; stroke-linecap:round; stroke-width:0.25; stroke-dasharray:3,3;"/>
<line x1="15.000000" y1="281.000000" x2="975.200000" y2="281.000000"  style="stroke: black; stroke-linecap:round; stroke-width:0.25; stroke-dasharray:3,3;"/>
<line x1="975.200000" y1="281.000000" x2="975.200000" y2="15.000000"  style="stroke: black; stroke-linecap:round; stroke-width:0.25; stroke-dasharray:3,3;"/>
<line x1="15.000000" y1="15.000000" x2="20.000000" y2="15.000000"  style="stroke: black; stroke-linecap:round; stroke-width:0.25; stroke-dasharray:3,3;"/>
<line x1="52.250000" y1="15.000000" x2="975.200000" y2="15.000000"  style="stroke: black; stroke-linecap:round; stroke-width:0.25; stroke-dasharray:3,3;"/>
<text x="20.000000" y="17.000000" font-family="Arial" font-size="7">fxReverb</text>
<line x1="977.200000" y1="147.000000" x2="980.200000" y2="148.000000"  transform="rotate(0.000000,980.200000,148.000000)" style="stroke: black; stroke-width:0.25;"/>
<line x1="977.200000" y1="149.000000" x2="980.200000" y2="148.000000"  transform="rotate(0.000000,980.200000,148.000000)" style="stroke: black; stroke-width:0.25;"/>
<line x1="10.000000" y1="148.000000" x2="20.000000" y2="148.000000"  style="stroke:black; stroke-linecap:round; stroke-width:0.25;"/>
<line x1="20.000000" y1="148.000000" x2="24.000000" y2="148.000000"  style="stroke:black; stroke-linecap:round; stroke-width:0.25;"/>
<line x1="24.000000" y1="148.000000" x2="28.000000" y2="148.000000"  style="stroke:black; stroke-linecap:round; stroke-width:0.25;"/>
<line x1="28.000000" y1="148.000000" x2="28.000000" y2="148.000000"  style="stroke:black; stroke-linecap:round; stroke-width:0.25;"/>
<line x1="28.000000" y1="148.000000" x2="32.000000" y2="148.000000"  style="stroke:black; stroke-linecap:round; stroke-width:0.25;"/>
<line x1="32.000000" y1="148.000000" x2="36.000000" y2="148.000000"  style="stroke:black; stroke-linecap:round; stroke-width:0.25;"/>
<line x1="36.000000" y1="148.000000" x2="102.000000" y2="36.000000"  style="stroke:black; stroke-linecap:round; stroke-width:0.25;"/>
<line x1="36.000000" y1="148.000000" x2="102.000000" y2="68.000000"  style="stroke:black; stroke-linecap:round; stroke-width:0.25;"/>
<line x1="36.000000" y1="148.000000" x2="102.000000" y2="100.000000"  style="stroke:black; stroke-linecap:round; stroke-width:0.25;"/>
<line x1="36.000000" y1="148.000000" x2="102.000000" y2="132.000000"  style="stroke:black; stroke-linecap:round; stroke-width:0.25;"/>
<line x1="36.000000" y1="148.000000" x2="102.000000" y2="164.000000"  style="stroke:black; stroke-linecap:round; stroke-width:0.25;"/>
<line x1="36.000000" y1="148.000000" x2="102.000000" y2="196.000000"  style="stroke:black; stroke-linecap:round; stroke-width:0.25;"/>
<line x1="36.000000" y1="148.000000" x2="102.000000" y2="228.000000"  style="stroke:black; stroke-linecap:round; stroke-width:0.25;"/>
<line x1="36.000000" y1="148.000000" x2="102.000000" y2="260.000000"  style="stroke:black; stroke-linecap:round; stroke-width:0.25;"/>
<line x1="102.000000" y1="36.000000" x2="106.000000" y2="36.000000"  style="stroke:black; stroke-linecap:round; stroke-width:0.25;"/>
<line x1="102.000000" y1="68.000000" x2="106.000000" y2="68.000000"  style="stroke:black; stroke-linecap:round; stroke-width:0.25;"/>
<line x1="102.000000" y1="100.000000" x2="106.000000" y2="100.000000"  style="stroke:black; stroke-linecap:round; stroke-width:0.25;"/>
<line x1="102.000000" y1="132.000000" x2="106.000000" y2="132.000000"  style="stroke:black; stroke-linecap:round; stroke-width:0.25;"/>
<line x1="102.000000" y1="164.000000" x2="106.000000" y2="164.000000"  style="stroke:black; stroke-linecap:round; stroke-width:0.25;"/>
<line x1="102.000000" y1="196.000000" x2="106.000000" y2="196.000000"  style="stroke:black; stroke-linecap:round; stroke-width:0.25;"/>
<line x1="102.000000" y1="228.000000" x2="106.000000" y2="228.000000"  style="stroke:black; stroke-linecap:round; stroke-width:0.25;"/>
<line x1="102.000000" y1="260.000000" x2="106.000000" y2="260.000000"  style="stroke:black; stroke-linecap:round; stroke-width:0.25;"/>
<line x1="235.000000" y1="36.000000" x2="239.000000" y2="36.000000"  style="stroke:black; stroke-linecap:round; stroke-width:0.25;"/>
<line x1="235.000000" y1="68.000000" x2="239.000000" y2="68.000000"  style="stroke:black; stroke-linecap:round; stroke-width:0.25;"/>
<line x1="235.000000" y1="100.000000" x2="239.000000" y2="100.000000"  style="stroke:black; stroke-linecap:round; stroke-width:0.25;"/>
<line x1="235.000000" y1="132.000000" x2="239.000000" y2="132.000000"  style="stroke:black; stroke-linecap:round; stroke-width:0.25;"/>
<line x1="235.000000" y1="164.000000" x2="239.000000" y2="164.000000"  style="stroke:black; stroke-linecap:round; stroke-width:0.25;"/>
<line x1="235.000000" y1="196.000000" x2="239.000000" y2="196.000000"  style="stroke:black; stroke-linecap:round; stroke-width:0.25;"/>
<line x1="235.000000" y1="228.000000" x2="239.000000" y2="228.000000"  style="stroke:black; stroke-linecap:round; stroke-width:0.25;"/>
<line x1="235.000000" y1="260.000000" x2="239.000000" y2="260.000000"  style="stroke:black; stroke-linecap:round; stroke-width:0.25;"/>
<line x1="239.000000" y1="36.000000" x2="311.000000" y2="148.000000"  style="stroke:black; stroke-linecap:round; stroke-width:0.25;"/>
<line x1="239.000000" y1="68.000000" x2="311.000000" y2="148.000000"  style="stroke:black; stroke-linecap:round; stroke-width:0.25;"/>
<line x1="239.000000" y1="100.000000" x2="311.000000" y2="148.000000"  style="stroke:black; stroke-linecap:round; stroke-width:0.25;"/>
<line x1="239.000000" y1="132.000000" x2="311.000000" y2="148.000000"  style="stroke:black; stroke-linecap:round; stroke-width:0.25;"/>
<line x1="239.000000" y1="164.000000" x2="311.000000" y2="148.000000"  style="stroke:black; stroke-linecap:round; stroke-width:0.25;"/>
<line x1="239.000000" y1="196.000000" x2="311.000000" y2="148.000000"  style="stroke:black; stroke-linecap:round; stroke-width:0.25;"/>
<line x1="239.000000" y1="228.000000" x2="311.000000" y2="148.000000"  style="stroke:black; stroke-linecap:round; stroke-width:0.25;"/>
<line x1="239.000000" y1="260.000000" x2="311.000000" y2="148.000000"  style="stroke:black; stroke-linecap:round; stroke-width:0.25;"/>
<line x1="311.000000" y1="148.000000" x2="315.000000" y2="148.000000"  style="stroke:black; stroke-linecap:round; stroke-width:0.25;"/>
<line x1="469.800000" y1="148.000000" x2="473.800000" y2="148.000000"  style="stroke:black; stroke-linecap:round; stroke-width:0.25;"/>
<line x1="473.800000" y1="148.000000" x2="473.800000" y2="148.000000"  style="stroke:black; stroke-linecap:round; stroke-width:0.25;"/>
<line x1="473.800000" y1="148.000000" x2="477.800000" y2="148.000000"  style="stroke:black; stroke-linecap:round; stroke-width:0.25;"/>
<line x1="632.600000" y1="148.000000" x2="636.600000" y2="148.000000"  style="stroke:black; stroke-linecap:round; stroke-width:0.25;"/>
<line x1="636.600000" y1="148.000000" x2="636.600000" y2="148.000000"  style="stroke:black; stroke-linecap:round; stroke-width:0.25;"/>
<line x1="636.600000" y1="148.000000" x2="640.600000" y2="148.000000"  style="stroke:black; stroke-linecap:round; stroke-width:0.25;"/>
<line x1="795.400000" y1="148.000000" x2="799.400000" y2="148.000000"  style="stroke:black; stroke-linecap:round; stroke-width:0.25;"/>
<line x1="799.400000" y1="148.000000" x2="799.400000" y2="148.000000"  style="stroke:black; stroke-linecap:round; stroke-width:0.25;"/>
<line x1="799.400000" y1="148.000000" x2="803.400000" y2="148.000000"  style="stroke:black; stroke-linecap:round; stroke-width:0.25;"/>
<line x1="958.200000" y1="148.000000" x2="962.200000" y2="148.000000"  style="stroke:black; stroke-linecap:round; stroke-width:0.25;"/>
<line x1="962.200000" y1="148.000000" x2="962.200000" y2="148.000000"  style="stroke:black; stroke-linecap:round; stroke-width:0.25;"/>
<line x1="962.200000" y1="148.000000" x2="966.200000" y2="148.000000"  style="stroke:black; stroke-linecap:round; stroke-width:0.25;"/>
<line x1="966.200000" y1="148.000000" x2="970.200000" y2="148.000000"  style="stroke:black; stroke-linecap:round; stroke-width:0.25;"/>
<line x1="970.200000" y1="148.000000" x2="980.200000" y2="148.000000"  style="stroke:black; stroke-linecap:round; stroke-width:0.25;"/>
</svg>
