<?xml version="1.0"?>
<svg xmlns="http://www.w3.org/2000/svg" xmlns:xlink="http://www.w3.org/1999/xlink" viewBox="0 0 238.000000 88.000000" width="119.000000mm" height="44.000000mm" version="1.1">
<a xlink:href="dcblocker-0x7fe4a06686c0.svg">
<rect x="1.000000" y="1.000000" width="237.000000" height="87.000000" rx="0" ry="0" style="stroke:none;fill:#cccccc;"/>
<rect x="0.000000" y="0.000000" width="237.000000" height="87.000000" rx="0" ry="0" style="stroke:none;fill:#ffffff;"/>
</a>
<text x="10.000000" y="7.000000" font-family="Arial" font-size="7"></text>
<rect x="55.000000" y="37.000000" width="24.000000" height="24.000000" rx="0" ry="0" style="stroke:none;fill:#cccccc;"/>
<rect x="54.000000" y="36.000000" width="24.000000" height="24.000000" rx="0" ry="0" style="stroke:none;fill:#4B71A1;"/>
<text x="66.000000" y="50.000000" font-family="Arial" font-size="7" text-anchor="middle" fill="#FFFFFF">mem</text>
<circle cx="56.000000" cy="38.000000" r="1"/>
<line x1="51.000000" y1="47.000000" x2="54.000000" y2="48.000000"  transform="rotate(0.000000,54.000000,48.000000)" style="stroke: black; stroke-width:0.25;"/>
<line x1="51.000000" y1="49.000000" x2="54.000000" y2="48.000000"  transform="rotate(0.000000,54.000000,48.000000)" style="stroke: black; stroke-width:0.25;"/>
<rect x="103.000000" y="41.000000" width="24.000000" height="24.000000" rx="0" ry="0" style="stroke:none;fill:#cccccc;"/>
<rect x="102.000000" y="40.000000" width="24.000000" height="24.000000" rx="0" ry="0" style="stroke:none;fill:#f44800;"/>
<text x="114.000000" y="54.000000" font-family="Arial" font-size="7" text-anchor="middle" fill="#FFFFFF">1</text>
<circle cx="104.000000" cy="42.000000" r="1"/>
<rect x="143.000000" y="37.000000" width="24.000000" height="24.000000" rx="0" ry="0" style="stroke:none;fill:#cccccc;"/>
<rect x="142.000000" y="36.000000" width="24.000000" height="24.000000" rx="0" ry="0" style="stroke:none;fill:#4B71A1;"/>
<text x="154.000000" y="50.000000" font-family="Arial" font-size="7" text-anchor="middle" fill="#FFFFFF">*</text>
<circle cx="144.000000" cy="38.000000" r="1"/>
<line x1="139.000000" y1="43.000000" x2="142.000000" y2="44.000000"  transform="rotate(0.000000,142.000000,44.000000)" style="stroke: black; stroke-width:0.25;"/>
<line x1="139.000000" y1="45.000000" x2="142.000000" y2="44.000000"  transform="rotate(0.000000,142.000000,44.000000)" style="stroke: black; stroke-width:0.25;"/>
<line x1="139.000000" y1="51.000000" x2="142.000000" y2="52.000000"  transform="rotate(0.000000,142.000000,52.000000)" style="stroke: black; stroke-width:0.25;"/>
<line x1="139.000000" y1="53.000000" x2="142.000000" y2="52.000000"  transform="rotate(0.000000,142.000000,52.000000)" style="stroke: black; stroke-width:0.25;"/>
<rect x="183.000000" y="33.000000" width="24.000000" height="24.000000" rx="0" ry="0" style="stroke:none;fill:#cccccc;"/>
<rect x="182.000000" y="32.000000" width="24.000000" height="24.000000" rx="0" ry="0" style="stroke:none;fill:#4B71A1;"/>
<text x="194.000000" y="46.000000" font-family="Arial" font-size="7" text-anchor="middle" fill="#FFFFFF">-</text>
<circle cx="184.000000" cy="34.000000" r="1"/>
<line x1="179.000000" y1="39.000000" x2="182.000000" y2="40.000000"  transform="rotate(0.000000,182.000000,40.000000)" style="stroke: black; stroke-width:0.25;"/>
<line x1="179.000000" y1="41.000000" x2="182.000000" y2="40.000000"  transform="rotate(0.000000,182.000000,40.000000)" style="stroke: black; stroke-width:0.25;"/>
<line x1="179.000000" y1="47.000000" x2="182.000000" y2="48.000000"  transform="rotate(0.000000,182.000000,48.000000)" style="stroke: black; stroke-width:0.25;"/>
<line x1="179.000000" y1="49.000000" x2="182.000000" y2="48.000000"  transform="rotate(0.000000,182.000000,48.000000)" style="stroke: black; stroke-width:0.25;"/>
<line x1="15.000000" y1="15.000000" x2="15.000000" y2="73.000000"  style="stroke: black; stroke-linecap:round; stroke-width:0.25; stroke-dasharray:3,3;"/>
<line x1="15.000000" y1="73.000000" x2="223.000000" y2="73.000000"  style="stroke: black; stroke-linecap:round; stroke-width:0.25; stroke-dasharray:3,3;"/>
<line x1="223.000000" y1="73.000000" x2="223.000000" y2="15.000000"  style="stroke: black; stroke-linecap:round; stroke-width:0.25; stroke-dasharray:3,3;"/>
<line x1="15.000000" y1="15.000000" x2="20.000000" y2="15.000000"  style="stroke: black; stroke-linecap:round; stroke-width:0.25; stroke-dasharray:3,3;"/>
<line x1="49.025000" y1="15.000000" x2="223.000000" y2="15.000000"  style="stroke: black; stroke-linecap:round; stroke-width:0.25; stroke-dasharray:3,3;"/>
<text x="20.000000" y="17.000000" font-family="Arial" font-size="7">zero(1)</text>
<line x1="225.000000" y1="43.000000" x2="228.000000" y2="44.000000"  transform="rotate(0.000000,228.000000,44.000000)" style="stroke: black; stroke-width:0.25;"/>
<line x1="225.000000" y1="45.000000" x2="228.000000" y2="44.000000"  transform="rotate(0.000000,228.000000,44.000000)" style="stroke: black; stroke-width:0.25;"/>
<line x1="10.000000" y1="44.000000" x2="20.000000" y2="44.000000"  style="stroke:black; stroke-linecap:round; stroke-width:0.25;"/>
<line x1="20.000000" y1="44.000000" x2="24.000000" y2="44.000000"  style="stroke:black; stroke-linecap:round; stroke-width:0.25;"/>
<line x1="24.000000" y1="44.000000" x2="28.000000" y2="44.000000"  style="stroke:black; stroke-linecap:round; stroke-width:0.25;"/>
<line x1="28.000000" y1="44.000000" x2="28.000000" y2="44.000000"  style="stroke:black; stroke-linecap:round; stroke-width:0.25;"/>
<line x1="28.000000" y1="44.000000" x2="32.000000" y2="44.000000"  style="stroke:black; stroke-linecap:round; stroke-width:0.25;"/>
<line x1="32.000000" y1="44.000000" x2="36.000000" y2="44.000000"  style="stroke:black; stroke-linecap:round; stroke-width:0.25;"/>
<line x1="36.000000" y1="44.000000" x2="50.000000" y2="28.000000"  style="stroke:black; stroke-linecap:round; stroke-width:0.25;"/>
<line x1="36.000000" y1="44.000000" x2="50.000000" y2="48.000000"  style="stroke:black; stroke-linecap:round; stroke-width:0.25;"/>
<line x1="50.000000" y1="28.000000" x2="66.000000" y2="28.000000"  style="stroke:black; stroke-linecap:round; stroke-width:0.25;"/>
<line x1="50.000000" y1="48.000000" x2="54.000000" y2="48.000000"  style="stroke:black; stroke-linecap:round; stroke-width:0.25;"/>
<line x1="66.000000" y1="28.000000" x2="82.000000" y2="28.000000"  style="stroke:black; stroke-linecap:round; stroke-width:0.25;"/>
<line x1="78.000000" y1="48.000000" x2="82.000000" y2="48.000000"  style="stroke:black; stroke-linecap:round; stroke-width:0.25;"/>
<line x1="82.000000" y1="24.000000" x2="98.000000" y2="24.000000"  style="stroke:black; stroke-linecap:round; stroke-width:0.25;"/>
<line x1="82.000000" y1="28.000000" x2="82.000000" y2="24.000000"  style="stroke:black; stroke-linecap:round; stroke-width:0.25;"/>
<line x1="82.000000" y1="28.000000" x2="82.000000" y2="28.000000"  style="stroke:black; stroke-linecap:round; stroke-width:0.25;"/>
<line x1="82.000000" y1="48.000000" x2="90.000000" y2="48.000000"  style="stroke:black; stroke-linecap:round; stroke-width:0.25;"/>
<line x1="90.000000" y1="32.000000" x2="98.000000" y2="32.000000"  style="stroke:black; stroke-linecap:round; stroke-width:0.25;"/>
<line x1="90.000000" y1="48.000000" x2="90.000000" y2="32.000000"  style="stroke:black; stroke-linecap:round; stroke-width:0.25;"/>
<line x1="98.000000" y1="24.000000" x2="134.000000" y2="24.000000"  style="stroke:black; stroke-linecap:round; stroke-width:0.25;"/>
<line x1="98.000000" y1="32.000000" x2="114.000000" y2="32.000000"  style="stroke:black; stroke-linecap:round; stroke-width:0.25;"/>
<line x1="114.000000" y1="32.000000" x2="130.000000" y2="32.000000"  style="stroke:black; stroke-linecap:round; stroke-width:0.25;"/>
<line x1="126.000000" y1="52.000000" x2="130.000000" y2="52.000000"  style="stroke:black; stroke-linecap:round; stroke-width:0.25;"/>
<line x1="130.000000" y1="32.000000" x2="138.000000" y2="32.000000"  style="stroke:black; stroke-linecap:round; stroke-width:0.25;"/>
<line x1="130.000000" y1="52.000000" x2="138.000000" y2="52.000000"  style="stroke:black; stroke-linecap:round; stroke-width:0.25;"/>
<line x1="134.000000" y1="24.000000" x2="170.000000" y2="24.000000"  style="stroke:black; stroke-linecap:round; stroke-width:0.25;"/>
<line x1="138.000000" y1="32.000000" x2="138.000000" y2="44.000000"  style="stroke:black; stroke-linecap:round; stroke-width:0.25;"/>
<line x1="138.000000" y1="44.000000" x2="138.000000" y2="44.000000"  style="stroke:black; stroke-linecap:round; stroke-width:0.25;"/>
<line x1="138.000000" y1="44.000000" x2="142.000000" y2="44.000000"  style="stroke:black; stroke-linecap:round; stroke-width:0.25;"/>
<line x1="138.000000" y1="52.000000" x2="142.000000" y2="52.000000"  style="stroke:black; stroke-linecap:round; stroke-width:0.25;"/>
<line x1="166.000000" y1="48.000000" x2="170.000000" y2="48.000000"  style="stroke:black; stroke-linecap:round; stroke-width:0.25;"/>
<line x1="170.000000" y1="24.000000" x2="178.000000" y2="24.000000"  style="stroke:black; stroke-linecap:round; stroke-width:0.25;"/>
<line x1="170.000000" y1="48.000000" x2="178.000000" y2="48.000000"  style="stroke:black; stroke-linecap:round; stroke-width:0.25;"/>
<line x1="178.000000" y1="24.000000" x2="178.000000" y2="40.000000"  style="stroke:black; stroke-linecap:round; stroke-width:0.25;"/>
<line x1="178.000000" y1="40.000000" x2="178.000000" y2="40.000000"  style="stroke:black; stroke-linecap:round; stroke-width:0.25;"/>
<line x1="178.000000" y1="40.000000" x2="182.000000" y2="40.000000"  style="stroke:black; stroke-linecap:round; stroke-width:0.25;"/>
<line x1="178.000000" y1="48.000000" x2="182.000000" y2="48.000000"  style="stroke:black; stroke-linecap:round; stroke-width:0.25;"/>
<line x1="206.000000" y1="44.000000" x2="210.000000" y2="44.000000"  style="stroke:black; stroke-linecap:round; stroke-width:0.25;"/>
<line x1="210.000000" y1="44.000000" x2="210.000000" y2="44.000000"  style="stroke:black; stroke-linecap:round; stroke-width:0.25;"/>
<line x1="210.000000" y1="44.000000" x2="214.000000" y2="44.000000"  style="stroke:black; stroke-linecap:round; stroke-width:0.25;"/>
<line x1="214.000000" y1="44.000000" x2="218.000000" y2="44.000000"  style="stroke:black; stroke-linecap:round; stroke-width:0.25;"/>
<line x1="218.000000" y1="44.000000" x2="228.000000" y2="44.000000"  style="stroke:black; stroke-linecap:round; stroke-width:0.25;"/>
</svg>
